<?xml version="1.0" standalone="no"?>
<!DOCTYPE svg PUBLIC "-//W3C//DTD SVG 1.1//EN" "http://www.w3.org/Graphics/SVG/1.1/DTD/svg11.dtd" >
<svg>
<metadata>
Created by FontForge 20120731 at Tue Jul  2 17:30:09 2019
 By www
Copyright (c) 2013 by Rene' Bieder. All rights reserved.
</metadata>
<defs>
<font id="CanaroW00-Light" horiz-adv-x="600" >
  <font-face 
    font-family="CanaroW00-Light"
    font-weight="300"
    font-stretch="normal"
    units-per-em="1000"
    panose-1="1 0 0 0 0 0 0 0 0 0"
    ascent="800"
    descent="-200"
    x-height="462"
    cap-height="680"
    bbox="-32 -272 1420 917"
    underline-thickness="50"
    underline-position="-125"
    unicode-range="U+0020-FB02"
  />
<missing-glyph horiz-adv-x="870" 
d="M770 0h-670v680h670v-680zM219 610l481 -481v481h-481zM647 70l-477 477v-477h477z" />
    <glyph glyph-name=".notdef" horiz-adv-x="870" 
d="M770 0h-670v680h670v-680zM219 610l481 -481v481h-481zM647 70l-477 477v-477h477z" />
    <glyph glyph-name=".null" horiz-adv-x="0" 
 />
    <glyph glyph-name="nonmarkingreturn" horiz-adv-x="333" 
 />
    <glyph glyph-name="space" unicode=" " horiz-adv-x="259" 
 />
    <glyph glyph-name="exclam" unicode="!" horiz-adv-x="238" 
d="M153 176h-69l-3 504h75zM119 -13q-20 0 -35 14t-15 35t15 35t35 14q21 0 36 -14t15 -35t-15 -35t-36 -14z" />
    <glyph glyph-name="quotedbl" unicode="&#x22;" horiz-adv-x="353" 
d="M138 528h-61l2 234h76zM280 528h-61l1 234h76z" />
    <glyph glyph-name="numbersign" unicode="#" horiz-adv-x="736" 
d="M639 259v-60h-145l-62 -199h-71l63 199h-205l-62 -199h-71l63 199h-108v60h126l49 156h-120v60h139l64 206h71l-65 -206h205l64 206h71l-65 -206h114v-60h-132l-49 -156h126zM238 259h204l49 156h-204z" />
    <glyph glyph-name="dollar" unicode="$" horiz-adv-x="682" 
d="M605 186q0 -46 -17 -82t-47 -61.5t-72.5 -39.5t-93.5 -17v-117h-63v117q-60 5 -123 19t-120 37l19 66q68 -28 137.5 -42.5t129.5 -14.5q79 0 128.5 33t49.5 96q0 39 -20 63t-52.5 39t-73 24t-81.5 18q-57 12 -96.5 26.5t-64 35t-36 48.5t-11.5 66q0 42 15.5 76t43.5 58.5
t67.5 39t87.5 17.5v125h63v-125q57 -3 112 -14t97 -26l-19 -61q-58 17 -119 27.5t-110 10.5q-74 0 -118.5 -32.5t-44.5 -92.5q0 -26 10 -44t31 -31.5t54 -23.5t78 -19q57 -12 104.5 -26t82 -35.5t53.5 -54.5t19 -83z" />
    <glyph glyph-name="percent" unicode="%" horiz-adv-x="1081" 
d="M276 695q40 0 73.5 -13.5t58.5 -38.5t39 -60t14 -77q0 -43 -14 -78t-39 -59.5t-58.5 -38t-73.5 -13.5q-39 0 -73 13.5t-59 38t-39 59.5t-14 78q0 42 14 77t39 60t59 38.5t73 13.5zM287 0l453 680h45l-453 -680h-45zM276 369q28 0 52 10t41.5 28t27.5 43t10 56t-10 56
t-27.5 43t-41.5 28t-52 10q-27 0 -51 -10t-42 -28t-28 -43t-10 -56t10 -56t28 -43t42 -28t51 -10zM804 363q40 0 73.5 -13.5t58.5 -38t39 -59.5t14 -77q0 -43 -14 -78t-39 -60t-58.5 -38.5t-73.5 -13.5q-39 0 -73 13.5t-59 38.5t-39 60t-14 78q0 42 14 77t39 59.5t59 38
t73 13.5zM804 37q56 0 93.5 37.5t37.5 100.5q0 31 -10 56t-27.5 43t-41.5 27.5t-52 9.5q-27 0 -51 -9.5t-42 -27.5t-28 -43t-10 -56t10 -56.5t28 -43.5t42 -28t51 -10z" />
    <glyph glyph-name="ampersand" unicode="&#x26;" horiz-adv-x="639" 
d="M533 194q0 -47 -17 -85.5t-49 -65.5t-77 -42t-102 -15t-102.5 14.5t-77.5 41.5t-49 64.5t-17 83.5q0 59 34.5 100t100.5 60q-53 18 -80 56t-27 92q0 42 16 77t45.5 59.5t71.5 38t95 13.5q69 0 135 -18l-14 -59q-61 16 -123 16q-74 0 -116.5 -34t-42.5 -91t37.5 -89.5
t118.5 -32.5h314v-59h-74v-125zM293 319q-90 0 -137 -35t-47 -92q0 -66 47.5 -105.5t131.5 -39.5t131.5 40.5t47.5 106.5v125h-174z" />
    <glyph glyph-name="quotesingle" unicode="'" horiz-adv-x="212" 
d="M138 528h-61l2 234h76z" />
    <glyph glyph-name="parenleft" unicode="(" horiz-adv-x="325" 
d="M280 724q-35 -48 -64 -98.5t-50 -106.5t-32.5 -119t-11.5 -136q0 -74 11.5 -137t32.5 -119t50 -106t64 -98l-51 -33q-83 102 -128 225t-45 268q0 144 45 267t128 225z" />
    <glyph glyph-name="parenright" unicode=")" horiz-adv-x="324" 
d="M95 756q83 -102 128 -225t45 -267q0 -145 -45 -268t-128 -225l-51 33q35 48 64 98t50 106t32.5 119t11.5 137q0 73 -11.5 136t-32.5 119t-50 106.5t-64 98.5z" />
    <glyph glyph-name="asterisk" unicode="*" horiz-adv-x="395" 
d="M326 433l-107 64v-116h-43v115l-107 -63l-20 35l109 65l-109 65l20 37l107 -64v113h43v-113l107 64l21 -37l-109 -65l109 -65z" />
    <glyph glyph-name="plus" unicode="+" horiz-adv-x="693" 
d="M381 94h-67v197h-197v64h197v198h67v-198h195v-64h-195v-197z" />
    <glyph glyph-name="comma" unicode="," horiz-adv-x="274" 
d="M118 -5q-35 12 -35 45q0 23 15.5 37.5t38.5 14.5t38.5 -14.5t15.5 -37.5q0 -9 -2 -17.5t-9.5 -26.5t-22.5 -51t-41 -91h-51z" />
    <glyph glyph-name="hyphen" unicode="-" horiz-adv-x="533" 
d="M416 237h-299v69h299v-69z" />
    <glyph glyph-name="period" unicode="." horiz-adv-x="274" 
d="M137 -13q-23 0 -38.5 15t-15.5 38t15.5 37.5t38.5 14.5t38.5 -14.5t15.5 -37.5t-15.5 -38t-38.5 -15z" />
    <glyph glyph-name="slash" unicode="/" horiz-adv-x="482" 
d="M17 -272l370 1040h63l-371 -1040h-62z" />
    <glyph glyph-name="zero" unicode="0" horiz-adv-x="753" 
d="M377 695q70 0 127 -25.5t97.5 -72t63 -112t22.5 -145.5t-22.5 -145.5t-63 -112t-97.5 -72t-127 -25.5t-127.5 25.5t-98 72t-63 112t-22.5 145.5t22.5 145.5t63 112t98 72t127.5 25.5zM377 51q53 0 97 21t75 59t48 91t17 118t-17 118t-48 91t-75 59t-97 21
q-54 0 -97.5 -21t-75 -59t-48.5 -91t-17 -118t17 -118t48.5 -91t75 -59t97.5 -21z" />
    <glyph glyph-name="one" unicode="1" horiz-adv-x="410" 
d="M221 0v602l-186 -55l-15 57l249 76h22v-680h-70z" />
    <glyph glyph-name="two" unicode="2" horiz-adv-x="580" 
d="M59 0v46l241 226q28 26 53.5 51t44.5 50t30.5 52t11.5 57q0 70 -47 109t-123 39q-40 0 -90 -13t-104 -40l-20 60q49 27 108.5 42.5t115.5 15.5t99.5 -15.5t73 -43t45 -65t15.5 -80.5q0 -39 -14 -74.5t-38.5 -68.5t-56.5 -65t-68 -65l-172 -154h362v-64h-467z" />
    <glyph glyph-name="three" unicode="3" horiz-adv-x="590" 
d="M285 380h21q109 -4 169.5 -52t60.5 -134q0 -46 -18.5 -84.5t-52 -66t-80.5 -43t-104 -15.5q-62 0 -122.5 14.5t-115.5 42.5l25 55q54 -24 107.5 -37.5t107.5 -13.5q37 0 70.5 11t58 30.5t39 46t14.5 58.5q0 63 -49 95.5t-137 32.5h-95v34l232 262h-343v64h440v-44z" />
    <glyph glyph-name="four" unicode="4" horiz-adv-x="672" 
d="M620 191v-61h-93v-130h-70v130h-411v48l411 502h70v-489h93zM457 191v395l-319 -395h319z" />
    <glyph glyph-name="five" unicode="5" horiz-adv-x="612" 
d="M304 404q115 -6 180 -58t65 -144q0 -50 -18 -90t-50.5 -68.5t-77 -43.5t-97.5 -15q-70 0 -132 14.5t-118 42.5l24 60q54 -24 109 -38t114 -14q37 0 69 10t55 29.5t36.5 47.5t13.5 64q0 62 -48 98.5t-134 40.5l-201 10l31 330h399v-66h-338l-20 -203z" />
    <glyph glyph-name="six" unicode="6" horiz-adv-x="621" 
d="M311 463q56 0 103 -16.5t81 -47.5t53 -74.5t19 -97.5t-19 -99t-53 -76.5t-81 -49t-103 -17.5t-103.5 17.5t-81.5 49t-53 76.5t-19 99q0 44 15 81t41 73l212 299h85l-159 -222q15 2 30.5 3.5t32.5 1.5zM311 46q40 0 74.5 13t59.5 36.5t39 57t14 74.5q0 40 -14 73t-39 56
t-59.5 36t-74.5 13q-42 0 -77 -13t-59.5 -36.5t-38 -56t-13.5 -72.5q0 -41 14 -74.5t39 -57t59.5 -36.5t75.5 -13z" />
    <glyph glyph-name="seven" unicode="7" horiz-adv-x="551" 
d="M218 0h-78l294 614h-400v66h484v-43z" />
    <glyph glyph-name="eight" unicode="8" horiz-adv-x="634" 
d="M427 357q75 -20 115 -64.5t40 -107.5q0 -44 -19 -81t-54 -63.5t-83.5 -41t-108.5 -14.5t-108.5 14.5t-83.5 41t-54 63.5t-19 81q0 63 40 107.5t114 64.5q-57 20 -87.5 60.5t-30.5 98.5q0 40 16.5 73.5t47 56.5t72.5 36t93 13t93.5 -13t72.5 -36t46.5 -56.5t16.5 -73.5
q0 -58 -30.5 -98.5t-88.5 -60.5zM160 513q0 -59 43 -94t114 -35t114 35t43 94q0 55 -43 89.5t-114 34.5t-114 -34.5t-43 -89.5zM317 46q43 0 78 11t60 30t39 45t14 57q0 30 -14 55t-39 43t-60 27.5t-78 9.5t-78.5 -9.5t-60.5 -27.5t-38.5 -43t-13.5 -55q0 -31 13.5 -57
t38.5 -45t60.5 -30t78.5 -11z" />
    <glyph glyph-name="nine" unicode="9" horiz-adv-x="609" 
d="M559 453q0 -44 -14.5 -80t-36.5 -67l-1 -1l-212 -305h-82l156 222q-16 -2 -32.5 -3.5t-34.5 -1.5q-56 0 -103 16.5t-81 47.5t-53 74.5t-19 97.5t19 99t53 76.5t81 49t103 17.5t103.5 -17.5t81.5 -49t53 -76.5t19 -99zM115 453q0 -40 14 -73t39 -56t59 -36t75 -13
q42 0 77 13t59.5 36.5t38 56t13.5 72.5q0 41 -14 74.5t-39.5 57t-60 36.5t-74.5 13q-41 0 -75 -13t-59 -36.5t-39 -57t-14 -74.5z" />
    <glyph glyph-name="colon" unicode=":" horiz-adv-x="274" 
d="M137 369q-23 0 -38.5 15t-15.5 38q0 22 15.5 37t38.5 15t38.5 -15t15.5 -37q0 -23 -15.5 -38t-38.5 -15zM137 -13q-23 0 -38.5 15t-15.5 38t15.5 37.5t38.5 14.5t38.5 -14.5t15.5 -37.5t-15.5 -38t-38.5 -15z" />
    <glyph glyph-name="semicolon" unicode=";" horiz-adv-x="278" 
d="M141 369q-23 0 -38.5 15t-15.5 38q0 22 15.5 37t38.5 15t38.5 -15t15.5 -37q0 -23 -15.5 -38t-38.5 -15zM118 -5q-34 12 -34 45q0 23 15.5 37.5t38.5 14.5t38.5 -14.5t15.5 -37.5q0 -9 -2 -17.5t-9.5 -26.5t-23 -51t-41.5 -91h-51z" />
    <glyph glyph-name="less" unicode="&#x3c;" horiz-adv-x="553" 
d="M478 469l-347 -167l347 -167v-69l-422 201v70l422 201v-69z" />
    <glyph glyph-name="equal" unicode="=" horiz-adv-x="716" 
d="M117 391v64h482v-64h-482zM117 197v64h482v-64h-482z" />
    <glyph glyph-name="greater" unicode="&#x3e;" horiz-adv-x="553" 
d="M76 66v69l346 167l-346 167v69l422 -201v-70z" />
    <glyph glyph-name="question" unicode="?" horiz-adv-x="494" 
d="M222 695q54 0 98 -15t75.5 -42t48.5 -65t17 -84q0 -47 -16 -86.5t-45.5 -67.5t-70.5 -43.5t-90 -15.5h-24l4 -100h-64l-13 158h85q76 0 121.5 43t45.5 114q0 65 -46.5 104t-123.5 39q-38 0 -79 -5t-82 -13l-11 57q40 11 84 16.5t86 5.5zM189 85q21 0 36 -14t15 -35
t-15 -35t-36 -14q-20 0 -35 14t-15 35t15 35t35 14z" />
    <glyph glyph-name="at" unicode="@" horiz-adv-x="1017" 
d="M508 690q101 0 184 -31.5t142 -89t91 -138t32 -178.5q0 -64 -13.5 -109.5t-37 -75t-55.5 -43t-70 -13.5q-91 0 -119 65q-50 -35 -93 -51t-94 -16t-92.5 17.5t-71 49.5t-46 76.5t-16.5 99.5q0 49 16 91t46 72t72.5 47t95.5 17q39 0 71 -2t59 -5t51.5 -7.5t49.5 -9.5v-283
q0 -55 17 -83.5t63 -28.5q26 0 49 9.5t40 31.5t27 59t10 92q0 90 -29.5 163t-83 125.5t-128.5 81t-167 28.5q-86 0 -160.5 -30.5t-129.5 -84t-86 -126t-31 -157.5t30 -157.5t83 -126t126 -84.5t159 -31q61 0 120 9t128 25l7 -36q-67 -17 -128 -26.5t-127 -9.5q-96 0 -177 33
t-139 91.5t-90.5 138.5t-32.5 174t34 174t94 138.5t142 91.5t178 33zM487 424q-42 0 -74.5 -13.5t-54 -36.5t-32.5 -55t-11 -68q0 -83 45 -134t123 -51q40 0 78.5 13.5t89.5 46.5q-6 25 -6 57v227q-44 8 -80 11t-78 3z" />
    <glyph glyph-name="A" unicode="A" horiz-adv-x="760" 
d="M117 0h-80l310 685h67l309 -685h-79l-74 166h-379zM218 230h324l-162 364z" />
    <glyph glyph-name="B" unicode="B" horiz-adv-x="678" 
d="M451 350q81 -14 124.5 -57t43.5 -107q0 -96 -69 -145t-187 -49q-31 0 -65 1t-68.5 2t-67.5 2.5t-62 2.5v680q25 1 56.5 2t65 2t68.5 1.5t67 0.5q106 0 166 -44.5t60 -131.5q0 -60 -34 -101.5t-98 -58.5zM350 623q-45 0 -91 -1t-88 -3v-244h176q79 0 123.5 33t44.5 93
q0 63 -43.5 92.5t-121.5 29.5zM356 55q90 0 141 33.5t51 102.5q0 60 -50 91.5t-131 31.5h-196v-254q50 -2 95 -3.5t90 -1.5z" />
    <glyph glyph-name="C" unicode="C" horiz-adv-x="751" 
d="M658 595q-59 16 -110.5 24t-99.5 8q-74 0 -131 -21t-96.5 -58.5t-60 -90.5t-20.5 -116q0 -65 21 -118.5t60 -91.5t94 -59t123 -21q45 0 105 9t129 28l14 -62q-66 -20 -130 -30.5t-121 -10.5q-84 0 -152 25.5t-116.5 72t-74.5 112t-26 145.5t26 145.5t75 112t118 72
t155 25.5q60 0 118.5 -8.5t113.5 -25.5z" />
    <glyph glyph-name="D" unicode="D" horiz-adv-x="751" 
d="M329 688q79 0 144.5 -24t113 -68.5t73.5 -108t26 -142.5q0 -81 -26 -146.5t-72.5 -111t-110 -70t-139.5 -24.5q-30 0 -63 0.5t-64.5 1.5t-60 2.5t-50.5 2.5v680q22 1 50 2.5t58 2.5t61 2t60 1zM338 59q60 0 110 19.5t86 56.5t56.5 90t20.5 120q0 64 -20.5 115.5
t-57.5 87.5t-89 55t-115 19q-38 0 -79 -1t-79 -3v-556q41 -2 84 -2.5t83 -0.5z" />
    <glyph glyph-name="E" unicode="E" horiz-adv-x="641" 
d="M531 373v-66h-360v-242h402v-65h-473v680h473v-65h-402v-242h360z" />
    <glyph glyph-name="F" unicode="F" horiz-adv-x="602" 
d="M520 349v-66h-349v-283h-71v680h461v-65h-390v-266h349z" />
    <glyph glyph-name="G" unicode="G" horiz-adv-x="810" 
d="M737 54q-79 -35 -156.5 -52t-151.5 -17q-82 0 -149 25.5t-114.5 72t-73.5 112.5t-26 146q0 79 26.5 144.5t75.5 112t117 72t152 25.5q54 0 115.5 -8.5t119.5 -25.5l-14 -65q-65 16 -120 23.5t-97 7.5q-68 0 -123 -20.5t-95 -58t-61.5 -90.5t-21.5 -117q0 -65 20.5 -118
t58.5 -90.5t91.5 -58.5t118.5 -21q55 0 117 10.5t123 33.5v208h-272v66h340v-317z" />
    <glyph glyph-name="H" unicode="H" horiz-adv-x="754" 
d="M583 0v304h-412v-304h-71v680h71v-311h412v311h71v-680h-71z" />
    <glyph glyph-name="I" unicode="I" horiz-adv-x="271" 
d="M171 0h-71v680h71v-680z" />
    <glyph glyph-name="J" unicode="J" horiz-adv-x="572" 
d="M482 249q0 -126 -62.5 -195t-171.5 -69q-56 0 -108.5 10.5t-113.5 32.5l15 63q62 -20 111 -29t96 -9q75 0 118.5 50.5t43.5 144.5v432h72v-431z" />
    <glyph glyph-name="K" unicode="K" horiz-adv-x="686" 
d="M171 0h-71v680h71v-330h72l299 330h89l-303 -334l329 -346h-90l-275 282h-121v-282z" />
    <glyph glyph-name="L" unicode="L" horiz-adv-x="586" 
d="M100 0v680h71v-616h379v-64h-450z" />
    <glyph glyph-name="M" unicode="M" horiz-adv-x="942" 
d="M503 0h-64l-248 525l-31 -525h-70l40 680h68l273 -595l273 595h68l40 -680h-70l-32 525z" />
    <glyph glyph-name="N" unicode="N" horiz-adv-x="781" 
d="M681 0h-72l-438 564v-564h-71v680h69l441 -566v566h71v-680z" />
    <glyph glyph-name="O" unicode="O" horiz-adv-x="847" 
d="M423 695q79 0 145 -25.5t113.5 -72t73.5 -112t26 -145.5t-26 -145.5t-73.5 -112t-113.5 -72t-145 -25.5q-80 0 -145.5 25.5t-112.5 72t-73 112t-26 145.5t26 145.5t73 112t112.5 72t145.5 25.5zM423 51q63 0 115 21t89.5 59t58.5 91t21 118t-21 118t-58.5 91t-89.5 58.5
t-115 20.5t-115 -20.5t-89.5 -58.5t-58 -91t-20.5 -118t20.5 -118t58 -91t89.5 -59t115 -21z" />
    <glyph glyph-name="P" unicode="P" horiz-adv-x="640" 
d="M330 688q60 0 109 -15.5t84 -44.5t54.5 -72t19.5 -97q0 -51 -19.5 -93t-54.5 -72t-84 -46.5t-109 -16.5h-159v-231h-71v680q57 4 114 6t116 2zM337 295q42 0 77 11.5t60 33t39 51.5t14 67q0 40 -14 70.5t-39 51.5t-60 31.5t-77 10.5q-41 0 -80.5 -1t-85.5 -3v-323h166z
" />
    <glyph glyph-name="Q" unicode="Q" horiz-adv-x="847" 
d="M781 340q0 -118 -55 -203.5t-151 -123.5l154 -178h-90l-136 157q-35 -7 -79 -7q-80 0 -145.5 25.5t-113 72t-73.5 112t-26 145.5t26 145.5t73.5 112t113 72t145.5 25.5q79 0 145 -25.5t113 -72t73 -112t26 -145.5zM423 51q63 0 115 21t89.5 59t58.5 91t21 118t-21 118
t-58.5 91t-89.5 58.5t-115 20.5t-115 -20.5t-89.5 -58.5t-58 -91t-20.5 -118t20.5 -118t58 -91t89.5 -59t115 -21z" />
    <glyph glyph-name="R" unicode="R" horiz-adv-x="658" 
d="M360 247q-13 -1 -26 -1.5t-27 -0.5h-136v-245h-71v680q51 2 107.5 4.5t116.5 2.5q59 0 107.5 -14t83 -41.5t53.5 -68t19 -93.5q0 -78 -42 -130.5t-114 -75.5l196 -264h-86zM330 308q41 0 75.5 11t59 32t38 51t13.5 68q0 78 -52 115t-138 37q-40 0 -76 -0.5t-79 -2.5v-311
h159z" />
    <glyph glyph-name="S" unicode="S" horiz-adv-x="682" 
d="M566 590q-58 17 -119.5 27.5t-110.5 10.5q-74 0 -118.5 -32.5t-44.5 -92.5q0 -26 10 -44t31 -31.5t54 -23.5t78 -19q57 -12 104.5 -26t82 -35.5t53.5 -54.5t19 -83q0 -49 -18.5 -86.5t-52.5 -63t-80.5 -38.5t-101.5 -13q-66 0 -141 15t-142 42l19 66q69 -28 138 -42.5
t129 -14.5q79 0 128.5 33t49.5 96q0 39 -20 63t-52.5 39t-73 24t-81.5 18q-57 12 -96.5 26.5t-64 35t-36 48.5t-11.5 66q0 45 17.5 80.5t49 60t75.5 38t98 13.5q65 0 131.5 -12t114.5 -29z" />
    <glyph glyph-name="T" unicode="T" horiz-adv-x="669" 
d="M370 0h-71v615h-269v65h609v-65h-269v-615z" />
    <glyph glyph-name="U" unicode="U" horiz-adv-x="763" 
d="M673 273q0 -66 -21 -119.5t-59.5 -91t-92 -57.5t-119.5 -20q-65 0 -119 20t-92 57.5t-59 91t-21 119.5v407h71v-407q0 -51 16 -92t44.5 -70t69 -44.5t90.5 -15.5t90.5 15.5t69.5 44.5t45 70t16 92v407h71v-407z" />
    <glyph glyph-name="V" unicode="V" horiz-adv-x="761" 
d="M346 0l-307 680h82l260 -586l260 586h81l-307 -680h-69z" />
    <glyph glyph-name="W" unicode="W" horiz-adv-x="1057" 
d="M720 0l-191 562l-192 -562h-67l-233 680h76l192 -571l193 571h61l193 -570l192 570h76l-233 -680h-67z" />
    <glyph glyph-name="X" unicode="X" horiz-adv-x="701" 
d="M671 0h-85l-236 283l-236 -283h-85l273 338l-264 342h89l223 -285l223 285h89l-263 -342z" />
    <glyph glyph-name="Y" unicode="Y" horiz-adv-x="694" 
d="M26 680h81l240 -364l240 364h81l-285 -437v-243h-72v243z" />
    <glyph glyph-name="Z" unicode="Z" horiz-adv-x="663" 
d="M167 65h427v-65h-529v46l429 569h-417v65h515v-46z" />
    <glyph glyph-name="bracketleft" unicode="[" horiz-adv-x="327" 
d="M280 -157v-66h-206v972h206v-66h-138v-840h138z" />
    <glyph glyph-name="backslash" unicode="\" horiz-adv-x="482" 
d="M457 -272h-71l-340 1040h71z" />
    <glyph glyph-name="bracketright" unicode="]" horiz-adv-x="327" 
d="M47 749h206v-972h-206v66h138v840h-138v66z" />
    <glyph glyph-name="asciicircum" unicode="^" horiz-adv-x="409" 
d="M93 446h-69l152 234h57l153 -234h-69l-113 172z" />
    <glyph glyph-name="underscore" unicode="_" horiz-adv-x="651" 
d="M609 -129v-60h-568v60h568z" />
    <glyph glyph-name="grave" unicode="`" 
d="M304 571l-109 156h92l85 -156h-68z" />
    <glyph glyph-name="a" unicode="a" horiz-adv-x="610" 
d="M289 477q32 0 60 -1.5t55.5 -4.5t56.5 -7.5t64 -11.5v-452h-68v41q-43 -29 -83.5 -42.5t-89.5 -13.5q-52 0 -94.5 18t-72.5 50.5t-46.5 78t-16.5 101.5q0 55 16.5 100t47 77t74 49.5t97.5 17.5zM297 418q-43 0 -75.5 -14t-54.5 -38.5t-33.5 -59t-11.5 -75.5q0 -42 12 -76
t34.5 -59t54 -38.5t70.5 -13.5q41 0 79 12.5t85 43.5v305q-44 7 -81 10t-79 3z" />
    <glyph glyph-name="b" unicode="b" horiz-adv-x="613" 
d="M157 456q42 12 82 16.5t81 4.5q57 0 101.5 -17.5t75 -49.5t46.5 -77t16 -99q0 -57 -17 -103t-47 -78t-72.5 -49t-93.5 -17h-50.5t-50.5 2t-60.5 6.5t-79.5 13.5v701h69v-254zM313 418q-35 0 -73 -4t-83 -17v-339q30 -5 52.5 -8t41 -4.5t34 -1.5h32.5q84 0 129.5 52
t45.5 138q0 82 -45 133t-134 51z" />
    <glyph glyph-name="c" unicode="c" horiz-adv-x="530" 
d="M461 399q-38 10 -76 15.5t-68 5.5q-44 0 -79.5 -13.5t-61 -38t-39.5 -59.5t-14 -77t14 -76.5t38.5 -59t58.5 -38t75 -13.5q31 0 74 7.5t86 18.5l12 -57q-42 -13 -88 -21t-86 -8q-56 0 -102.5 17.5t-80 50t-52 78.5t-18.5 102t19 101.5t53 77.5t81.5 49.5t105.5 17.5
q36 0 79.5 -6.5t78.5 -18.5z" />
    <glyph glyph-name="d" unicode="d" horiz-adv-x="613" 
d="M525 9q-46 -9 -79.5 -13.5t-60.5 -6.5t-50.5 -2h-50.5q-51 0 -93.5 17t-72.5 49t-47 78t-17 103q0 54 16 99t46.5 77t75 49.5t101.5 17.5q41 0 81 -4.5t82 -16.5v254h69v-701zM300 418q-89 0 -134 -51t-45 -133q0 -86 45.5 -138t129.5 -52h32t34.5 1.5t41 4.5t52.5 8v339
q-45 13 -83 17t-73 4z" />
    <glyph glyph-name="e" unicode="e" horiz-adv-x="570" 
d="M294 477q49 0 89.5 -15t70 -43.5t46 -69t16.5 -91.5q0 -17 -1 -26.5t-3 -26.5h-385q8 -72 55 -115t124 -43q45 0 83.5 7t86.5 19l11 -56q-45 -14 -87.5 -23t-95.5 -9q-59 0 -105.5 18.5t-78.5 51t-49 78t-17 99.5q0 55 18 100.5t49.5 77.5t75.5 49.5t97 17.5zM296 421
q-75 0 -120 -44t-51 -118h328q-1 76 -44 119t-113 43z" />
    <glyph glyph-name="f" unicode="f" horiz-adv-x="386" 
d="M200 400v-400h-68v400h-126v62h126v117q0 40 12 72.5t33.5 55t52 34.5t67.5 12t79 -11l-11 -58q-17 3 -33 5t-33 2q-45 0 -72 -29.5t-27 -83.5v-116h178v-62h-178z" />
    <glyph glyph-name="g" unicode="g" horiz-adv-x="605" 
d="M289 477q40 0 73 -2t60.5 -5.5t52.5 -8t50 -9.5v-442q0 -58 -17 -105.5t-49 -81.5t-78.5 -52.5t-105.5 -18.5q-48 0 -91.5 10t-81.5 25l13 56q39 -12 78.5 -20.5t80.5 -8.5q84 0 133 51t50 144q-29 -5 -51 -8t-42 -4.5t-39 -1.5h-41q-52 0 -94.5 17.5t-72.5 49
t-46.5 75.5t-16.5 96q0 55 16 100t46.5 77t74 49.5t98.5 17.5zM297 418q-43 0 -76 -14t-55 -38.5t-33 -59t-11 -75.5q0 -38 12 -70.5t34.5 -56t54 -37t70.5 -13.5h35.5t35 1.5t41 4t52.5 8.5v337q-44 7 -81 10t-79 3z" />
    <glyph glyph-name="h" unicode="h" horiz-adv-x="610" 
d="M342 477q88 0 138 -50t50 -139v-288h-68v272q0 67 -35 104.5t-97 37.5q-39 0 -82 -4t-91 -17v-393h-68v710h68v-255q49 13 95.5 17.5t89.5 4.5z" />
    <glyph glyph-name="i" unicode="i" horiz-adv-x="250" 
d="M125 580q-21 0 -35.5 14t-14.5 35q0 22 14.5 36t35.5 14t35.5 -14t14.5 -36q0 -21 -14.5 -35t-35.5 -14zM160 0h-69v462h69v-462z" />
    <glyph glyph-name="j" unicode="j" horiz-adv-x="237" 
d="M114 679q21 0 35.5 -14t14.5 -36q0 -21 -14.5 -35t-35.5 -14t-36 14t-15 35q0 22 15 36t36 14zM148 -37q0 -50 -8 -87.5t-28 -62t-54 -37t-85 -12.5l-5 60q65 -2 88.5 30t23.5 102v506h68v-499z" />
    <glyph glyph-name="k" unicode="k" horiz-adv-x="567" 
d="M221 265l196 197h85l-204 -206l236 -256h-84l-194 202h-99v-202h-69v710h69v-445h64z" />
    <glyph glyph-name="l" unicode="l" horiz-adv-x="258" 
d="M163 0h-68v710h68v-710z" />
    <glyph glyph-name="m" unicode="m" horiz-adv-x="910" 
d="M651 477q86 0 132.5 -46t46.5 -143v-288h-68v272q0 142 -123 142q-39 0 -78 -5.5t-83 -22.5q15 -35 15 -92v-294h-68v277q0 76 -30 106.5t-98 30.5q-34 -2 -67 -4.5t-73 -8.5v-401h-69v452q44 9 103 16t118 9q90 0 133 -39q49 20 102.5 29.5t106.5 9.5z" />
    <glyph glyph-name="n" unicode="n" horiz-adv-x="609" 
d="M341 477q88 0 138.5 -50t50.5 -139v-288h-69v272q0 67 -35 104.5t-97 37.5q-39 0 -82 -3t-90 -11v-400h-69v452q26 6 57 10.5t64.5 7.5t67 5t64.5 2z" />
    <glyph glyph-name="o" unicode="o" horiz-adv-x="614" 
d="M307 480q56 0 102.5 -18t80 -50t52 -78t18.5 -101q0 -56 -18.5 -102t-52 -78.5t-80 -50.5t-102.5 -18t-102 18t-80 50.5t-52.5 78.5t-18.5 102q0 55 18.5 101t52.5 78t80 50t102 18zM307 46q40 0 74 13.5t58 38t37.5 59t13.5 76.5t-13.5 76t-37.5 58t-58 37t-74 13
t-73.5 -13t-58 -37t-38 -58t-13.5 -76t13.5 -76.5t38 -59t58 -38t73.5 -13.5z" />
    <glyph glyph-name="p" unicode="p" horiz-adv-x="616" 
d="M325 477q55 0 98 -17.5t73.5 -49.5t46.5 -77t17 -100q0 -52 -16.5 -96t-47 -75.5t-73 -49t-94.5 -17.5h-41t-38.5 1.5t-42 4.5t-50.5 8v-235h-69v678q55 11 113 18t124 7zM321 54q39 0 70.5 13.5t54 37t34.5 56t12 70.5q0 41 -11 75.5t-33 59t-55 38.5t-76 14
q-42 0 -79 -3t-81 -10v-337q30 -6 52.5 -8.5t41 -4t35 -1.5h35.5z" />
    <glyph glyph-name="q" unicode="q" horiz-adv-x="616" 
d="M291 477q66 0 124 -7t113 -18v-678h-69v235q-29 -5 -51 -8t-41.5 -4.5t-38.5 -1.5h-41q-52 0 -94.5 17.5t-73 49t-47 75.5t-16.5 96q1 55 17 100t46.5 77t73.5 49.5t98 17.5zM295 54h35.5t35 1.5t41 4t52.5 8.5v337q-44 7 -81 10t-79 3q-43 0 -76 -14t-55 -38.5t-33 -59
t-11 -75.5q0 -38 12 -70.5t34.5 -56t54 -37t70.5 -13.5z" />
    <glyph glyph-name="r" unicode="r" horiz-adv-x="387" 
d="M346 406q-51 0 -94.5 -2t-94.5 -8v-396h-69v449q63 11 127.5 17.5t130.5 6.5v-67z" />
    <glyph glyph-name="s" unicode="s" horiz-adv-x="518" 
d="M77 88q51 -22 101.5 -34t92.5 -12q54 0 88 20.5t34 59.5q0 22 -12 36t-33.5 23.5t-50.5 16t-63 13.5q-76 16 -114.5 43.5t-38.5 84.5q0 66 48.5 101.5t134.5 35.5q46 0 94.5 -9.5t83.5 -22.5l-17 -54q-43 14 -87 22t-79 8q-54 0 -82.5 -20t-28.5 -58q0 -18 8 -30
t23.5 -20t38.5 -14.5t54 -13.5q41 -9 75 -18.5t58.5 -24.5t38 -37t13.5 -56q0 -71 -53 -107t-137 -36q-48 0 -102 12.5t-104 33.5z" />
    <glyph glyph-name="t" unicode="t" horiz-adv-x="434" 
d="M391 -2q-28 -7 -50.5 -10t-51.5 -3q-81 0 -119 42.5t-38 133.5v239h-106v62h106v194h68v-194h165v-62h-165v-233q0 -63 23 -91.5t77 -28.5q19 0 39.5 2t43.5 6z" />
    <glyph glyph-name="u" unicode="u" horiz-adv-x="611" 
d="M524 10q-26 -6 -57 -10.5t-64.5 -8t-67 -5t-64.5 -1.5q-88 0 -138 46t-50 143v288h68v-275q0 -70 34 -106.5t98 -36.5q39 0 82 3t91 11v404h68v-452z" />
    <glyph glyph-name="v" unicode="v" horiz-adv-x="583" 
d="M255 0l-216 462h76l177 -382l176 382h75l-215 -462h-73z" />
    <glyph glyph-name="w" unicode="w" horiz-adv-x="823" 
d="M542 0l-131 362l-130 -362h-67l-169 462h70l135 -367l134 367h56l132 -368l136 368h70l-169 -462h-67z" />
    <glyph glyph-name="x" unicode="x" horiz-adv-x="544" 
d="M508 0h-82l-154 184l-155 -184h-81l191 231l-187 231h83l149 -182l150 182h82l-187 -231z" />
    <glyph glyph-name="y" unicode="y" horiz-adv-x="616" 
d="M229 -225h-77l127 249l-238 438h78l197 -365l187 365h77z" />
    <glyph glyph-name="z" unicode="z" horiz-adv-x="496" 
d="M149 60h299v-60h-396v36l293 366h-283v60h377v-41z" />
    <glyph glyph-name="braceleft" unicode="{" horiz-adv-x="362" 
d="M214 396q0 -58 -15.5 -90t-57.5 -46q42 -14 57.5 -46.5t15.5 -90.5v-183q0 -63 23 -87.5t78 -24.5v-62q-89 0 -129 42.5t-40 133.5v180q0 62 -23 84.5t-78 22.5v61q55 0 78 22.5t23 85.5v179q0 91 40 134t129 43v-62q-55 0 -78 -25t-23 -87v-184z" />
    <glyph glyph-name="bar" unicode="|" horiz-adv-x="311" 
d="M188 -154h-65v918h65v-918z" />
    <glyph glyph-name="braceright" unicode="}" horiz-adv-x="362" 
d="M148 580q0 62 -23 87t-78 25v62q89 0 129 -43t40 -134v-179q0 -63 23 -85.5t78 -22.5v-61q-55 0 -78 -22.5t-23 -84.5v-180q0 -91 -40 -133.5t-129 -42.5v62q55 0 78 24.5t23 87.5v183q0 58 15.5 90.5t57.5 46.5q-42 14 -57.5 46t-15.5 90v184z" />
    <glyph glyph-name="asciitilde" unicode="~" horiz-adv-x="459" 
d="M409 395q0 -42 -16.5 -67t-41 -35.5t-52 -8t-48.5 15.5l-63 43q-14 9 -28 10.5t-25 -4t-18 -17t-7 -28.5h-61q0 42 17 67t41 35.5t51.5 8t48.5 -15.5l64 -43q14 -9 28 -10.5t25 3.5t18 17t7 29h60z" />
    <glyph glyph-name="exclamdown" unicode="&#xa1;" horiz-adv-x="266" 
d="M131 479q21 0 35.5 -14t14.5 -35t-14.5 -35t-35.5 -14t-35.5 14t-14.5 35t14.5 35t35.5 14zM164 290l4 -504h-75l3 504h68z" />
    <glyph glyph-name="cent" unicode="&#xa2;" horiz-adv-x="517" 
d="M476 24q-34 -11 -71.5 -18t-70.5 -9v-122h-63v123q-50 4 -90.5 23.5t-70 51t-45.5 74.5t-16 94q0 52 16 94.5t45 74t70 51t91 24.5v123h63v-122q32 -2 68 -8.5t65 -16.5l-11 -56q-38 10 -78 15.5t-70 5.5q-42 0 -76.5 -13t-59.5 -37t-39 -58t-14 -76t13.5 -76t38.5 -58.5
t59 -37.5t75 -13q31 0 73.5 7t86.5 18z" />
    <glyph glyph-name="sterling" unicode="&#xa3;" horiz-adv-x="617" 
d="M44 0v60h75v223h-75v60h75v146q0 46 17 84t48.5 65t75.5 42t98 15q43 0 87 -5.5t84 -16.5l-12 -57q-40 8 -81.5 13t-79.5 5q-77 0 -122.5 -39.5t-45.5 -105.5v-146h239v-60h-239v-223h386v-60h-530z" />
    <glyph glyph-name="yen" unicode="&#xa5;" horiz-adv-x="682" 
d="M592 231h-215v-88h215v-53h-215v-90h-71v90h-216v53h216v88h-216v53h190l-260 396h81l240 -364l241 364h80l-259 -396h189v-53z" />
    <glyph glyph-name="brokenbar" unicode="&#xa6;" horiz-adv-x="311" 
d="M123 355v408h65v-408h-65zM123 -155v408h65v-408h-65z" />
    <glyph glyph-name="section" unicode="&#xa7;" horiz-adv-x="534" 
d="M275 695q45 0 92.5 -9.5t85.5 -25.5l-20 -54q-84 33 -158 33q-59 0 -91.5 -21t-32.5 -62q0 -20 8.5 -33.5t26.5 -25t45 -23.5t64 -28q48 -20 84.5 -38t61 -39.5t37.5 -48t13 -62.5q0 -29 -7.5 -51.5t-20.5 -40t-31 -32t-38 -26.5q27 -20 40.5 -43t13.5 -55
q0 -65 -49 -103t-140 -38q-45 0 -92.5 9.5t-85.5 25.5l20 54q84 -33 158 -33q59 0 91.5 21t32.5 62q0 20 -8.5 33.5t-26.5 25t-45 23.5t-64 28q-48 19 -84.5 37.5t-61 40t-37.5 48t-13 62.5q0 29 7.5 51.5t20.5 40t31 32t38 26.5q-27 20 -40 43t-13 55q0 65 48.5 103
t139.5 38zM185 430q-37 -24 -59 -49.5t-22 -65.5q0 -26 11 -45.5t32 -35.5t51 -30.5t68 -31.5q24 -11 45 -20t38 -18q37 24 59 49.5t22 65.5q0 26 -11 45.5t-32 35.5t-51 30.5t-68 31.5q-24 11 -45 20t-38 18z" />
    <glyph glyph-name="dieresis" unicode="&#xa8;" 
d="M195 675q20 0 34 -13.5t14 -33.5t-14 -33t-34 -13t-34 13t-14 33t14 33.5t34 13.5zM405 675q20 0 34 -13.5t14 -33.5t-14 -33t-34 -13t-34 13t-14 33t14 33.5t34 13.5z" />
    <glyph glyph-name="copyright" unicode="&#xa9;" horiz-adv-x="840" 
d="M420 695q78 0 144.5 -27t115.5 -74.5t76.5 -112.5t27.5 -141t-27.5 -141t-76.5 -112.5t-115.5 -74.5t-144.5 -27t-144.5 27t-115.5 74.5t-76.5 112.5t-27.5 141t27.5 141t76.5 112.5t115.5 74.5t144.5 27zM420 659q-69 0 -129 -24.5t-103.5 -67t-68.5 -101t-25 -126.5
t25 -126.5t68.5 -101t103.5 -67t129 -24.5t129 24.5t103.5 67t68.5 101t25 126.5t-25 126.5t-68.5 101t-103.5 67t-129 24.5zM551 467q-31 8 -63 14t-61 6q-72 0 -109.5 -39t-37.5 -109t37.5 -108.5t108.5 -38.5q30 0 63.5 6t61.5 13l9 -45q-24 -8 -60.5 -16t-73.5 -8
q-100 0 -151.5 53.5t-51.5 143.5t52 143.5t152 53.5q33 0 68.5 -7t64.5 -16z" />
    <glyph glyph-name="ordfeminine" unicode="&#xaa;" horiz-adv-x="462" 
d="M245 695q75 0 110.5 -29.5t35.5 -94.5v-206q-37 -6 -64 -9.5t-48.5 -5.5t-39 -2.5t-34.5 -0.5q-144 0 -144 107q0 93 155 101l123 5v10q-2 40 -23.5 58t-69.5 18q-32 0 -67.5 -3.5t-73.5 -8.5l-6 47q44 8 77.5 11t68.5 3zM210 512q-96 -5 -96 -59q0 -61 101 -61
q20 0 51 2.5t73 8.5v115z" />
    <glyph glyph-name="guillemotleft" unicode="&#xab;" horiz-adv-x="545" 
d="M236 49l-185 197l185 196l40 -32l-145 -162l144 -162zM433 49l-186 197l186 196l39 -32l-145 -162l144 -162z" />
    <glyph glyph-name="registered" unicode="&#xae;" horiz-adv-x="840" 
d="M420 695q78 0 144.5 -27t115.5 -74.5t76.5 -112.5t27.5 -141t-27.5 -141t-76.5 -112.5t-115.5 -74.5t-144.5 -27t-144.5 27t-115.5 74.5t-76.5 112.5t-27.5 141t27.5 141t76.5 112.5t115.5 74.5t144.5 27zM420 659q-69 0 -129 -24.5t-103.5 -67t-68.5 -101t-25 -126.5
t25 -126.5t68.5 -101t103.5 -67t129 -24.5t129 24.5t103.5 67t68.5 101t25 126.5t-25 126.5t-68.5 101t-103.5 67t-129 24.5zM422 538q70 0 112.5 -32t42.5 -94q0 -44 -23.5 -73t-64.5 -43l111 -147h-63l-99 134q-5 0 -9.5 -0.5t-9.5 -0.5h-81v-133h-51v386q26 1 63 2t72 1z
M424 493q-23 0 -43 -1t-43 -2v-163h89q44 0 72 22.5t28 63.5t-28.5 60.5t-74.5 19.5z" />
    <glyph glyph-name="macron" unicode="&#xaf;" 
d="M435 617h-271v56h271v-56z" />
    <glyph glyph-name="degree" unicode="&#xb0;" horiz-adv-x="487" 
d="M243 695q36 0 66.5 -12.5t53 -34t35 -51.5t12.5 -65t-12.5 -65t-35 -51.5t-53 -34t-66.5 -12.5t-66.5 12.5t-53 34t-35 51.5t-12.5 65t12.5 65t35 51.5t53 34t66.5 12.5zM243 422q23 0 43.5 8.5t35.5 23.5t24 35t9 43t-9 43t-24 35t-35.5 23.5t-43.5 8.5t-43 -8.5
t-35 -23.5t-24 -35t-9 -43t9 -43t24 -35t35 -23.5t43 -8.5z" />
    <glyph glyph-name="plusminus" unicode="&#xb1;" horiz-adv-x="693" 
d="M381 324v-159h-67v159h-197v64h197v159h67v-159h195v-64h-195zM576 45h-459v64h459v-64z" />
    <glyph glyph-name="uni00B2" unicode="&#xb2;" horiz-adv-x="352" 
d="M37 306v36l139 122q29 23 48.5 46.5t19.5 54.5q0 35 -23.5 52.5t-63.5 17.5q-20 0 -48 -5t-61 -19l-13 47q28 14 63 21t67 7q34 0 60 -9t42.5 -24.5t25 -36.5t8.5 -44q0 -22 -7.5 -41.5t-21 -38t-31.5 -36t-38 -35.5l-78 -68h186v-47h-274z" />
    <glyph glyph-name="uni00B3" unicode="&#xb3;" horiz-adv-x="357" 
d="M179 520l9 -1q60 -2 94 -29t34 -72q0 -53 -39.5 -85.5t-111.5 -32.5q-34 0 -69.5 7t-67.5 24l19 43q61 -26 120 -26q42 0 70 18.5t28 47.5q0 60 -91 60h-71v26l123 132h-178v48h253v-33z" />
    <glyph glyph-name="acute" unicode="&#xb4;" 
d="M317 571h-67l84 156h92z" />
    <glyph glyph-name="paragraph" unicode="&#xb6;" horiz-adv-x="746" 
d="M284 688q29 0 80 -0.5t106 -1.5t105 -2.5t79 -3.5v-784h-71v720q-30 2 -66 3t-71 1v-724h-71v335h-91q-60 0 -106 16.5t-77.5 46.5t-47.5 72t-16 93q0 109 63.5 169t183.5 60zM277 622q-85 0 -127.5 -41.5t-42.5 -122.5q0 -74 42.5 -118.5t127.5 -44.5h98v326z" />
    <glyph glyph-name="periodcentered" unicode="&#xb7;" horiz-adv-x="274" 
d="M137 204q-23 0 -38.5 15t-15.5 37q0 23 15.5 38t38.5 15t38.5 -15t15.5 -38q0 -22 -15.5 -37t-38.5 -15z" />
    <glyph glyph-name="cedilla" unicode="&#xb8;" 
d="M216 -204l51 154h67l-59 -154h-59z" />
    <glyph glyph-name="uni00B9" unicode="&#xb9;" horiz-adv-x="288" 
d="M260 308h-236v48h95v258l-89 -26l-12 48l138 44h16v-324h88v-48z" />
    <glyph glyph-name="ordmasculine" unicode="&#xba;" horiz-adv-x="453" 
d="M226 695q39 0 72 -12.5t57.5 -35.5t38 -54.5t13.5 -70.5t-13.5 -72t-38 -56t-57.5 -36t-72 -13t-72 13t-57 36t-37.5 56t-13.5 72t13.5 70.5t37.5 54.5t57 35.5t72 12.5zM226 396q27 0 49.5 9t39.5 25.5t26.5 39.5t9.5 52q0 56 -35.5 89.5t-89.5 33.5q-53 0 -88.5 -33.5
t-35.5 -89.5q0 -29 9.5 -52t26 -39.5t39.5 -25.5t49 -9z" />
    <glyph glyph-name="guillemotright" unicode="&#xbb;" horiz-adv-x="545" 
d="M111 442l185 -196l-185 -197l-39 37l144 162l-145 162zM306 442l186 -196l-186 -197l-39 37l145 162l-145 162z" />
    <glyph glyph-name="onequarter" unicode="&#xbc;" horiz-adv-x="866" 
d="M68 356h95v258l-89 -26l-12 48l138 44h16v-324h88v-48h-236v48zM241 0h-45l453 680h45zM809 83h-58v-83h-54v83h-231v39l228 250h57v-242h58v-47zM536 130h161v179z" />
    <glyph glyph-name="onehalf" unicode="&#xbd;" horiz-adv-x="883" 
d="M68 356h95v258l-89 -26l-12 48l138 44h16v-324h88v-48h-236v48zM225 0h-44l453 680h44zM815 0h-273v36l139 122q29 23 48 46.5t19 54.5q0 35 -23 52.5t-63 17.5q-21 0 -49 -5t-60 -19l-14 47q28 14 63 21t68 7q34 0 59.5 -9t42 -24.5t25 -36.5t8.5 -44q0 -22 -7.5 -41.5
t-20.5 -38t-31 -36t-38 -35.5l-78 -68h185v-47z" />
    <glyph glyph-name="threequarters" unicode="&#xbe;" horiz-adv-x="922" 
d="M225 520l9 -1q60 -2 94 -29t34 -72q0 -53 -39.5 -85.5t-111.5 -32.5q-34 0 -69.5 7t-67.5 24l19 43q61 -26 120 -26q42 0 70 18.5t28 47.5q0 60 -91 60h-71v26l123 132h-178v48h253v-33zM230 0l453 680h44l-453 -680h-44zM841 130v-47h-58v-83h-54v83h-231v39l228 250h57
v-242h58zM729 130v179l-161 -179h161z" />
    <glyph glyph-name="questiondown" unicode="&#xbf;" horiz-adv-x="501" 
d="M323 418q-21 0 -35.5 14t-14.5 35t14.5 35t35.5 14t35.5 -14t14.5 -35t-14.5 -35t-35.5 -14zM290 -192q-54 0 -97.5 14.5t-75 41.5t-48.5 65t-17 85t16 86.5t45.5 67.5t70 43.5t90.5 15.5h24l-4 100h64l12 -158h-84q-76 0 -121.5 -43t-45.5 -114q0 -65 46.5 -104
t123.5 -39q38 0 79 5t82 14l11 -58q-40 -10 -84 -16t-87 -6z" />
    <glyph glyph-name="Agrave" unicode="&#xc0;" horiz-adv-x="760" 
d="M347 744l-109 152h92l84 -152h-67zM117 0h-80l309 685h68l309 -685h-79l-74 166h-380zM218 230h323l-161 364z" />
    <glyph glyph-name="Aacute" unicode="&#xc1;" horiz-adv-x="760" 
d="M422 744h-72l89 152h92zM117 0h-80l309 685h68l309 -685h-79l-74 166h-380zM218 230h323l-161 364z" />
    <glyph glyph-name="Acircumflex" unicode="&#xc2;" horiz-adv-x="760" 
d="M291 744h-69l126 152h64l126 -152h-69l-89 104zM117 0h-80l309 685h68l309 -685h-79l-74 166h-380zM218 230h323l-161 364z" />
    <glyph glyph-name="Atilde" unicode="&#xc3;" horiz-adv-x="760" 
d="M537 847q0 -36 -14.5 -58t-36 -31.5t-45.5 -7.5t-42 13l-55 37q-24 15 -45.5 5.5t-21.5 -38.5h-54q0 36 14.5 58t36 31t45.5 7t42 -13l55 -36q24 -16 45 -6t21 39h55zM117 0h-80l309 685h68l309 -685h-79l-74 166h-380zM218 230h323l-161 364z" />
    <glyph glyph-name="Adieresis" unicode="&#xc4;" horiz-adv-x="760" 
d="M275 772q-20 0 -34 13.5t-14 33.5t14 33t34 13t34 -13t14 -33t-14 -33.5t-34 -13.5zM485 772q-20 0 -34 13.5t-14 33.5t14 33t34 13t34 -13t14 -33t-14 -33.5t-34 -13.5zM117 0h-80l309 685h68l309 -685h-79l-74 166h-380zM218 230h323l-161 364z" />
    <glyph glyph-name="Aring" unicode="&#xc5;" horiz-adv-x="760" 
d="M381 917q42 0 69.5 -25.5t27.5 -68.5q0 -42 -27.5 -67.5t-69.5 -25.5t-69.5 25.5t-27.5 67.5q0 43 27.5 68.5t69.5 25.5zM381 769q23 0 39 15t16 39q0 25 -16 40.5t-39 15.5t-39 -15.5t-16 -40.5q0 -24 16 -39t39 -15zM117 0h-80l309 685h68l309 -685h-79l-74 166h-380z
M218 230h323l-161 364z" />
    <glyph glyph-name="AE" unicode="&#xc6;" horiz-adv-x="1105" 
d="M996 373v-66h-361v-242h402v-65h-472v164h-319l-122 -164h-87l508 680h492v-65h-402v-242h361zM293 230h272v364z" />
    <glyph glyph-name="Ccedilla" unicode="&#xc7;" horiz-adv-x="751" 
d="M659 595q-60 16 -111.5 24t-98.5 8q-74 0 -131 -21t-96.5 -58.5t-60 -90.5t-20.5 -116q0 -65 21 -118.5t59.5 -91.5t93.5 -59t123 -21q46 0 105.5 9t129.5 28l13 -62q-66 -20 -130 -30.5t-121 -10.5q-84 0 -152 25.5t-116.5 72t-74.5 112t-26 145.5t26 145.5t75 112
t118.5 72t155.5 25.5q60 0 118 -8.5t113 -25.5zM324 -204l51 154h67l-59 -154h-59z" />
    <glyph glyph-name="Egrave" unicode="&#xc8;" horiz-adv-x="641" 
d="M300 744l-109 152h92l84 -152h-67zM531 373v-66h-360v-242h402v-65h-473v680h473v-65h-402v-242h360z" />
    <glyph glyph-name="Eacute" unicode="&#xc9;" horiz-adv-x="641" 
d="M375 744h-72l89 152h92zM531 373v-66h-360v-242h402v-65h-473v680h473v-65h-402v-242h360z" />
    <glyph glyph-name="Ecircumflex" unicode="&#xca;" horiz-adv-x="641" 
d="M244 744h-69l126 152h64l126 -152h-69l-89 104zM531 373v-66h-360v-242h402v-65h-473v680h473v-65h-402v-242h360z" />
    <glyph glyph-name="Edieresis" unicode="&#xcb;" horiz-adv-x="641" 
d="M228 772q-20 0 -34 13.5t-14 33.5t14 33t34 13t34 -13t14 -33t-14 -33.5t-34 -13.5zM438 772q-20 0 -34 13.5t-14 33.5t14 33t34 13t34 -13t14 -33t-14 -33.5t-34 -13.5zM531 373v-66h-360v-242h402v-65h-473v680h473v-65h-402v-242h360z" />
    <glyph glyph-name="Igrave" unicode="&#xcc;" horiz-adv-x="271" 
d="M102 744l-109 152h92l84 -152h-67zM171 0h-71v680h71v-680z" />
    <glyph glyph-name="Iacute" unicode="&#xcd;" horiz-adv-x="271" 
d="M177 744h-72l89 152h92zM171 0h-71v680h71v-680z" />
    <glyph glyph-name="Icircumflex" unicode="&#xce;" horiz-adv-x="271" 
d="M46 744h-69l126 152h64l126 -152h-69l-89 104zM171 0h-71v680h71v-680z" />
    <glyph glyph-name="Idieresis" unicode="&#xcf;" horiz-adv-x="271" 
d="M30 772q-20 0 -34 13.5t-14 33.5t14 33t34 13t34 -13t14 -33t-14 -33.5t-34 -13.5zM240 772q-20 0 -34 13.5t-14 33.5t14 33t34 13t34 -13t14 -33t-14 -33.5t-34 -13.5zM171 0h-71v680h71v-680z" />
    <glyph glyph-name="Eth" unicode="&#xd0;" horiz-adv-x="751" 
d="M329 688q79 0 144.5 -24t113 -68.5t73.5 -108t26 -142.5q0 -81 -26 -146.5t-72.5 -111t-110 -70t-139.5 -24.5q-30 0 -63 0.5t-64.5 1.5t-60 2.5t-50.5 2.5v304h-66v65h66v311q22 1 50 2.5t58 2.5t61 2t60 1zM338 59q60 0 110 19.5t86 56.5t56.5 90t20.5 120
q0 64 -20.5 115.5t-57.5 87.5t-89 55t-115 19q-38 0 -79 -1t-79 -3v-249h182v-65h-182v-242q41 -2 84 -2.5t83 -0.5z" />
    <glyph glyph-name="Ntilde" unicode="&#xd1;" horiz-adv-x="781" 
d="M543 847q0 -36 -14.5 -58t-36 -31.5t-45.5 -7.5t-42 13l-55 37q-24 15 -45.5 5.5t-21.5 -38.5h-54q0 36 14.5 58t36 31t45.5 7t42 -13l55 -36q24 -16 45 -6t21 39h55zM681 0h-72l-438 564v-564h-71v680h69l441 -566v566h71v-680z" />
    <glyph glyph-name="Ograve" unicode="&#xd2;" horiz-adv-x="847" 
d="M390 744l-109 152h92l84 -152h-67zM424 695q79 0 145 -25.5t113 -72t73 -112t26 -145.5t-26 -145.5t-73 -112t-113 -72t-145 -25.5q-80 0 -145.5 25.5t-113 72t-73.5 112t-26 145.5t26 145.5t73.5 112t113 72t145.5 25.5zM423 51q63 0 115 21t89.5 59t58.5 91t21 118
t-21 118t-58.5 91t-89.5 58.5t-115 20.5t-115 -20.5t-89.5 -58.5t-58 -91t-20.5 -118t20.5 -118t58 -91t89.5 -59t115 -21z" />
    <glyph glyph-name="Oacute" unicode="&#xd3;" horiz-adv-x="847" 
d="M465 744h-72l89 152h92zM424 695q79 0 145 -25.5t113 -72t73 -112t26 -145.5t-26 -145.5t-73 -112t-113 -72t-145 -25.5q-80 0 -145.5 25.5t-113 72t-73.5 112t-26 145.5t26 145.5t73.5 112t113 72t145.5 25.5zM423 51q63 0 115 21t89.5 59t58.5 91t21 118t-21 118
t-58.5 91t-89.5 58.5t-115 20.5t-115 -20.5t-89.5 -58.5t-58 -91t-20.5 -118t20.5 -118t58 -91t89.5 -59t115 -21z" />
    <glyph glyph-name="Ocircumflex" unicode="&#xd4;" horiz-adv-x="847" 
d="M334 744h-69l126 152h64l126 -152h-69l-89 104zM424 695q79 0 145 -25.5t113 -72t73 -112t26 -145.5t-26 -145.5t-73 -112t-113 -72t-145 -25.5q-80 0 -145.5 25.5t-113 72t-73.5 112t-26 145.5t26 145.5t73.5 112t113 72t145.5 25.5zM423 51q63 0 115 21t89.5 59
t58.5 91t21 118t-21 118t-58.5 91t-89.5 58.5t-115 20.5t-115 -20.5t-89.5 -58.5t-58 -91t-20.5 -118t20.5 -118t58 -91t89.5 -59t115 -21z" />
    <glyph glyph-name="Otilde" unicode="&#xd5;" horiz-adv-x="847" 
d="M580 847q0 -36 -14.5 -58t-36 -31.5t-45.5 -7.5t-42 13l-55 37q-24 15 -45.5 5.5t-21.5 -38.5h-54q0 36 14.5 58t36 31t45.5 7t42 -13l55 -36q24 -16 45 -6t21 39h55zM424 695q79 0 145 -25.5t113 -72t73 -112t26 -145.5t-26 -145.5t-73 -112t-113 -72t-145 -25.5
q-80 0 -145.5 25.5t-113 72t-73.5 112t-26 145.5t26 145.5t73.5 112t113 72t145.5 25.5zM423 51q63 0 115 21t89.5 59t58.5 91t21 118t-21 118t-58.5 91t-89.5 58.5t-115 20.5t-115 -20.5t-89.5 -58.5t-58 -91t-20.5 -118t20.5 -118t58 -91t89.5 -59t115 -21z" />
    <glyph glyph-name="Odieresis" unicode="&#xd6;" horiz-adv-x="847" 
d="M318 772q-20 0 -34 13.5t-14 33.5t14 33t34 13t34 -13t14 -33t-14 -33.5t-34 -13.5zM528 772q-20 0 -34 13.5t-14 33.5t14 33t34 13t34 -13t14 -33t-14 -33.5t-34 -13.5zM424 695q79 0 145 -25.5t113 -72t73 -112t26 -145.5t-26 -145.5t-73 -112t-113 -72t-145 -25.5
q-80 0 -145.5 25.5t-113 72t-73.5 112t-26 145.5t26 145.5t73.5 112t113 72t145.5 25.5zM423 51q63 0 115 21t89.5 59t58.5 91t21 118t-21 118t-58.5 91t-89.5 58.5t-115 20.5t-115 -20.5t-89.5 -58.5t-58 -91t-20.5 -118t20.5 -118t58 -91t89.5 -59t115 -21z" />
    <glyph glyph-name="multiply" unicode="&#xd7;" horiz-adv-x="664" 
d="M489 115l-157 158l-158 -158l-46 45l158 158l-158 158l46 45l158 -157l157 157l46 -45l-158 -158l158 -158z" />
    <glyph glyph-name="Oslash" unicode="&#xd8;" horiz-adv-x="847" 
d="M682 598q48 -47 73.5 -112t25.5 -146q0 -80 -26 -145.5t-73 -112t-113 -72t-145 -25.5q-63 0 -117 16t-98 46l-52 -60l-47 40l51 60q-45 47 -70 111t-25 142q0 80 26 145.5t73.5 112t113 72t145.5 25.5q61 0 114 -15t96 -43l49 57l47 -40zM140 340q0 -60 18 -110t51 -88
l378 440q-69 46 -164 46q-63 0 -115 -20.5t-89.5 -58.5t-58 -91t-20.5 -118zM423 51q63 0 115 21t89.5 59t58.5 91t21 118q0 63 -19 113.5t-54 88.5l-379 -441q34 -24 76.5 -37t91.5 -13z" />
    <glyph glyph-name="Ugrave" unicode="&#xd9;" horiz-adv-x="763" 
d="M348 744l-109 152h92l84 -152h-67zM673 273q0 -66 -21 -119.5t-59.5 -91t-92 -57.5t-119.5 -20q-65 0 -119 20t-92 57.5t-59 91t-21 119.5v407h71v-407q0 -51 16 -92t44.5 -70t69 -44.5t90.5 -15.5t90.5 15.5t69.5 44.5t45 70t16 92v407h71v-407z" />
    <glyph glyph-name="Uacute" unicode="&#xda;" horiz-adv-x="763" 
d="M423 744h-72l89 152h92zM673 273q0 -66 -21 -119.5t-59.5 -91t-92 -57.5t-119.5 -20q-65 0 -119 20t-92 57.5t-59 91t-21 119.5v407h71v-407q0 -51 16 -92t44.5 -70t69 -44.5t90.5 -15.5t90.5 15.5t69.5 44.5t45 70t16 92v407h71v-407z" />
    <glyph glyph-name="Ucircumflex" unicode="&#xdb;" horiz-adv-x="763" 
d="M293 744h-69l126 152h64l126 -152h-69l-89 104zM673 273q0 -66 -21 -119.5t-59.5 -91t-92 -57.5t-119.5 -20q-65 0 -119 20t-92 57.5t-59 91t-21 119.5v407h71v-407q0 -51 16 -92t44.5 -70t69 -44.5t90.5 -15.5t90.5 15.5t69.5 44.5t45 70t16 92v407h71v-407z" />
    <glyph glyph-name="Udieresis" unicode="&#xdc;" horiz-adv-x="763" 
d="M277 772q-20 0 -34 13.5t-14 33.5t14 33t34 13t34 -13t14 -33t-14 -33.5t-34 -13.5zM487 772q-20 0 -34 13.5t-14 33.5t14 33t34 13t34 -13t14 -33t-14 -33.5t-34 -13.5zM673 273q0 -66 -21 -119.5t-59.5 -91t-92 -57.5t-119.5 -20q-65 0 -119 20t-92 57.5t-59 91
t-21 119.5v407h71v-407q0 -51 16 -92t44.5 -70t69 -44.5t90.5 -15.5t90.5 15.5t69.5 44.5t45 70t16 92v407h71v-407z" />
    <glyph glyph-name="Yacute" unicode="&#xdd;" horiz-adv-x="694" 
d="M388 744h-72l89 152h92zM26 680h81l240 -364l241 364h80l-285 -437v-243h-71v243z" />
    <glyph glyph-name="Thorn" unicode="&#xde;" horiz-adv-x="640" 
d="M330 578q60 0 109 -15.5t84 -44.5t54.5 -72t19.5 -97q0 -51 -19.5 -93t-54.5 -72t-84 -46.5t-109 -16.5h-159v-121h-71v680h71v-106q45 2 83 3t76 1zM337 186q42 0 77 11.5t60 32.5t39 51t14 67q0 40 -14 71t-39 52t-60 31.5t-77 10.5q-41 0 -80.5 -1.5t-85.5 -3.5v-322
h166z" />
    <glyph glyph-name="germandbls" unicode="&#xdf;" horiz-adv-x="649" 
d="M263 691q-55 0 -78 -28.5t-23 -91.5v-109h417v-45l-194 -221h29q90 -6 143 -56t53 -135q0 -48 -17.5 -87.5t-49.5 -67t-77 -43t-100 -15.5q-38 0 -74 5t-73 15l11 58q45 -9 78 -13t59 -4q80 0 128 41t48 109q0 63 -43 98t-113 35h-96v34l195 228h-324v-398h-68v577
q0 91 40 133.5t129 42.5v-62z" />
    <glyph glyph-name="agrave" unicode="&#xe0;" horiz-adv-x="610" 
d="M297 571l-109 156h92l85 -156h-68zM288 477q33 0 61 -1.5t55.5 -4.5t56.5 -7.5t64 -11.5v-452h-68v41q-44 -29 -84.5 -42.5t-88.5 -13.5q-52 0 -94.5 18t-72.5 50.5t-46.5 78t-16.5 101.5q0 55 16.5 100t46.5 77t73.5 49.5t97.5 17.5zM297 418q-43 0 -76 -14t-55 -38.5
t-33 -59t-11 -75.5q0 -42 12 -76t34 -59t53.5 -38.5t70.5 -13.5q42 0 80 12.5t85 43.5v305q-44 7 -81 10t-79 3z" />
    <glyph glyph-name="aacute" unicode="&#xe1;" horiz-adv-x="610" 
d="M338 571h-67l84 156h92zM288 477q33 0 61 -1.5t55.5 -4.5t56.5 -7.5t64 -11.5v-452h-68v41q-44 -29 -84.5 -42.5t-88.5 -13.5q-52 0 -94.5 18t-72.5 50.5t-46.5 78t-16.5 101.5q0 55 16.5 100t46.5 77t73.5 49.5t97.5 17.5zM297 418q-43 0 -76 -14t-55 -38.5t-33 -59
t-11 -75.5q0 -42 12 -76t34 -59t53.5 -38.5t70.5 -13.5q42 0 80 12.5t85 43.5v305q-44 7 -81 10t-79 3z" />
    <glyph glyph-name="acircumflex" unicode="&#xe2;" horiz-adv-x="610" 
d="M226 568h-69l126 149h64l126 -149h-69l-89 100zM288 477q33 0 61 -1.5t55.5 -4.5t56.5 -7.5t64 -11.5v-452h-68v41q-44 -29 -84.5 -42.5t-88.5 -13.5q-52 0 -94.5 18t-72.5 50.5t-46.5 78t-16.5 101.5q0 55 16.5 100t46.5 77t73.5 49.5t97.5 17.5zM297 418q-43 0 -76 -14
t-55 -38.5t-33 -59t-11 -75.5q0 -42 12 -76t34 -59t53.5 -38.5t70.5 -13.5q42 0 80 12.5t85 43.5v305q-44 7 -81 10t-79 3z" />
    <glyph glyph-name="atilde" unicode="&#xe3;" horiz-adv-x="610" 
d="M472 674q0 -36 -14.5 -58t-36 -31.5t-45.5 -7.5t-42 14l-55 36q-24 16 -45.5 6t-21.5 -39h-54q0 36 14.5 58t36 31t45.5 7t42 -13l55 -36q24 -16 45 -6t21 39h55zM288 477q33 0 61 -1.5t55.5 -4.5t56.5 -7.5t64 -11.5v-452h-68v41q-44 -29 -84.5 -42.5t-88.5 -13.5
q-52 0 -94.5 18t-72.5 50.5t-46.5 78t-16.5 101.5q0 55 16.5 100t46.5 77t73.5 49.5t97.5 17.5zM297 418q-43 0 -76 -14t-55 -38.5t-33 -59t-11 -75.5q0 -42 12 -76t34 -59t53.5 -38.5t70.5 -13.5q42 0 80 12.5t85 43.5v305q-44 7 -81 10t-79 3z" />
    <glyph glyph-name="adieresis" unicode="&#xe4;" horiz-adv-x="610" 
d="M210 675q20 0 34 -13.5t14 -33.5t-14 -33t-34 -13t-34 13t-14 33t14 33.5t34 13.5zM420 675q20 0 34 -13.5t14 -33.5t-14 -33t-34 -13t-34 13t-14 33t14 33.5t34 13.5zM288 477q33 0 61 -1.5t55.5 -4.5t56.5 -7.5t64 -11.5v-452h-68v41q-44 -29 -84.5 -42.5t-88.5 -13.5
q-52 0 -94.5 18t-72.5 50.5t-46.5 78t-16.5 101.5q0 55 16.5 100t46.5 77t73.5 49.5t97.5 17.5zM297 418q-43 0 -76 -14t-55 -38.5t-33 -59t-11 -75.5q0 -42 12 -76t34 -59t53.5 -38.5t70.5 -13.5q42 0 80 12.5t85 43.5v305q-44 7 -81 10t-79 3z" />
    <glyph glyph-name="aring" unicode="&#xe5;" horiz-adv-x="610" 
d="M316 739q42 0 69.5 -25.5t27.5 -68.5q0 -42 -27.5 -68t-69.5 -26t-69.5 26t-27.5 68q0 43 27.5 68.5t69.5 25.5zM316 590q23 0 39 15t16 40t-16 40t-39 15t-39 -15t-16 -40t16 -40t39 -15zM288 477q33 0 61 -1.5t55.5 -4.5t56.5 -7.5t64 -11.5v-452h-68v41
q-44 -29 -84.5 -42.5t-88.5 -13.5q-52 0 -94.5 18t-72.5 50.5t-46.5 78t-16.5 101.5q0 55 16.5 100t46.5 77t73.5 49.5t97.5 17.5zM297 418q-43 0 -76 -14t-55 -38.5t-33 -59t-11 -75.5q0 -42 12 -76t34 -59t53.5 -38.5t70.5 -13.5q42 0 80 12.5t85 43.5v305q-44 7 -81 10
t-79 3z" />
    <glyph glyph-name="ae" unicode="&#xe6;" horiz-adv-x="902" 
d="M846 257v-14t-0.5 -11.5t-1 -11.5t-1.5 -15h-387q8 -72 55.5 -115t125.5 -43q40 0 81 7.5t89 18.5l10 -56q-45 -14 -89.5 -23t-92.5 -9q-51 0 -91.5 13t-71.5 37q-83 -32 -139.5 -41t-95.5 -9q-193 0 -193 150q0 66 53.5 95t152.5 28l134 -1v39q0 61 -23 91.5t-77 30.5
q-43 0 -87 -4t-95 -12l-7 58q58 10 102 14.5t90 4.5q60 0 96 -21.5t52 -66.5q32 41 80.5 63.5t109.5 22.5q49 0 89.5 -15.5t69.5 -44t45.5 -69t16.5 -90.5v-1zM626 421q-74 0 -119 -44t-52 -118h328q-1 76 -44 119t-113 43zM109 133q0 -92 142 -92q26 0 71.5 7.5t108.5 29.5
q-18 25 -29.5 56t-14.5 66h-142q-65 1 -100.5 -14t-35.5 -53z" />
    <glyph glyph-name="ccedilla" unicode="&#xe7;" horiz-adv-x="530" 
d="M461 399q-38 10 -76 15.5t-68 5.5q-44 0 -79.5 -13.5t-61 -38t-39.5 -59.5t-14 -77t13.5 -76.5t38.5 -59t59 -38t75 -13.5q31 0 74 7.5t86 18.5l11 -57q-41 -13 -87.5 -21t-85.5 -8q-56 0 -102.5 17.5t-80 50t-52 78.5t-18.5 102t19 101.5t53 77.5t81.5 49.5t105.5 17.5
q36 0 79.5 -6.5t78.5 -18.5zM203 -204l51 154h67l-59 -154h-59z" />
    <glyph glyph-name="egrave" unicode="&#xe8;" horiz-adv-x="570" 
d="M289 571l-109 156h92l85 -156h-68zM294 477q49 0 89.5 -15t69.5 -43.5t45.5 -69t16.5 -91.5q0 -17 -0.5 -26.5t-2.5 -26.5h-385q8 -72 55 -115t124 -43q45 0 83.5 7t86.5 19l11 -56q-46 -14 -88 -23t-95 -9q-59 0 -105.5 18.5t-78.5 51t-49 78t-17 99.5q0 55 18 100.5
t49.5 77.5t75.5 49.5t97 17.5zM295 421q-74 0 -119 -44t-51 -118h328q-2 76 -45 119t-113 43z" />
    <glyph glyph-name="eacute" unicode="&#xe9;" horiz-adv-x="570" 
d="M330 571h-67l84 156h92zM294 477q49 0 89.5 -15t69.5 -43.5t45.5 -69t16.5 -91.5q0 -17 -0.5 -26.5t-2.5 -26.5h-385q8 -72 55 -115t124 -43q45 0 83.5 7t86.5 19l11 -56q-46 -14 -88 -23t-95 -9q-59 0 -105.5 18.5t-78.5 51t-49 78t-17 99.5q0 55 18 100.5t49.5 77.5
t75.5 49.5t97 17.5zM295 421q-74 0 -119 -44t-51 -118h328q-2 76 -45 119t-113 43z" />
    <glyph glyph-name="ecircumflex" unicode="&#xea;" horiz-adv-x="570" 
d="M218 568h-69l126 149h64l126 -149h-69l-89 100zM294 477q49 0 89.5 -15t69.5 -43.5t45.5 -69t16.5 -91.5q0 -17 -0.5 -26.5t-2.5 -26.5h-385q8 -72 55 -115t124 -43q45 0 83.5 7t86.5 19l11 -56q-46 -14 -88 -23t-95 -9q-59 0 -105.5 18.5t-78.5 51t-49 78t-17 99.5
q0 55 18 100.5t49.5 77.5t75.5 49.5t97 17.5zM295 421q-74 0 -119 -44t-51 -118h328q-2 76 -45 119t-113 43z" />
    <glyph glyph-name="edieresis" unicode="&#xeb;" horiz-adv-x="570" 
d="M203 675q20 0 34 -13.5t14 -33.5t-14 -33t-34 -13t-34 13t-14 33t14 33.5t34 13.5zM413 675q20 0 34 -13.5t14 -33.5t-14 -33t-34 -13t-34 13t-14 33t14 33.5t34 13.5zM294 477q49 0 89.5 -15t69.5 -43.5t45.5 -69t16.5 -91.5q0 -17 -0.5 -26.5t-2.5 -26.5h-385
q8 -72 55 -115t124 -43q45 0 83.5 7t86.5 19l11 -56q-46 -14 -88 -23t-95 -9q-59 0 -105.5 18.5t-78.5 51t-49 78t-17 99.5q0 55 18 100.5t49.5 77.5t75.5 49.5t97 17.5zM295 421q-74 0 -119 -44t-51 -118h328q-2 76 -45 119t-113 43z" />
    <glyph glyph-name="igrave" unicode="&#xec;" horiz-adv-x="251" 
d="M86 571l-109 156h92l84 -156h-67zM159 0h-68v462h68v-462z" />
    <glyph glyph-name="iacute" unicode="&#xed;" horiz-adv-x="251" 
d="M160 571h-68l85 156h92zM159 0h-68v462h68v-462z" />
    <glyph glyph-name="icircumflex" unicode="&#xee;" horiz-adv-x="251" 
d="M37 568h-69l126 149h64l126 -149h-69l-89 100zM159 0h-68v462h68v-462z" />
    <glyph glyph-name="idieresis" unicode="&#xef;" horiz-adv-x="251" 
d="M21 675q20 0 34 -13.5t14 -33.5t-14 -33t-34 -13t-34 13t-14 33t14 33.5t34 13.5zM231 675q20 0 34 -13.5t14 -33.5t-14 -33t-34 -13t-34 13t-14 33t14 33.5t34 13.5zM159 0h-68v462h68v-462z" />
    <glyph glyph-name="eth" unicode="&#xf0;" horiz-adv-x="614" 
d="M245 712q32 -11 61.5 -26t56.5 -35l85 31l17 -44l-60 -23q71 -62 113 -156.5t42 -210.5q0 -63 -17.5 -112t-50.5 -83t-80 -51.5t-105 -17.5q-55 0 -101.5 18t-80 50.5t-52.5 78.5t-19 102q0 55 19 101t52 78t77.5 50t96.5 18q57 0 98.5 -21.5t67.5 -59.5
q-20 63 -52.5 112t-73.5 81l-159 -59l-16 44l128 48q-56 37 -120 58zM307 417q-39 0 -72.5 -13t-58 -37t-38.5 -58t-14 -76t14 -76.5t38.5 -59t58 -38t72.5 -13.5q85 0 134 51t49 142q0 42 -14 75t-38.5 56t-58 35t-72.5 12z" />
    <glyph glyph-name="ntilde" unicode="&#xf1;" horiz-adv-x="609" 
d="M461 674q0 -36 -14.5 -58t-36 -31.5t-45.5 -7.5t-42 14l-55 36q-24 16 -45.5 6t-21.5 -39h-54q0 36 14.5 58t36 31t45.5 7t42 -13l55 -36q24 -16 45 -6t21 39h55zM341 477q88 0 138 -50t50 -139v-288h-68v272q0 67 -35 104.5t-98 37.5q-38 0 -81 -3t-91 -11v-400h-68v452
q25 6 56.5 10.5t64.5 7.5t67 5t65 2z" />
    <glyph glyph-name="ograve" unicode="&#xf2;" horiz-adv-x="614" 
d="M289 571l-109 156h92l85 -156h-68zM307 480q55 0 101.5 -18t80.5 -50t52.5 -78t18.5 -101q0 -56 -18.5 -102t-52.5 -78.5t-80.5 -50.5t-101.5 -18q-56 0 -102 18t-80 50.5t-52.5 78.5t-18.5 102q0 55 18.5 101t52.5 78t80 50t102 18zM307 46q40 0 74 13.5t58 38t37.5 59
t13.5 76.5t-13.5 76t-37.5 58t-58 37t-74 13t-73.5 -13t-58 -37t-38 -58t-13.5 -76t13.5 -76.5t38 -59t58 -38t73.5 -13.5z" />
    <glyph glyph-name="oacute" unicode="&#xf3;" horiz-adv-x="614" 
d="M329 571h-67l84 156h92zM307 480q55 0 101.5 -18t80.5 -50t52.5 -78t18.5 -101q0 -56 -18.5 -102t-52.5 -78.5t-80.5 -50.5t-101.5 -18q-56 0 -102 18t-80 50.5t-52.5 78.5t-18.5 102q0 55 18.5 101t52.5 78t80 50t102 18zM307 46q40 0 74 13.5t58 38t37.5 59t13.5 76.5
t-13.5 76t-37.5 58t-58 37t-74 13t-73.5 -13t-58 -37t-38 -58t-13.5 -76t13.5 -76.5t38 -59t58 -38t73.5 -13.5z" />
    <glyph glyph-name="ocircumflex" unicode="&#xf4;" horiz-adv-x="614" 
d="M218 568h-69l126 149h64l126 -149h-69l-89 100zM307 480q55 0 101.5 -18t80.5 -50t52.5 -78t18.5 -101q0 -56 -18.5 -102t-52.5 -78.5t-80.5 -50.5t-101.5 -18q-56 0 -102 18t-80 50.5t-52.5 78.5t-18.5 102q0 55 18.5 101t52.5 78t80 50t102 18zM307 46q40 0 74 13.5
t58 38t37.5 59t13.5 76.5t-13.5 76t-37.5 58t-58 37t-74 13t-73.5 -13t-58 -37t-38 -58t-13.5 -76t13.5 -76.5t38 -59t58 -38t73.5 -13.5z" />
    <glyph glyph-name="otilde" unicode="&#xf5;" horiz-adv-x="614" 
d="M464 674q0 -36 -14.5 -58t-36 -31.5t-45.5 -7.5t-42 14l-55 36q-24 16 -45.5 6t-21.5 -39h-54q0 36 14.5 58t36 31t45.5 7t42 -13l55 -36q24 -16 45 -6t21 39h55zM307 480q55 0 101.5 -18t80.5 -50t52.5 -78t18.5 -101q0 -56 -18.5 -102t-52.5 -78.5t-80.5 -50.5
t-101.5 -18q-56 0 -102 18t-80 50.5t-52.5 78.5t-18.5 102q0 55 18.5 101t52.5 78t80 50t102 18zM307 46q40 0 74 13.5t58 38t37.5 59t13.5 76.5t-13.5 76t-37.5 58t-58 37t-74 13t-73.5 -13t-58 -37t-38 -58t-13.5 -76t13.5 -76.5t38 -59t58 -38t73.5 -13.5z" />
    <glyph glyph-name="odieresis" unicode="&#xf6;" horiz-adv-x="614" 
d="M202 675q20 0 34 -13.5t14 -33.5t-14 -33t-34 -13t-34 13t-14 33t14 33.5t34 13.5zM412 675q20 0 34 -13.5t14 -33.5t-14 -33t-34 -13t-34 13t-14 33t14 33.5t34 13.5zM307 480q55 0 101.5 -18t80.5 -50t52.5 -78t18.5 -101q0 -56 -18.5 -102t-52.5 -78.5t-80.5 -50.5
t-101.5 -18q-56 0 -102 18t-80 50.5t-52.5 78.5t-18.5 102q0 55 18.5 101t52.5 78t80 50t102 18zM307 46q40 0 74 13.5t58 38t37.5 59t13.5 76.5t-13.5 76t-37.5 58t-58 37t-74 13t-73.5 -13t-58 -37t-38 -58t-13.5 -76t13.5 -76.5t38 -59t58 -38t73.5 -13.5z" />
    <glyph glyph-name="divide" unicode="&#xf7;" horiz-adv-x="693" 
d="M347 464q-20 0 -33 13t-13 32t13 32t33 13q19 0 32.5 -13t13.5 -32t-13.5 -32t-32.5 -13zM576 355v-64h-459v64h459zM347 94q-20 0 -33 12.5t-13 31.5q0 20 13 32.5t33 12.5q19 0 32.5 -12.5t13.5 -32.5q0 -19 -13.5 -31.5t-32.5 -12.5z" />
    <glyph glyph-name="oslash" unicode="&#xf8;" horiz-adv-x="614" 
d="M488 413q35 -33 53.5 -78.5t18.5 -101.5t-18.5 -102t-52.5 -78.5t-80.5 -50.5t-101.5 -18q-83 0 -145 39l-63 -75l-39 33l62 74q-32 33 -50 78t-18 100t18.5 101t52.5 78t80 50t102 18q40 0 75.5 -9.5t64.5 -26.5l59 70l39 -34zM124 233q0 -75 42 -125l239 285
q-21 11 -45.5 17.5t-52.5 6.5q-40 0 -73.5 -13t-58 -37t-38 -58t-13.5 -76zM307 46q40 0 74 13.5t58 38t37.5 59t13.5 76.5q0 39 -12 71.5t-33 56.5l-240 -287q44 -28 102 -28z" />
    <glyph glyph-name="ugrave" unicode="&#xf9;" horiz-adv-x="611" 
d="M287 571l-109 156h92l85 -156h-68zM524 10q-26 -6 -57 -10.5t-64 -8t-67 -5t-65 -1.5q-88 0 -138 46t-50 143v288h68v-275q0 -70 34 -106.5t99 -36.5q38 0 81 3t91 11v404h68v-452z" />
    <glyph glyph-name="uacute" unicode="&#xfa;" horiz-adv-x="611" 
d="M327 571h-67l84 156h92zM524 10q-26 -6 -57 -10.5t-64 -8t-67 -5t-65 -1.5q-88 0 -138 46t-50 143v288h68v-275q0 -70 34 -106.5t99 -36.5q38 0 81 3t91 11v404h68v-452z" />
    <glyph glyph-name="ucircumflex" unicode="&#xfb;" horiz-adv-x="611" 
d="M216 568h-69l126 149h64l126 -149h-69l-89 100zM524 10q-26 -6 -57 -10.5t-64 -8t-67 -5t-65 -1.5q-88 0 -138 46t-50 143v288h68v-275q0 -70 34 -106.5t99 -36.5q38 0 81 3t91 11v404h68v-452z" />
    <glyph glyph-name="udieresis" unicode="&#xfc;" horiz-adv-x="611" 
d="M200 675q20 0 34 -13.5t14 -33.5t-14 -33t-34 -13t-34 13t-14 33t14 33.5t34 13.5zM410 675q20 0 34 -13.5t14 -33.5t-14 -33t-34 -13t-34 13t-14 33t14 33.5t34 13.5zM524 10q-26 -6 -57 -10.5t-64 -8t-67 -5t-65 -1.5q-88 0 -138 46t-50 143v288h68v-275
q0 -70 34 -106.5t99 -36.5q38 0 81 3t91 11v404h68v-452z" />
    <glyph glyph-name="yacute" unicode="&#xfd;" horiz-adv-x="616" 
d="M264 571l84 156h92l-109 -156h-67zM229 -225h-77l127 249l-238 438h78l197 -365l187 365h77z" />
    <glyph glyph-name="thorn" unicode="&#xfe;" horiz-adv-x="617" 
d="M326 477q54 0 97.5 -17.5t73.5 -49.5t46.5 -77t16.5 -100q0 -56 -16.5 -101.5t-46.5 -78t-72.5 -50.5t-94.5 -18h-41t-38.5 1.5t-42 4.5t-51.5 8v-225h-68v936h68v-247q44 8 83 11t86 3zM322 44q39 0 70.5 13.5t53.5 38.5t34 59t12 76q0 41 -11 75.5t-33 59t-54.5 38.5
t-75.5 14q-42 0 -79 -3t-82 -10v-347q30 -6 52.5 -8.5t41 -4t35.5 -1.5h36z" />
    <glyph glyph-name="ydieresis" unicode="&#xff;" horiz-adv-x="616" 
d="M203 582q-20 0 -34 13t-14 33t14 33.5t34 13.5t34 -13.5t14 -33.5t-14 -33t-34 -13zM413 582q-20 0 -34 13t-14 33t14 33.5t34 13.5t34 -13.5t14 -33.5t-14 -33t-34 -13zM229 -225h-77l127 249l-238 438h78l197 -365l187 365h77z" />
    <glyph glyph-name="Amacron" unicode="&#x100;" horiz-adv-x="760" 
d="M524 781h-288v55h288v-55zM117 0h-80l309 685h68l309 -685h-79l-74 166h-380zM218 230h323l-161 364z" />
    <glyph glyph-name="amacron" unicode="&#x101;" horiz-adv-x="610" 
d="M450 617h-271v56h271v-56zM288 477q33 0 61 -1.5t55.5 -4.5t56.5 -7.5t64 -11.5v-452h-68v41q-44 -29 -84.5 -42.5t-88.5 -13.5q-52 0 -94.5 18t-72.5 50.5t-46.5 78t-16.5 101.5q0 55 16.5 100t46.5 77t73.5 49.5t97.5 17.5zM297 418q-43 0 -76 -14t-55 -38.5t-33 -59
t-11 -75.5q0 -42 12 -76t34 -59t53.5 -38.5t70.5 -13.5q42 0 80 12.5t85 43.5v305q-44 7 -81 10t-79 3z" />
    <glyph glyph-name="Abreve" unicode="&#x102;" horiz-adv-x="760" 
d="M525 892q0 -66 -39.5 -104.5t-105.5 -38.5t-105.5 38.5t-39.5 104.5h58q0 -42 24 -65t63 -23t62.5 23t23.5 65h59zM117 0h-80l309 685h68l309 -685h-79l-74 166h-380zM218 230h323l-161 364z" />
    <glyph glyph-name="abreve" unicode="&#x103;" horiz-adv-x="610" 
d="M460 706q0 -66 -39.5 -104t-105.5 -38t-105.5 38t-39.5 104h58q0 -42 24 -65t63 -23t62.5 23t23.5 65h59zM288 477q33 0 61 -1.5t55.5 -4.5t56.5 -7.5t64 -11.5v-452h-68v41q-44 -29 -84.5 -42.5t-88.5 -13.5q-52 0 -94.5 18t-72.5 50.5t-46.5 78t-16.5 101.5
q0 55 16.5 100t46.5 77t73.5 49.5t97.5 17.5zM297 418q-43 0 -76 -14t-55 -38.5t-33 -59t-11 -75.5q0 -42 12 -76t34 -59t53.5 -38.5t70.5 -13.5q42 0 80 12.5t85 43.5v305q-44 7 -81 10t-79 3z" />
    <glyph glyph-name="Aogonek" unicode="&#x104;" horiz-adv-x="760" 
d="M734 -189q-19 -7 -50 -7q-58 0 -93 28.5t-35 76.5q0 35 24 60.5t59 41.5l-69 155h-380l-73 -166h-80l309 685h68l309 -685h-39q-32 -15 -50.5 -33.5t-18.5 -46.5t20.5 -44t57.5 -16q10 0 18 1t16 3zM380 594l-162 -364h323z" />
    <glyph glyph-name="aogonek" unicode="&#x105;" horiz-adv-x="610" 
d="M551 -196q-19 -7 -50 -7q-58 0 -93 28.5t-35 76.5q0 35 24 61t60 42v36q-44 -29 -84.5 -42.5t-88.5 -13.5q-52 0 -94.5 18t-72.5 50.5t-46.5 78t-16.5 101.5q0 55 16.5 100t46.5 77t73.5 49.5t97.5 17.5q33 0 61 -1.5t55.5 -4.5t56.5 -7.5t64 -11.5v-452h-8
q-39 -17 -62 -36.5t-23 -50.5q0 -28 20.5 -44t57.5 -16q10 0 18 1t16 3zM292 44q42 0 80 12.5t85 43.5v305q-44 7 -81 10t-79 3q-43 0 -76 -14t-55 -38.5t-33 -59t-11 -75.5q0 -42 12 -76t34 -59t53.5 -38.5t70.5 -13.5z" />
    <glyph glyph-name="Cacute" unicode="&#x106;" horiz-adv-x="751" 
d="M476 744h-72l89 152h92zM659 595q-60 16 -111.5 24t-98.5 8q-74 0 -131 -21t-96.5 -58.5t-60 -90.5t-20.5 -116q0 -65 21 -118.5t59.5 -91.5t93.5 -59t123 -21q46 0 105.5 9t129.5 28l13 -62q-66 -20 -130 -30.5t-121 -10.5q-84 0 -152 25.5t-116.5 72t-74.5 112
t-26 145.5t26 145.5t75 112t118.5 72t155.5 25.5q60 0 118 -8.5t113 -25.5z" />
    <glyph glyph-name="cacute" unicode="&#x107;" horiz-adv-x="530" 
d="M318 571h-67l84 156h92zM461 399q-38 10 -76 15.5t-68 5.5q-44 0 -79.5 -13.5t-61 -38t-39.5 -59.5t-14 -77t13.5 -76.5t38.5 -59t59 -38t75 -13.5q31 0 74 7.5t86 18.5l11 -57q-41 -13 -87.5 -21t-85.5 -8q-56 0 -102.5 17.5t-80 50t-52 78.5t-18.5 102t19 101.5
t53 77.5t81.5 49.5t105.5 17.5q36 0 79.5 -6.5t78.5 -18.5z" />
    <glyph glyph-name="Cdotaccent" unicode="&#x10a;" horiz-adv-x="751" 
d="M434 772q-20 0 -34 13.5t-14 33.5t14 33t34 13t34 -13t14 -33t-14 -33.5t-34 -13.5zM659 595q-60 16 -111.5 24t-98.5 8q-74 0 -131 -21t-96.5 -58.5t-60 -90.5t-20.5 -116q0 -65 21 -118.5t59.5 -91.5t93.5 -59t123 -21q46 0 105.5 9t129.5 28l13 -62
q-66 -20 -130 -30.5t-121 -10.5q-84 0 -152 25.5t-116.5 72t-74.5 112t-26 145.5t26 145.5t75 112t118.5 72t155.5 25.5q60 0 118 -8.5t113 -25.5z" />
    <glyph glyph-name="cdotaccent" unicode="&#x10b;" horiz-adv-x="530" 
d="M296 582q-20 0 -34 13t-14 33t14 33.5t34 13.5t34 -13.5t14 -33.5t-14 -33t-34 -13zM461 399q-38 10 -76 15.5t-68 5.5q-44 0 -79.5 -13.5t-61 -38t-39.5 -59.5t-14 -77t13.5 -76.5t38.5 -59t59 -38t75 -13.5q31 0 74 7.5t86 18.5l11 -57q-41 -13 -87.5 -21t-85.5 -8
q-56 0 -102.5 17.5t-80 50t-52 78.5t-18.5 102t19 101.5t53 77.5t81.5 49.5t105.5 17.5q36 0 79.5 -6.5t78.5 -18.5z" />
    <glyph glyph-name="Ccaron" unicode="&#x10c;" horiz-adv-x="751" 
d="M402 739l-126 155h70l88 -106l88 106h70l-126 -155h-64zM659 595q-60 16 -111.5 24t-98.5 8q-74 0 -131 -21t-96.5 -58.5t-60 -90.5t-20.5 -116q0 -65 21 -118.5t59.5 -91.5t93.5 -59t123 -21q46 0 105.5 9t129.5 28l13 -62q-66 -20 -130 -30.5t-121 -10.5
q-84 0 -152 25.5t-116.5 72t-74.5 112t-26 145.5t26 145.5t75 112t118.5 72t155.5 25.5q60 0 118 -8.5t113 -25.5z" />
    <glyph glyph-name="ccaron" unicode="&#x10d;" horiz-adv-x="530" 
d="M263 566l-126 155h70l88 -106l88 106h70l-126 -155h-64zM461 399q-38 10 -76 15.5t-68 5.5q-44 0 -79.5 -13.5t-61 -38t-39.5 -59.5t-14 -77t13.5 -76.5t38.5 -59t59 -38t75 -13.5q31 0 74 7.5t86 18.5l11 -57q-41 -13 -87.5 -21t-85.5 -8q-56 0 -102.5 17.5t-80 50
t-52 78.5t-18.5 102t19 101.5t53 77.5t81.5 49.5t105.5 17.5q36 0 79.5 -6.5t78.5 -18.5z" />
    <glyph glyph-name="Dcaron" unicode="&#x10e;" horiz-adv-x="751" 
d="M312 739l-126 155h70l88 -106l88 106h70l-126 -155h-64zM329 688q79 0 144.5 -24t113 -68.5t73.5 -108t26 -142.5q0 -81 -26 -146.5t-72.5 -111t-110 -70t-139.5 -24.5q-30 0 -63 0.5t-64.5 1.5t-60 2.5t-50.5 2.5v680q22 1 50 2.5t58 2.5t61 2t60 1zM338 59
q60 0 110 19.5t86 56.5t56.5 90t20.5 120q0 64 -20.5 115.5t-57.5 87.5t-89 55t-115 19q-38 0 -79 -1t-79 -3v-556q41 -2 84 -2.5t83 -0.5z" />
    <glyph glyph-name="dcaron" unicode="&#x10f;" horiz-adv-x="613" 
d="M525 9q-46 -9 -79.5 -13.5t-60.5 -6.5t-50.5 -2h-50.5q-51 0 -93.5 17t-72.5 49t-47 78t-17 103q0 54 16 99t46.5 77t75 49.5t101.5 17.5q41 0 81 -4.5t82 -16.5v254h69v-701zM630 514h-53l10 196h71zM300 418q-89 0 -134 -51t-45 -133q0 -86 45.5 -138t129.5 -52h32
t34.5 1.5t41 4.5t52.5 8v339q-45 13 -83 17t-73 4z" />
    <glyph glyph-name="Dcroat" unicode="&#x110;" horiz-adv-x="751" 
d="M329 688q79 0 144.5 -24t113 -68.5t73.5 -108t26 -142.5q0 -81 -26 -146.5t-72.5 -111t-110 -70t-139.5 -24.5q-30 0 -63 0.5t-64.5 1.5t-60 2.5t-50.5 2.5v304h-66v65h66v311q22 1 50 2.5t58 2.5t61 2t60 1zM338 59q60 0 110 19.5t86 56.5t56.5 90t20.5 120
q0 64 -20.5 115.5t-57.5 87.5t-89 55t-115 19q-38 0 -79 -1t-79 -3v-249h182v-65h-182v-242q41 -2 84 -2.5t83 -0.5z" />
    <glyph glyph-name="dcroat" unicode="&#x111;" horiz-adv-x="613" 
d="M525 574v-565q-46 -9 -79.5 -13.5t-60.5 -6.5t-50.5 -2h-50.5q-51 0 -93.5 17t-72.5 49t-47 78t-17 103q0 54 16 99t46.5 77t75 49.5t101.5 17.5q41 0 81 -4.5t82 -16.5v118h-185v57h185v79h69v-79h48v-57h-48zM456 397q-45 13 -83 17t-73 4q-89 0 -134 -51t-45 -133
q0 -86 45.5 -138t129.5 -52h32t34.5 1.5t41 4.5t52.5 8v339z" />
    <glyph glyph-name="Emacron" unicode="&#x112;" horiz-adv-x="641" 
d="M477 781h-288v55h288v-55zM531 373v-66h-360v-242h402v-65h-473v680h473v-65h-402v-242h360z" />
    <glyph glyph-name="emacron" unicode="&#x113;" horiz-adv-x="570" 
d="M443 617h-271v56h271v-56zM294 477q49 0 89.5 -15t69.5 -43.5t45.5 -69t16.5 -91.5q0 -17 -0.5 -26.5t-2.5 -26.5h-385q8 -72 55 -115t124 -43q45 0 83.5 7t86.5 19l11 -56q-46 -14 -88 -23t-95 -9q-59 0 -105.5 18.5t-78.5 51t-49 78t-17 99.5q0 55 18 100.5t49.5 77.5
t75.5 49.5t97 17.5zM295 421q-74 0 -119 -44t-51 -118h328q-2 76 -45 119t-113 43z" />
    <glyph glyph-name="Edotaccent" unicode="&#x116;" horiz-adv-x="641" 
d="M333 772q-20 0 -34 13.5t-14 33.5t14 33t34 13t34 -13t14 -33t-14 -33.5t-34 -13.5zM531 373v-66h-360v-242h402v-65h-473v680h473v-65h-402v-242h360z" />
    <glyph glyph-name="edotaccent" unicode="&#x117;" horiz-adv-x="570" 
d="M308 582q-20 0 -34 13t-14 33t14 33.5t34 13.5t34 -13.5t14 -33.5t-14 -33t-34 -13zM294 477q49 0 89.5 -15t69.5 -43.5t45.5 -69t16.5 -91.5q0 -17 -0.5 -26.5t-2.5 -26.5h-385q8 -72 55 -115t124 -43q45 0 83.5 7t86.5 19l11 -56q-46 -14 -88 -23t-95 -9
q-59 0 -105.5 18.5t-78.5 51t-49 78t-17 99.5q0 55 18 100.5t49.5 77.5t75.5 49.5t97 17.5zM295 421q-74 0 -119 -44t-51 -118h328q-2 76 -45 119t-113 43z" />
    <glyph glyph-name="Eogonek" unicode="&#x118;" horiz-adv-x="641" 
d="M171 373h360v-66h-360v-242h402v-65h-57q-36 -16 -57 -35.5t-21 -48.5q0 -28 20.5 -44t57.5 -16q10 0 18 1t16 3l7 -53q-19 -7 -50 -7q-58 0 -93 28.5t-35 76.5q0 32 19 55.5t49 39.5h-347v680h473v-65h-402v-242z" />
    <glyph glyph-name="eogonek" unicode="&#x119;" horiz-adv-x="570" 
d="M515 258q0 -17 -0.5 -26.5t-2.5 -26.5h-385q8 -72 55 -115t124 -43q45 0 83.5 7t86.5 19l11 -56q-15 -5 -29 -8.5t-28 -7.5q-38 -17 -60.5 -36t-22.5 -50q0 -28 20.5 -44t57.5 -16q10 0 18 1t16 3l7 -53q-19 -7 -50 -7q-58 0 -93 28.5t-35 76.5q0 26 13 46t34 36
q-8 -1 -15.5 -1h-15.5q-59 0 -105.5 18.5t-78.5 51t-49 78t-17 99.5q0 55 18 100.5t49.5 77.5t75.5 49.5t97 17.5q49 0 89.5 -15t69.5 -43.5t45.5 -69t16.5 -91.5zM453 259q-2 76 -45 119t-113 43q-74 0 -119 -44t-51 -118h328z" />
    <glyph glyph-name="Ecaron" unicode="&#x11a;" horiz-adv-x="641" 
d="M301 739l-126 155h70l88 -106l88 106h70l-126 -155h-64zM531 373v-66h-360v-242h402v-65h-473v680h473v-65h-402v-242h360z" />
    <glyph glyph-name="ecaron" unicode="&#x11b;" horiz-adv-x="570" 
d="M275 566l-126 155h70l88 -106l88 106h70l-126 -155h-64zM294 477q49 0 89.5 -15t69.5 -43.5t45.5 -69t16.5 -91.5q0 -17 -0.5 -26.5t-2.5 -26.5h-385q8 -72 55 -115t124 -43q45 0 83.5 7t86.5 19l11 -56q-46 -14 -88 -23t-95 -9q-59 0 -105.5 18.5t-78.5 51t-49 78
t-17 99.5q0 55 18 100.5t49.5 77.5t75.5 49.5t97 17.5zM295 421q-74 0 -119 -44t-51 -118h328q-2 76 -45 119t-113 43z" />
    <glyph glyph-name="Gbreve" unicode="&#x11e;" horiz-adv-x="810" 
d="M573 892q0 -66 -39.5 -104.5t-105.5 -38.5t-105.5 38.5t-39.5 104.5h58q0 -42 24 -65t63 -23t62.5 23t23.5 65h59zM738 54q-79 -35 -157 -52t-152 -17q-82 0 -149 25.5t-114.5 72t-73.5 112.5t-26 146q0 79 26.5 144.5t75.5 112t117.5 72t152.5 25.5q53 0 114.5 -8.5
t120.5 -25.5l-15 -65q-64 16 -119.5 23.5t-96.5 7.5q-68 0 -123.5 -20.5t-95.5 -58t-61.5 -90.5t-21.5 -117q0 -65 21 -118t59 -90.5t91 -58.5t118 -21q55 0 117 10.5t124 33.5v208h-272v66h340v-317z" />
    <glyph glyph-name="gbreve" unicode="&#x11f;" horiz-adv-x="605" 
d="M463 706q0 -66 -39.5 -104t-105.5 -38t-105.5 38t-39.5 104h58q0 -42 24 -65t63 -23t62.5 23t23.5 65h59zM288 477q41 0 73.5 -2t60.5 -5.5t52.5 -8t50.5 -9.5v-442q0 -58 -17 -105.5t-49 -81.5t-78.5 -52.5t-105.5 -18.5q-48 0 -91.5 10t-81.5 25l13 56q38 -12 78 -20.5
t80 -8.5q85 0 133.5 51t50.5 144q-29 -5 -51.5 -8t-42 -4.5t-38.5 -1.5h-41q-52 0 -94.5 17.5t-72.5 49t-46.5 75.5t-16.5 96q0 55 16 100t46.5 77t74 49.5t97.5 17.5zM297 418q-43 0 -76 -14t-55 -38.5t-33 -59t-11 -75.5q0 -38 12 -70.5t34 -56t53.5 -37t70.5 -13.5h35.5
t35.5 1.5t41.5 4t52.5 8.5v337q-44 7 -81 10t-79 3z" />
    <glyph glyph-name="Gdotaccent" unicode="&#x120;" horiz-adv-x="810" 
d="M428 772q-20 0 -34 13.5t-14 33.5t14 33t34 13t34 -13t14 -33t-14 -33.5t-34 -13.5zM738 54q-79 -35 -157 -52t-152 -17q-82 0 -149 25.5t-114.5 72t-73.5 112.5t-26 146q0 79 26.5 144.5t75.5 112t117.5 72t152.5 25.5q53 0 114.5 -8.5t120.5 -25.5l-15 -65
q-64 16 -119.5 23.5t-96.5 7.5q-68 0 -123.5 -20.5t-95.5 -58t-61.5 -90.5t-21.5 -117q0 -65 21 -118t59 -90.5t91 -58.5t118 -21q55 0 117 10.5t124 33.5v208h-272v66h340v-317z" />
    <glyph glyph-name="gdotaccent" unicode="&#x121;" horiz-adv-x="605" 
d="M318 582q-20 0 -34 13t-14 33t14 33.5t34 13.5t34 -13.5t14 -33.5t-14 -33t-34 -13zM288 477q41 0 73.5 -2t60.5 -5.5t52.5 -8t50.5 -9.5v-442q0 -58 -17 -105.5t-49 -81.5t-78.5 -52.5t-105.5 -18.5q-48 0 -91.5 10t-81.5 25l13 56q38 -12 78 -20.5t80 -8.5
q85 0 133.5 51t50.5 144q-29 -5 -51.5 -8t-42 -4.5t-38.5 -1.5h-41q-52 0 -94.5 17.5t-72.5 49t-46.5 75.5t-16.5 96q0 55 16 100t46.5 77t74 49.5t97.5 17.5zM297 418q-43 0 -76 -14t-55 -38.5t-33 -59t-11 -75.5q0 -38 12 -70.5t34 -56t53.5 -37t70.5 -13.5h35.5t35.5 1.5
t41.5 4t52.5 8.5v337q-44 7 -81 10t-79 3z" />
    <glyph glyph-name="uni0122" unicode="&#x122;" horiz-adv-x="810" 
d="M738 54q-79 -35 -157 -52t-152 -17q-82 0 -149 25.5t-114.5 72t-73.5 112.5t-26 146q0 79 26.5 144.5t75.5 112t117.5 72t152.5 25.5q53 0 114.5 -8.5t120.5 -25.5l-15 -65q-64 16 -119.5 23.5t-96.5 7.5q-68 0 -123.5 -20.5t-95.5 -58t-61.5 -90.5t-21.5 -117
q0 -65 21 -118t59 -90.5t91 -58.5t118 -21q55 0 117 10.5t124 33.5v208h-272v66h340v-317zM413 -147q-29 11 -29 39q0 17 12.5 29.5t31.5 12.5t32 -12.5t13 -29.5q0 -8 -1.5 -15t-7 -19.5t-16 -34.5t-28.5 -59h-42z" />
    <glyph glyph-name="uni0123" unicode="&#x123;" horiz-adv-x="605" 
d="M332 667q29 -11 29 -39q0 -17 -12.5 -29.5t-31.5 -12.5t-32 12.5t-13 29.5q0 8 1.5 15t7 19.5t16 34t28.5 59.5h42zM288 477q41 0 73.5 -2t60.5 -5.5t52.5 -8t50.5 -9.5v-442q0 -58 -17 -105.5t-49 -81.5t-78.5 -52.5t-105.5 -18.5q-48 0 -91.5 10t-81.5 25l13 56
q38 -12 78 -20.5t80 -8.5q85 0 133.5 51t50.5 144q-29 -5 -51.5 -8t-42 -4.5t-38.5 -1.5h-41q-52 0 -94.5 17.5t-72.5 49t-46.5 75.5t-16.5 96q0 55 16 100t46.5 77t74 49.5t97.5 17.5zM297 418q-43 0 -76 -14t-55 -38.5t-33 -59t-11 -75.5q0 -38 12 -70.5t34 -56t53.5 -37
t70.5 -13.5h35.5t35.5 1.5t41.5 4t52.5 8.5v337q-44 7 -81 10t-79 3z" />
    <glyph glyph-name="Hbar" unicode="&#x126;" horiz-adv-x="754" 
d="M654 502v-502h-71v304h-412v-304h-71v502h-48v59h48v119h71v-119h412v119h71v-119h49v-59h-49zM171 502v-133h412v133h-412z" />
    <glyph glyph-name="hbar" unicode="&#x127;" horiz-adv-x="610" 
d="M342 477q88 0 138 -50t50 -139v-288h-68v272q0 67 -35 104.5t-98 37.5q-39 0 -81.5 -4t-90.5 -17v-393h-68v584h-60v51h60v75h68v-75h170v-51h-170v-129q49 13 95.5 17.5t89.5 4.5z" />
    <glyph glyph-name="Imacron" unicode="&#x12a;" horiz-adv-x="271" 
d="M279 781h-288v55h288v-55zM171 0h-71v680h71v-680z" />
    <glyph glyph-name="imacron" unicode="&#x12b;" horiz-adv-x="251" 
d="M261 617h-271v56h271v-56zM159 0h-68v462h68v-462z" />
    <glyph glyph-name="Iogonek" unicode="&#x12e;" horiz-adv-x="271" 
d="M192 -190q-19 -7 -50 -7q-58 0 -93 28.5t-35 76.5q0 36 24.5 62t61.5 42v668h71v-680h-27q-33 -15 -52 -34t-19 -47t20.5 -44t57.5 -16q10 0 18 1t16 3z" />
    <glyph glyph-name="iogonek" unicode="&#x12f;" horiz-adv-x="251" 
d="M126 582q-20 0 -34 13t-14 33t14 33.5t34 13.5t34 -13.5t14 -33.5t-14 -33t-34 -13zM178 -193q-19 -7 -50 -7q-58 0 -93 28.5t-35 76.5q0 38 26.5 64t64.5 42v451h68v-462h-22q-36 -16 -57 -35.5t-21 -48.5q0 -28 20.5 -44t57.5 -16q10 0 18 1t16 3z" />
    <glyph glyph-name="Idotaccent" unicode="&#x130;" horiz-adv-x="271" 
d="M135 781q-22 0 -37.5 15t-15.5 37t15.5 36.5t37.5 14.5t37.5 -14.5t15.5 -36.5t-15.5 -37t-37.5 -15zM171 0h-71v680h71v-680z" />
    <glyph glyph-name="dotlessi" unicode="&#x131;" horiz-adv-x="251" 
d="M160 0h-69v462h69v-462z" />
    <glyph glyph-name="IJ" unicode="&#x132;" horiz-adv-x="843" 
d="M171 0h-71v680h71v-680zM753 249q0 -126 -62.5 -195t-171.5 -69q-56 0 -108.5 10.5t-113.5 32.5l15 63q62 -20 111 -29t96 -9q75 0 118.5 50.5t43.5 144.5v432h72v-431z" />
    <glyph glyph-name="ij" unicode="&#x133;" horiz-adv-x="500" 
d="M125 580q-21 0 -35.5 14t-14.5 35q0 22 14.5 36t35.5 14t35.5 -14t14.5 -36q0 -21 -14.5 -35t-35.5 -14zM377 679q21 0 35.5 -14t14.5 -36q0 -21 -14.5 -35t-35.5 -14t-36 14t-15 35q0 22 15 36t36 14zM159 0h-68v462h68v-462zM411 -37q0 -50 -8 -87.5t-28 -62t-54 -37
t-85 -12.5l-5 60q65 -2 88.5 30t23.5 102v506h68v-499z" />
    <glyph glyph-name="uni0136" unicode="&#x136;" horiz-adv-x="686" 
d="M171 0h-71v680h71v-330h72l299 330h89l-303 -334l329 -346h-90l-275 282h-121v-282zM309 -147q-29 11 -29 39q0 17 12.5 29.5t31.5 12.5t32 -12.5t13 -29.5q0 -8 -1.5 -15t-7 -19.5t-16 -34.5t-28.5 -59h-42z" />
    <glyph glyph-name="uni0137" unicode="&#x137;" horiz-adv-x="567" 
d="M221 265l195 197h86l-205 -206l237 -256h-84l-194 202h-100v-202h-68v710h68v-445h65zM259 -147q-29 11 -29 39q0 17 12.5 29.5t31.5 12.5t32 -12.5t13 -29.5q0 -8 -1.5 -15t-7 -19.5t-16 -34.5t-28.5 -59h-42z" />
    <glyph glyph-name="Lacute" unicode="&#x139;" horiz-adv-x="586" 
d="M179 744h-72l89 152h92zM100 0v680h71v-616h379v-64h-450z" />
    <glyph glyph-name="lacute" unicode="&#x13a;" horiz-adv-x="258" 
d="M163 754h-67l84 156h92zM163 0h-68v710h68v-710z" />
    <glyph glyph-name="uni013B" unicode="&#x13b;" horiz-adv-x="586" 
d="M100 0v680h71v-616h379v-64h-450zM306 -147q-29 11 -29 39q0 17 12.5 29.5t31.5 12.5t32 -12.5t13 -29.5q0 -8 -1.5 -15t-7 -19.5t-16 -34.5t-28.5 -59h-42z" />
    <glyph glyph-name="uni013C" unicode="&#x13c;" horiz-adv-x="258" 
d="M163 0h-68v710h68v-710zM111 -147q-29 11 -29 39q0 17 12.5 29.5t31.5 12.5t32 -12.5t13 -29.5q0 -8 -1.5 -15t-7 -19.5t-16 -34.5t-28.5 -59h-42z" />
    <glyph glyph-name="Lcaron" unicode="&#x13d;" horiz-adv-x="586" 
d="M100 0v680h71v-616h379v-64h-450zM333 484h-53l10 196h71z" />
    <glyph glyph-name="lcaron" unicode="&#x13e;" horiz-adv-x="258" 
d="M163 0h-68v710h68v-710zM261 514h-53l10 196h71z" />
    <glyph glyph-name="Ldot" unicode="&#x13f;" horiz-adv-x="586" 
d="M100 0v680h71v-616h379v-64h-450zM389 254q-20 0 -34 13t-14 33t14 33.5t34 13.5t34 -13.5t14 -33.5t-14 -33t-34 -13z" />
    <glyph glyph-name="ldot" unicode="&#x140;" horiz-adv-x="307" 
d="M163 0h-68v710h68v-710zM266 281q-20 0 -33.5 13t-13.5 33t13.5 33.5t33.5 13.5t34 -13.5t14 -33.5t-14 -33t-34 -13z" />
    <glyph glyph-name="Lslash" unicode="&#x141;" horiz-adv-x="586" 
d="M550 0h-450v242l-79 -39v61l79 39v377h71v-341l156 77v-62l-156 -77v-213h379v-64z" />
    <glyph glyph-name="lslash" unicode="&#x142;" horiz-adv-x="258" 
d="M163 322v-322h-68v288l-72 -36v61l72 36v361h68v-327l73 37v-61z" />
    <glyph glyph-name="Nacute" unicode="&#x143;" horiz-adv-x="781" 
d="M428 744h-72l89 152h92zM681 0h-72l-438 564v-564h-71v680h69l441 -566v566h71v-680z" />
    <glyph glyph-name="nacute" unicode="&#x144;" horiz-adv-x="609" 
d="M327 571h-67l84 156h92zM341 477q88 0 138 -50t50 -139v-288h-68v272q0 67 -35 104.5t-98 37.5q-38 0 -81 -3t-91 -11v-400h-68v452q25 6 56.5 10.5t64.5 7.5t67 5t65 2z" />
    <glyph glyph-name="uni0145" unicode="&#x145;" horiz-adv-x="781" 
d="M681 0h-72l-438 564v-564h-71v680h69l441 -566v566h71v-680zM367 -151q-29 11 -29 39q0 17 12.5 29.5t31.5 12.5t32 -12.5t13 -29.5q0 -8 -1.5 -15t-7 -19.5t-16 -34.5t-28.5 -59h-42z" />
    <glyph glyph-name="uni0146" unicode="&#x146;" horiz-adv-x="609" 
d="M341 477q88 0 138 -50t50 -139v-288h-68v272q0 67 -35 104.5t-98 37.5q-38 0 -81 -3t-91 -11v-400h-68v452q25 6 56.5 10.5t64.5 7.5t67 5t65 2zM283 -147q-29 11 -29 39q0 17 12.5 29.5t31.5 12.5t32 -12.5t13 -29.5q0 -8 -1.5 -15t-7 -19.5t-16 -34.5t-28.5 -59h-42z
" />
    <glyph glyph-name="Ncaron" unicode="&#x147;" horiz-adv-x="781" 
d="M354 739l-126 155h70l88 -106l88 106h70l-126 -155h-64zM681 0h-72l-438 564v-564h-71v680h69l441 -566v566h71v-680z" />
    <glyph glyph-name="ncaron" unicode="&#x148;" horiz-adv-x="609" 
d="M272 566l-126 155h70l88 -106l88 106h70l-126 -155h-64zM341 477q88 0 138 -50t50 -139v-288h-68v272q0 67 -35 104.5t-98 37.5q-38 0 -81 -3t-91 -11v-400h-68v452q25 6 56.5 10.5t64.5 7.5t67 5t65 2z" />
    <glyph glyph-name="Omacron" unicode="&#x14c;" horiz-adv-x="847" 
d="M567 781h-288v55h288v-55zM424 695q79 0 145 -25.5t113 -72t73 -112t26 -145.5t-26 -145.5t-73 -112t-113 -72t-145 -25.5q-80 0 -145.5 25.5t-113 72t-73.5 112t-26 145.5t26 145.5t73.5 112t113 72t145.5 25.5zM423 51q63 0 115 21t89.5 59t58.5 91t21 118t-21 118
t-58.5 91t-89.5 58.5t-115 20.5t-115 -20.5t-89.5 -58.5t-58 -91t-20.5 -118t20.5 -118t58 -91t89.5 -59t115 -21z" />
    <glyph glyph-name="omacron" unicode="&#x14d;" horiz-adv-x="614" 
d="M442 617h-271v56h271v-56zM307 480q55 0 101.5 -18t80.5 -50t52.5 -78t18.5 -101q0 -56 -18.5 -102t-52.5 -78.5t-80.5 -50.5t-101.5 -18q-56 0 -102 18t-80 50.5t-52.5 78.5t-18.5 102q0 55 18.5 101t52.5 78t80 50t102 18zM307 46q40 0 74 13.5t58 38t37.5 59
t13.5 76.5t-13.5 76t-37.5 58t-58 37t-74 13t-73.5 -13t-58 -37t-38 -58t-13.5 -76t13.5 -76.5t38 -59t58 -38t73.5 -13.5z" />
    <glyph glyph-name="Ohungarumlaut" unicode="&#x150;" horiz-adv-x="847" 
d="M394 744h-62l70 152h72zM532 744h-63l70 152h72zM424 695q79 0 145 -25.5t113 -72t73 -112t26 -145.5t-26 -145.5t-73 -112t-113 -72t-145 -25.5q-80 0 -145.5 25.5t-113 72t-73.5 112t-26 145.5t26 145.5t73.5 112t113 72t145.5 25.5zM423 51q63 0 115 21t89.5 59
t58.5 91t21 118t-21 118t-58.5 91t-89.5 58.5t-115 20.5t-115 -20.5t-89.5 -58.5t-58 -91t-20.5 -118t20.5 -118t58 -91t89.5 -59t115 -21z" />
    <glyph glyph-name="ohungarumlaut" unicode="&#x151;" horiz-adv-x="614" 
d="M267 566h-63l71 151h72zM404 566h-63l71 151h72zM307 480q55 0 101.5 -18t80.5 -50t52.5 -78t18.5 -101q0 -56 -18.5 -102t-52.5 -78.5t-80.5 -50.5t-101.5 -18q-56 0 -102 18t-80 50.5t-52.5 78.5t-18.5 102q0 55 18.5 101t52.5 78t80 50t102 18zM307 46q40 0 74 13.5
t58 38t37.5 59t13.5 76.5t-13.5 76t-37.5 58t-58 37t-74 13t-73.5 -13t-58 -37t-38 -58t-13.5 -76t13.5 -76.5t38 -59t58 -38t73.5 -13.5z" />
    <glyph glyph-name="OE" unicode="&#x152;" horiz-adv-x="1003" 
d="M893 373v-66h-360v-242h402v-65h-473q-91 0 -164.5 23.5t-125 67.5t-79 106.5t-27.5 142.5q0 79 27.5 142t79 107t125 67.5t164.5 23.5h473v-65h-402v-242h360zM140 340q0 -130 83 -201.5t239 -72.5v547q-156 -1 -239 -72t-83 -201z" />
    <glyph glyph-name="oe" unicode="&#x153;" horiz-adv-x="1006" 
d="M952 258q0 -17 -1 -26.5t-3 -26.5h-384q8 -72 54.5 -115t123.5 -43q45 0 84 7t87 19l10 -56q-45 -14 -87 -23t-95 -9q-77 0 -132 30t-85 82q-32 -54 -88.5 -83.5t-128.5 -29.5q-56 0 -102 18t-80 50.5t-52.5 78.5t-18.5 102q0 55 18.5 101t52.5 78t80 50t102 18
q73 0 129.5 -29.5t88.5 -83.5q30 52 83.5 81t122.5 29q49 0 89.5 -15t69.5 -43.5t45.5 -69t16.5 -91.5zM889 259q-1 76 -44 119t-113 43q-74 0 -119.5 -44t-50.5 -118h327zM307 46q40 0 74 13.5t58 38t37.5 59t13.5 76.5t-13.5 76t-37.5 58t-58 37t-74 13t-73.5 -13t-58 -37
t-38 -58t-13.5 -76t13.5 -76.5t38 -59t58 -38t73.5 -13.5z" />
    <glyph glyph-name="Racute" unicode="&#x154;" horiz-adv-x="658" 
d="M341 744h-72l89 152h92zM360 247q-13 -1 -26 -1.5t-27 -0.5h-136v-245h-71v680q51 2 107.5 4.5t116.5 2.5q59 0 107.5 -14t83 -41.5t53.5 -68t19 -93.5q0 -78 -42 -130.5t-114 -75.5l196 -264h-86zM330 308q41 0 75.5 11t59 32t38.5 51t14 68q0 78 -52.5 115t-138.5 37
q-40 0 -76 -0.5t-79 -2.5v-311h159z" />
    <glyph glyph-name="racute" unicode="&#x155;" horiz-adv-x="387" 
d="M240 571h-67l84 156h92zM345 406q-50 0 -94 -2t-95 -8v-396h-68v449q63 11 127.5 17.5t129.5 6.5v-67z" />
    <glyph glyph-name="uni0156" unicode="&#x156;" horiz-adv-x="658" 
d="M360 247q-13 -1 -26 -1.5t-27 -0.5h-136v-245h-71v680q51 2 107.5 4.5t116.5 2.5q59 0 107.5 -14t83 -41.5t53.5 -68t19 -93.5q0 -78 -42 -130.5t-114 -75.5l196 -264h-86zM330 308q41 0 75.5 11t59 32t38.5 51t14 68q0 78 -52.5 115t-138.5 37q-40 0 -76 -0.5t-79 -2.5
v-311h159zM320 -147q-29 11 -29 39q0 17 12.5 29.5t31.5 12.5t32 -12.5t13 -29.5q0 -8 -1.5 -15t-7 -19.5t-16 -34.5t-28.5 -59h-42z" />
    <glyph glyph-name="uni0157" unicode="&#x157;" horiz-adv-x="387" 
d="M345 406q-50 0 -94 -2t-95 -8v-396h-68v449q63 11 127.5 17.5t129.5 6.5v-67zM105 -147q-29 11 -29 39q0 17 12.5 29.5t31.5 12.5t32 -12.5t13 -29.5q0 -8 -1.5 -15t-7 -19.5t-16 -34.5t-28.5 -59h-42z" />
    <glyph glyph-name="Rcaron" unicode="&#x158;" horiz-adv-x="658" 
d="M267 739l-126 155h70l88 -106l88 106h70l-126 -155h-64zM360 247q-13 -1 -26 -1.5t-27 -0.5h-136v-245h-71v680q51 2 107.5 4.5t116.5 2.5q59 0 107.5 -14t83 -41.5t53.5 -68t19 -93.5q0 -78 -42 -130.5t-114 -75.5l196 -264h-86zM330 308q41 0 75.5 11t59 32t38.5 51
t14 68q0 78 -52.5 115t-138.5 37q-40 0 -76 -0.5t-79 -2.5v-311h159z" />
    <glyph glyph-name="rcaron" unicode="&#x159;" horiz-adv-x="387" 
d="M185 566l-126 155h70l88 -106l88 106h70l-126 -155h-64zM345 406q-50 0 -94 -2t-95 -8v-396h-68v449q63 11 127.5 17.5t129.5 6.5v-67z" />
    <glyph glyph-name="Sacute" unicode="&#x15a;" horiz-adv-x="682" 
d="M388 744h-72l89 152h92zM565 590q-58 17 -119 27.5t-110 10.5q-74 0 -118.5 -32.5t-44.5 -92.5q0 -26 10 -44t31 -31.5t54 -23.5t78 -19q57 -12 104.5 -26t82 -35.5t53.5 -54.5t19 -83q0 -49 -18.5 -86.5t-52.5 -63t-80.5 -38.5t-101.5 -13q-66 0 -141 15t-142 42l19 66
q68 -28 137.5 -42.5t129.5 -14.5q79 0 128.5 33t49.5 96q0 39 -20 63t-52.5 39t-73 24t-81.5 18q-57 12 -96.5 26.5t-64 35t-36 48.5t-11.5 66q0 45 17 80.5t48.5 60t76 38t98.5 13.5q32 0 65.5 -3t65.5 -8.5t61.5 -13t53.5 -16.5z" />
    <glyph glyph-name="sacute" unicode="&#x15b;" horiz-adv-x="518" 
d="M282 570h-67l84 156h92zM77 88q50 -22 101 -34t93 -12q53 0 87 20.5t34 59.5q0 22 -12 36t-33.5 23.5t-50.5 16t-63 13.5q-75 16 -113.5 43.5t-38.5 84.5q0 66 48.5 101.5t134.5 35.5q46 0 94 -9.5t84 -22.5l-18 -54q-42 14 -86 22t-79 8q-54 0 -82.5 -20t-28.5 -58
q0 -18 8 -30t23.5 -20t38.5 -14.5t53 -13.5q41 -9 75 -18.5t58.5 -24.5t38 -37t13.5 -56q0 -36 -14 -62.5t-39 -44.5t-59.5 -27t-76.5 -9q-48 0 -102.5 12.5t-103.5 33.5z" />
    <glyph glyph-name="Scedilla" unicode="&#x15e;" horiz-adv-x="682" 
d="M565 590q-58 17 -119 27.5t-110 10.5q-74 0 -118.5 -32.5t-44.5 -92.5q0 -26 10 -44t31 -31.5t54 -23.5t78 -19q57 -12 104.5 -26t82 -35.5t53.5 -54.5t19 -83q0 -49 -18.5 -86.5t-52.5 -63t-80.5 -38.5t-101.5 -13q-66 0 -141 15t-142 42l19 66q68 -28 137.5 -42.5
t129.5 -14.5q79 0 128.5 33t49.5 96q0 39 -20 63t-52.5 39t-73 24t-81.5 18q-57 12 -96.5 26.5t-64 35t-36 48.5t-11.5 66q0 45 17 80.5t48.5 60t76 38t98.5 13.5q32 0 65.5 -3t65.5 -8.5t61.5 -13t53.5 -16.5zM260 -204l51 154h67l-59 -154h-59z" />
    <glyph glyph-name="scedilla" unicode="&#x15f;" horiz-adv-x="518" 
d="M77 88q50 -22 101 -34t93 -12q53 0 87 20.5t34 59.5q0 22 -12 36t-33.5 23.5t-50.5 16t-63 13.5q-75 16 -113.5 43.5t-38.5 84.5q0 66 48.5 101.5t134.5 35.5q46 0 94 -9.5t84 -22.5l-18 -54q-42 14 -86 22t-79 8q-54 0 -82.5 -20t-28.5 -58q0 -18 8 -30t23.5 -20
t38.5 -14.5t53 -13.5q41 -9 75 -18.5t58.5 -24.5t38 -37t13.5 -56q0 -36 -14 -62.5t-39 -44.5t-59.5 -27t-76.5 -9q-48 0 -102.5 12.5t-103.5 33.5zM175 -204l51 154h67l-59 -154h-59z" />
    <glyph glyph-name="Scaron" unicode="&#x160;" horiz-adv-x="682" 
d="M315 739l-126 155h70l88 -106l88 106h70l-126 -155h-64zM565 590q-58 17 -119 27.5t-110 10.5q-74 0 -118.5 -32.5t-44.5 -92.5q0 -26 10 -44t31 -31.5t54 -23.5t78 -19q57 -12 104.5 -26t82 -35.5t53.5 -54.5t19 -83q0 -49 -18.5 -86.5t-52.5 -63t-80.5 -38.5
t-101.5 -13q-66 0 -141 15t-142 42l19 66q68 -28 137.5 -42.5t129.5 -14.5q79 0 128.5 33t49.5 96q0 39 -20 63t-52.5 39t-73 24t-81.5 18q-57 12 -96.5 26.5t-64 35t-36 48.5t-11.5 66q0 45 17 80.5t48.5 60t76 38t98.5 13.5q32 0 65.5 -3t65.5 -8.5t61.5 -13t53.5 -16.5z
" />
    <glyph glyph-name="scaron" unicode="&#x161;" horiz-adv-x="518" 
d="M227 565l-126 155h70l88 -106l88 106h70l-126 -155h-64zM77 88q50 -22 101 -34t93 -12q53 0 87 20.5t34 59.5q0 22 -12 36t-33.5 23.5t-50.5 16t-63 13.5q-75 16 -113.5 43.5t-38.5 84.5q0 66 48.5 101.5t134.5 35.5q46 0 94 -9.5t84 -22.5l-18 -54q-42 14 -86 22t-79 8
q-54 0 -82.5 -20t-28.5 -58q0 -18 8 -30t23.5 -20t38.5 -14.5t53 -13.5q41 -9 75 -18.5t58.5 -24.5t38 -37t13.5 -56q0 -36 -14 -62.5t-39 -44.5t-59.5 -27t-76.5 -9q-48 0 -102.5 12.5t-103.5 33.5z" />
    <glyph glyph-name="Tcaron" unicode="&#x164;" horiz-adv-x="669" 
d="M302 739l-126 155h70l88 -106l88 106h70l-126 -155h-64zM370 0h-71v615h-269v65h609v-65h-269v-615z" />
    <glyph glyph-name="tcaron" unicode="&#x165;" horiz-adv-x="434" 
d="M311 540h-53l10 196h71zM392 -2q-28 -7 -50.5 -10t-52.5 -3q-80 0 -118.5 42.5t-38.5 133.5v239h-106v62h106v194h68v-194h165v-62h-165v-233q0 -63 23 -91.5t77 -28.5q19 0 39.5 2t43.5 6z" />
    <glyph glyph-name="Umacron" unicode="&#x16a;" horiz-adv-x="763" 
d="M525 781h-288v55h288v-55zM673 273q0 -66 -21 -119.5t-59.5 -91t-92 -57.5t-119.5 -20q-65 0 -119 20t-92 57.5t-59 91t-21 119.5v407h71v-407q0 -51 16 -92t44.5 -70t69 -44.5t90.5 -15.5t90.5 15.5t69.5 44.5t45 70t16 92v407h71v-407z" />
    <glyph glyph-name="umacron" unicode="&#x16b;" horiz-adv-x="611" 
d="M440 617h-271v56h271v-56zM524 10q-26 -6 -57 -10.5t-64 -8t-67 -5t-65 -1.5q-88 0 -138 46t-50 143v288h68v-275q0 -70 34 -106.5t99 -36.5q38 0 81 3t91 11v404h68v-452z" />
    <glyph glyph-name="Uring" unicode="&#x16e;" horiz-adv-x="763" 
d="M382 917q42 0 69.5 -25.5t27.5 -68.5q0 -42 -27.5 -67.5t-69.5 -25.5t-69.5 25.5t-27.5 67.5q0 43 27.5 68.5t69.5 25.5zM382 769q23 0 39 15t16 39q0 25 -16 40.5t-39 15.5t-39 -15.5t-16 -40.5q0 -24 16 -39t39 -15zM673 273q0 -66 -21 -119.5t-59.5 -91t-92 -57.5
t-119.5 -20q-65 0 -119 20t-92 57.5t-59 91t-21 119.5v407h71v-407q0 -51 16 -92t44.5 -70t69 -44.5t90.5 -15.5t90.5 15.5t69.5 44.5t45 70t16 92v407h71v-407z" />
    <glyph glyph-name="uring" unicode="&#x16f;" horiz-adv-x="611" 
d="M306 739q42 0 69.5 -25.5t27.5 -68.5q0 -42 -27.5 -68t-69.5 -26t-69.5 26t-27.5 68q0 43 27.5 68.5t69.5 25.5zM306 590q23 0 39 15t16 40t-16 40t-39 15t-39 -15t-16 -40t16 -40t39 -15zM524 10q-26 -6 -57 -10.5t-64 -8t-67 -5t-65 -1.5q-88 0 -138 46t-50 143v288h68
v-275q0 -70 34 -106.5t99 -36.5q38 0 81 3t91 11v404h68v-452z" />
    <glyph glyph-name="Uhungarumlaut" unicode="&#x170;" horiz-adv-x="763" 
d="M353 744h-62l70 152h72zM491 744h-63l70 152h72zM673 273q0 -66 -21 -119.5t-59.5 -91t-92 -57.5t-119.5 -20q-65 0 -119 20t-92 57.5t-59 91t-21 119.5v407h71v-407q0 -51 16 -92t44.5 -70t69 -44.5t90.5 -15.5t90.5 15.5t69.5 44.5t45 70t16 92v407h71v-407z" />
    <glyph glyph-name="uhungarumlaut" unicode="&#x171;" horiz-adv-x="611" 
d="M265 566h-63l70 151h72zM402 566h-63l70 151h72zM524 10q-26 -6 -57 -10.5t-64 -8t-67 -5t-65 -1.5q-88 0 -138 46t-50 143v288h68v-275q0 -70 34 -106.5t99 -36.5q38 0 81 3t91 11v404h68v-452z" />
    <glyph glyph-name="Uogonek" unicode="&#x172;" horiz-adv-x="763" 
d="M673 273q0 -56 -15 -102.5t-43.5 -82.5t-68.5 -60.5t-89 -34.5q-34 -16 -53.5 -34.5t-19.5 -47.5q0 -28 20.5 -44t57.5 -16q10 0 18 1t16 3l7 -53q-19 -7 -50 -7q-58 0 -93 28.5t-35 76.5q0 27 14 48t37 37q-64 1 -117 21.5t-90.5 58t-58 90.5t-20.5 118v407h71v-407
q0 -51 16 -92t44.5 -70t69 -44.5t90.5 -15.5t90.5 15.5t69.5 44.5t45 70t16 92v407h71v-407z" />
    <glyph glyph-name="uogonek" unicode="&#x173;" horiz-adv-x="611" 
d="M558 -186q-19 -7 -50 -7q-58 0 -93 28.5t-35 76.5q0 26 13 46.5t34 35.5q-38 -5 -78.5 -7t-77.5 -2q-88 0 -138 46t-50 143v288h68v-275q0 -70 34 -106.5t99 -36.5q38 0 81 3t91 11v404h68v-452q-39 -17 -62 -36.5t-23 -50.5q0 -28 20.5 -44t57.5 -16q10 0 18 1t16 3z
" />
    <glyph glyph-name="Wcircumflex" unicode="&#x174;" horiz-adv-x="1057" 
d="M440 744h-69l126 152h64l126 -152h-69l-89 104zM720 0l-191 562l-192 -562h-67l-233 680h75l193 -571l192 571h62l193 -570l192 570h76l-233 -680h-67z" />
    <glyph glyph-name="wcircumflex" unicode="&#x175;" horiz-adv-x="823" 
d="M322 568h-69l126 149h64l126 -149h-69l-89 100zM542 0l-131 362l-130 -362h-67l-169 462h70l135 -367l134 367h56l132 -368l136 368h70l-169 -462h-67z" />
    <glyph glyph-name="Ycircumflex" unicode="&#x176;" horiz-adv-x="694" 
d="M258 744h-69l126 152h64l126 -152h-69l-89 104zM26 680h81l240 -364l241 364h80l-285 -437v-243h-71v243z" />
    <glyph glyph-name="ycircumflex" unicode="&#x177;" horiz-adv-x="616" 
d="M150 568l126 149h64l126 -149h-69l-89 100l-89 -100h-69zM229 -225h-77l127 249l-238 438h78l197 -365l187 365h77z" />
    <glyph glyph-name="Ydieresis" unicode="&#x178;" horiz-adv-x="694" 
d="M242 772q-20 0 -34 13.5t-14 33.5t14 33t34 13t34 -13t14 -33t-14 -33.5t-34 -13.5zM452 772q-20 0 -34 13.5t-14 33.5t14 33t34 13t34 -13t14 -33t-14 -33.5t-34 -13.5zM26 680h81l240 -364l241 364h80l-285 -437v-243h-71v243z" />
    <glyph glyph-name="Zacute" unicode="&#x179;" horiz-adv-x="663" 
d="M373 744h-72l89 152h92zM167 65h428v-65h-530v46l430 569h-418v65h515v-46z" />
    <glyph glyph-name="zacute" unicode="&#x17a;" horiz-adv-x="496" 
d="M268 571h-67l84 156h92zM150 60h298v-60h-396v36l293 366h-283v60h377v-41z" />
    <glyph glyph-name="Zdotaccent" unicode="&#x17b;" horiz-adv-x="663" 
d="M332 772q-20 0 -34 13.5t-14 33.5t14 33t34 13t34 -13t14 -33t-14 -33.5t-34 -13.5zM167 65h428v-65h-530v46l430 569h-418v65h515v-46z" />
    <glyph glyph-name="zdotaccent" unicode="&#x17c;" horiz-adv-x="496" 
d="M246 582q-20 0 -34 13t-14 33t14 33.5t34 13.5t34 -13.5t14 -33.5t-14 -33t-34 -13zM150 60h298v-60h-396v36l293 366h-283v60h377v-41z" />
    <glyph glyph-name="Zcaron" unicode="&#x17d;" horiz-adv-x="663" 
d="M300 739l-126 155h70l88 -106l88 106h70l-126 -155h-64zM167 65h428v-65h-530v46l430 569h-418v65h515v-46z" />
    <glyph glyph-name="zcaron" unicode="&#x17e;" horiz-adv-x="496" 
d="M213 566l-126 155h70l88 -106l88 106h70l-126 -155h-64zM150 60h298v-60h-396v36l293 366h-283v60h377v-41z" />
    <glyph glyph-name="florin" unicode="&#x192;" horiz-adv-x="543" 
d="M405 695q22 0 44.5 -4t45.5 -10l-12 -56q-20 4 -38 6t-38 2q-25 0 -42 -7t-28 -22t-18 -39t-11 -57l-14 -104h188v-62h-197l-23 -172q-6 -48 -17.5 -82.5t-31 -57.5t-48 -34t-68.5 -11q-22 0 -44.5 4t-45.5 10l12 56q20 -4 38 -6t38 -2q25 0 42 7t28 22t17.5 39t11.5 57
l23 170h-127v62h136l14 106q6 47 17.5 82t31 58t47.5 34t69 11z" />
    <glyph glyph-name="uni01CD" unicode="&#x1cd;" horiz-adv-x="760" 
d="M348 739l-126 155h70l88 -106l88 106h70l-126 -155h-64zM117 0h-80l309 685h68l309 -685h-79l-74 166h-380zM218 230h323l-161 364z" />
    <glyph glyph-name="uni01CE" unicode="&#x1ce;" horiz-adv-x="610" 
d="M283 566l-126 155h70l88 -106l88 106h70l-126 -155h-64zM288 477q33 0 61 -1.5t55.5 -4.5t56.5 -7.5t64 -11.5v-452h-68v41q-44 -29 -84.5 -42.5t-88.5 -13.5q-52 0 -94.5 18t-72.5 50.5t-46.5 78t-16.5 101.5q0 55 16.5 100t46.5 77t73.5 49.5t97.5 17.5zM297 418
q-43 0 -76 -14t-55 -38.5t-33 -59t-11 -75.5q0 -42 12 -76t34 -59t53.5 -38.5t70.5 -13.5q42 0 80 12.5t85 43.5v305q-44 7 -81 10t-79 3z" />
    <glyph glyph-name="uni0218" unicode="&#x218;" horiz-adv-x="682" 
d="M565 590q-58 17 -119 27.5t-110 10.5q-74 0 -118.5 -32.5t-44.5 -92.5q0 -26 10 -44t31 -31.5t54 -23.5t78 -19q57 -12 104.5 -26t82 -35.5t53.5 -54.5t19 -83q0 -49 -18.5 -86.5t-52.5 -63t-80.5 -38.5t-101.5 -13q-66 0 -141 15t-142 42l19 66q68 -28 137.5 -42.5
t129.5 -14.5q79 0 128.5 33t49.5 96q0 39 -20 63t-52.5 39t-73 24t-81.5 18q-57 12 -96.5 26.5t-64 35t-36 48.5t-11.5 66q0 45 17 80.5t48.5 60t76 38t98.5 13.5q32 0 65.5 -3t65.5 -8.5t61.5 -13t53.5 -16.5zM317 -147q-29 11 -29 39q0 17 12.5 29.5t31.5 12.5t32 -12.5
t13 -29.5q0 -8 -1.5 -15t-7 -19.5t-16 -34.5t-28.5 -59h-42z" />
    <glyph glyph-name="uni0219" unicode="&#x219;" horiz-adv-x="518" 
d="M77 88q50 -22 101 -34t93 -12q53 0 87 20.5t34 59.5q0 22 -12 36t-33.5 23.5t-50.5 16t-63 13.5q-75 16 -113.5 43.5t-38.5 84.5q0 66 48.5 101.5t134.5 35.5q46 0 94 -9.5t84 -22.5l-18 -54q-42 14 -86 22t-79 8q-54 0 -82.5 -20t-28.5 -58q0 -18 8 -30t23.5 -20
t38.5 -14.5t53 -13.5q41 -9 75 -18.5t58.5 -24.5t38 -37t13.5 -56q0 -36 -14 -62.5t-39 -44.5t-59.5 -27t-76.5 -9q-48 0 -102.5 12.5t-103.5 33.5zM246 -147q-29 11 -29 39q0 17 12.5 29.5t31.5 12.5t32 -12.5t13 -29.5q0 -8 -1.5 -15t-7 -19.5t-16 -34.5t-28.5 -59h-42z
" />
    <glyph glyph-name="uni021A" unicode="&#x21a;" horiz-adv-x="669" 
d="M370 0h-71v615h-269v65h609v-65h-269v-615zM318 -147q-29 11 -29 39q0 17 12.5 29.5t31.5 12.5t32 -12.5t13 -29.5q0 -8 -1.5 -15t-7 -19.5t-16 -34.5t-28.5 -59h-42z" />
    <glyph glyph-name="uni021B" unicode="&#x21b;" horiz-adv-x="434" 
d="M392 -2q-28 -7 -50.5 -10t-52.5 -3q-80 0 -118.5 42.5t-38.5 133.5v239h-106v62h106v194h68v-194h165v-62h-165v-233q0 -63 23 -91.5t77 -28.5q19 0 39.5 2t43.5 6zM232 -147q-29 11 -29 39q0 17 12.5 29.5t31.5 12.5t32 -12.5t13 -29.5q0 -8 -1.5 -15t-7 -19.5
t-16 -34.5t-28.5 -59h-42z" />
    <glyph glyph-name="circumflex" unicode="&#x2c6;" 
d="M211 568h-69l126 149h64l126 -149h-69l-89 100z" />
    <glyph glyph-name="caron" unicode="&#x2c7;" 
d="M268 566l-126 155h70l88 -106l88 106h70l-126 -155h-64z" />
    <glyph glyph-name="breve" unicode="&#x2d8;" 
d="M445 706q0 -66 -39.5 -104t-105.5 -38t-105.5 38t-39.5 104h58q0 -42 24 -65t63 -23t62.5 23t23.5 65h59z" />
    <glyph glyph-name="dotaccent" unicode="&#x2d9;" 
d="M300 582q-20 0 -34 13t-14 33t14 33.5t34 13.5t34 -13.5t14 -33.5t-14 -33t-34 -13z" />
    <glyph glyph-name="ring" unicode="&#x2da;" 
d="M299 739q42 0 69.5 -25.5t27.5 -68.5q0 -42 -27.5 -68t-69.5 -26t-69.5 26t-27.5 68q0 43 27.5 68.5t69.5 25.5zM299 590q23 0 39 15t16 40t-16 40t-39 15t-39 -15t-16 -40t16 -40t39 -15z" />
    <glyph glyph-name="ogonek" unicode="&#x2db;" 
d="M365 11q-39 -17 -62 -36.5t-23 -50.5q0 -28 20.5 -44t57.5 -16q10 0 18 1t16 3l7 -53q-19 -7 -50 -7q-58 0 -93 28.5t-35 76.5q0 24 11 43t29.5 34t43 25.5t50.5 16.5z" />
    <glyph glyph-name="tilde" unicode="&#x2dc;" 
d="M457 674q0 -36 -14.5 -58t-36 -31.5t-45.5 -7.5t-42 14l-55 36q-24 16 -45.5 6t-21.5 -39h-54q0 36 14.5 58t36 31t45.5 7t42 -13l55 -36q24 -16 45 -6t21 39h55z" />
    <glyph glyph-name="hungarumlaut" unicode="&#x2dd;" 
d="M265 566h-63l71 151h72zM402 566h-63l71 151h72z" />
    <glyph glyph-name="uni0326" unicode="&#x326;" horiz-adv-x="0" 
d="M286 -164q-29 11 -29 39q0 17 12.5 29.5t31.5 12.5t32 -12.5t13 -29.5q0 -8 -1.5 -15t-7 -19.5t-16 -34.5t-28.5 -59h-42z" />
    <glyph glyph-name="Wgrave" unicode="&#x1e80;" horiz-adv-x="1057" 
d="M495 744l-109 152h92l84 -152h-67zM720 0l-191 562l-192 -562h-67l-233 680h75l193 -571l192 571h62l193 -570l192 570h76l-233 -680h-67z" />
    <glyph glyph-name="wgrave" unicode="&#x1e81;" horiz-adv-x="823" 
d="M368 571l-109 156h92l85 -156h-68zM542 0l-131 362l-130 -362h-67l-169 462h70l135 -367l134 367h56l132 -368l136 368h70l-169 -462h-67z" />
    <glyph glyph-name="Wacute" unicode="&#x1e82;" horiz-adv-x="1057" 
d="M570 744h-72l89 152h92zM720 0l-191 562l-192 -562h-67l-233 680h75l193 -571l192 571h62l193 -570l192 570h76l-233 -680h-67z" />
    <glyph glyph-name="wacute" unicode="&#x1e83;" horiz-adv-x="823" 
d="M455 571h-67l84 156h93zM542 0l-131 362l-130 -362h-67l-169 462h70l135 -367l134 367h56l132 -368l136 368h70l-169 -462h-67z" />
    <glyph glyph-name="Wdieresis" unicode="&#x1e84;" horiz-adv-x="1057" 
d="M424 772q-20 0 -34 13.5t-14 33.5t14 33t34 13t34 -13t14 -33t-14 -33.5t-34 -13.5zM634 772q-20 0 -34 13.5t-14 33.5t14 33t34 13t34 -13t14 -33t-14 -33.5t-34 -13.5zM720 0l-191 562l-192 -562h-67l-233 680h75l193 -571l192 571h62l193 -570l192 570h76l-233 -680
h-67z" />
    <glyph glyph-name="wdieresis" unicode="&#x1e85;" horiz-adv-x="823" 
d="M307 675q20 0 34 -13.5t14 -33.5t-14 -33t-34 -13t-34 13t-14 33t14 33.5t34 13.5zM517 675q20 0 34 -13.5t14 -33.5t-14 -33t-34 -13t-34 13t-14 33t14 33.5t34 13.5zM542 0l-131 362l-130 -362h-67l-169 462h70l135 -367l134 367h56l132 -368l136 368h70l-169 -462h-67
z" />
    <glyph glyph-name="Ygrave" unicode="&#x1ef2;" horiz-adv-x="694" 
d="M314 744l-109 152h92l84 -152h-67zM26 680h81l240 -364l241 364h80l-285 -437v-243h-71v243z" />
    <glyph glyph-name="ygrave" unicode="&#x1ef3;" horiz-adv-x="616" 
d="M181 727h92l85 -156h-68zM229 -225h-77l127 249l-238 438h78l197 -365l187 365h77z" />
    <glyph glyph-name="uni2009" unicode="&#x2009;" horiz-adv-x="167" 
 />
    <glyph glyph-name="endash" unicode="&#x2013;" horiz-adv-x="657" 
d="M577 238h-497v68h497v-68z" />
    <glyph glyph-name="emdash" unicode="&#x2014;" horiz-adv-x="931" 
d="M851 238h-771v68h771v-68z" />
    <glyph glyph-name="quoteleft" unicode="&#x2018;" horiz-adv-x="272" 
d="M147 623q35 -12 35 -45q0 -23 -15.5 -37.5t-38.5 -14.5t-38.5 14.5t-15.5 37.5q0 9 2 17.5t9.5 26.5t22.5 51t42 91h51z" />
    <glyph glyph-name="quoteright" unicode="&#x2019;" horiz-adv-x="274" 
d="M118 667q-35 12 -35 45q0 22 15.5 37t38.5 15t38.5 -15t15.5 -37q0 -9 -2 -18t-9.5 -27t-22.5 -51t-41 -91h-51z" />
    <glyph glyph-name="quotesinglbase" unicode="&#x201a;" horiz-adv-x="274" 
d="M118 -5q-34 12 -34 45q0 23 15.5 37.5t38.5 14.5t38.5 -14.5t15.5 -37.5q0 -9 -2 -17.5t-9.5 -26.5t-23 -51t-41.5 -91h-51z" />
    <glyph glyph-name="quotedblleft" unicode="&#x201c;" horiz-adv-x="444" 
d="M144 622q34 -12 34 -45q0 -22 -15.5 -37t-37.5 -15q-23 0 -39 15t-16 37q0 9 2 18t9.5 27t23 51t41.5 91h51zM313 622q35 -12 35 -45q0 -22 -15.5 -37t-38.5 -15t-38.5 15t-15.5 37q0 9 2 18t9.5 27t22.5 51t41 91h51z" />
    <glyph glyph-name="quotedblright" unicode="&#x201d;" horiz-adv-x="444" 
d="M143 771q23 0 38.5 -15t15.5 -38q0 -9 -2 -17.5t-9.5 -26.5t-23 -51t-41.5 -91h-51l54 142q-35 12 -35 44q0 23 15.5 38t38.5 15zM312 771q23 0 38.5 -15t15.5 -38q0 -9 -2 -17.5t-9.5 -26.5t-22.5 -51t-41 -91h-51l53 142q-35 12 -35 44q0 23 15.5 38t38.5 15z" />
    <glyph glyph-name="quotedblbase" unicode="&#x201e;" horiz-adv-x="446" 
d="M118 -5q-34 12 -34 45q0 23 15.5 37.5t38.5 14.5t38.5 -14.5t15.5 -37.5q0 -9 -2 -17.5t-9.5 -26.5t-23 -51t-41.5 -91h-51zM290 -5q-35 12 -35 45q0 23 16 37.5t38 14.5q23 0 39 -14.5t16 -37.5q0 -9 -2 -17.5t-9.5 -26.5t-23 -51t-41.5 -91h-51z" />
    <glyph glyph-name="dagger" unicode="&#x2020;" horiz-adv-x="406" 
d="M227 331h-49v220h-124v49h124v124h49v-124h125v-49h-125v-220z" />
    <glyph glyph-name="daggerdbl" unicode="&#x2021;" horiz-adv-x="406" 
d="M352 492v-49h-125v-112h-49v112h-124v49h124v80h-124v48h124v104h49v-104h125v-48h-125v-80h125z" />
    <glyph glyph-name="bullet" unicode="&#x2022;" horiz-adv-x="317" 
d="M158 184q-24 0 -45 8.5t-36 24t-24 36t-9 44.5t9 44.5t24 36t36 24t45 8.5t45 -8.5t36.5 -24t24 -36t8.5 -44.5t-8.5 -44.5t-24 -36t-36.5 -24t-45 -8.5z" />
    <glyph glyph-name="ellipsis" unicode="&#x2026;" horiz-adv-x="715" 
d="M137 -13q-23 0 -38.5 15t-15.5 38t15.5 37.5t38.5 14.5t38.5 -14.5t15.5 -37.5t-15.5 -38t-38.5 -15zM355 -13q-23 0 -38.5 15t-15.5 38t15.5 37.5t38.5 14.5t38.5 -14.5t15.5 -37.5t-15.5 -38t-38.5 -15zM578 -13q-23 0 -38.5 15t-15.5 38t15.5 37.5t38.5 14.5
t38.5 -14.5t15.5 -37.5t-15.5 -38t-38.5 -15z" />
    <glyph glyph-name="perthousand" unicode="&#x2030;" horiz-adv-x="1511" 
d="M276 695q40 0 74 -13.5t59 -38.5t39 -60t14 -77q0 -43 -14 -78t-39 -59.5t-59 -38t-74 -13.5q-39 0 -73 13.5t-59 38t-39 59.5t-14 78q0 42 14 77t39 60t59 38.5t73 13.5zM290 0l453 680h44l-453 -680h-44zM276 643q-27 0 -51 -10t-42 -28t-28 -43t-10 -56t10 -56t28 -43
t42 -28t51 -10q28 0 52 10t41.5 28t27.5 43t10 56t-10 56t-27.5 43t-41.5 28t-52 10zM800 363q39 0 73 -13.5t59 -38t39 -59.5t14 -77q0 -43 -14 -78t-39 -60t-59 -38.5t-73 -13.5t-73 13.5t-59 38.5t-39 60t-14 78q0 42 14 77t39 59.5t59 38t73 13.5zM1235 363
q39 0 73 -13.5t59 -38t39 -59.5t14 -77q0 -43 -14 -78t-39 -60t-59 -38.5t-73 -13.5q-40 0 -74 13.5t-59 38.5t-39 60t-14 78q0 42 14 77t39 59.5t59 38t74 13.5zM800 311q-27 0 -51 -9.5t-42 -27.5t-28 -43t-10 -56t10 -56.5t28 -43.5t42 -28t51 -10t51 10t42 28t28 43.5
t10 56.5t-10 56t-28 43t-42 27.5t-51 9.5zM1234 311q-28 0 -52 -9.5t-41.5 -27.5t-27.5 -43t-10 -56q0 -63 37.5 -100.5t93.5 -37.5t93.5 37.5t37.5 100.5q0 31 -10 56t-27.5 43t-41.5 27.5t-52 9.5z" />
    <glyph glyph-name="guilsinglleft" unicode="&#x2039;" horiz-adv-x="350" 
d="M237 49l-186 197l186 196l40 -32l-146 -162l145 -162z" />
    <glyph glyph-name="guilsinglright" unicode="&#x203a;" horiz-adv-x="350" 
d="M113 442l185 -196l-185 -197l-39 37l144 162l-145 162z" />
    <glyph glyph-name="fraction" unicode="&#x2044;" horiz-adv-x="450" 
d="M-26 0l453 680h44l-453 -680h-44z" />
    <glyph glyph-name="uni2070" unicode="&#x2070;" horiz-adv-x="462" 
d="M231 687q42 0 76.5 -14t58.5 -39.5t37.5 -61.5t13.5 -79q0 -44 -13.5 -80t-37.5 -61.5t-58.5 -39.5t-76.5 -14t-76.5 14t-59 39.5t-38 61.5t-13.5 80q0 43 13.5 79t38 61.5t59 39.5t76.5 14zM231 347q59 0 95.5 40t36.5 106q0 65 -36.5 105t-95.5 40t-95 -40t-36 -105
q0 -66 36 -106t95 -40z" />
    <glyph glyph-name="uni2074" unicode="&#x2074;" horiz-adv-x="398" 
d="M372 438v-47h-58v-83h-54v83h-231v39l228 250h57v-242h58zM260 438v179l-161 -179h161z" />
    <glyph glyph-name="uni2075" unicode="&#x2075;" horiz-adv-x="380" 
d="M195 535q67 -3 102.5 -32.5t35.5 -80.5q0 -55 -40 -88.5t-103 -33.5q-83 0 -146 31l17 46q32 -14 62 -21.5t64 -7.5q42 0 69 19.5t27 52.5q0 29 -25.5 45.5t-67.5 18.5l-121 6l17 190h233v-48h-187l-9 -94z" />
    <glyph glyph-name="uni2076" unicode="&#x2076;" horiz-adv-x="393" 
d="M197 583q67 0 109.5 -38.5t42.5 -102.5q0 -32 -11.5 -58.5t-31.5 -45.5t-48 -29.5t-61 -10.5t-61.5 10.5t-48.5 29.5t-31.5 45.5t-11.5 58.5q0 26 8.5 47t21.5 40l1 1l105 150h64l-68 -98q5 1 10.5 1h10.5zM197 345q43 0 70.5 26.5t27.5 70.5q0 42 -27.5 67.5t-70.5 25.5
q-48 0 -73.5 -24.5t-25.5 -68.5t27.5 -70.5t71.5 -26.5z" />
    <glyph glyph-name="uni2077" unicode="&#x2077;" horiz-adv-x="320" 
d="M135 308h-61l158 321h-214v51h281v-33z" />
    <glyph glyph-name="uni2078" unicode="&#x2078;" horiz-adv-x="368" 
d="M254 500q79 -24 79 -92q0 -48 -41 -79t-108 -31q-68 0 -108.5 31t-40.5 79q0 68 79 92q-61 23 -61 85q0 47 36.5 74.5t94.5 27.5q59 0 95.5 -27.5t36.5 -74.5q0 -61 -62 -85zM109 582q0 -31 20.5 -48t54.5 -17q35 0 55.5 17t20.5 48q0 26 -20.5 43.5t-55.5 17.5
q-34 0 -54.5 -17.5t-20.5 -43.5zM184 342q42 0 67 19.5t25 51.5q0 31 -25 49.5t-67 18.5q-41 0 -66.5 -18.5t-25.5 -49.5q0 -32 25.5 -51.5t66.5 -19.5z" />
    <glyph glyph-name="uni2079" unicode="&#x2079;" horiz-adv-x="389" 
d="M325 474l-8 -12l-2 -2l-104 -150h-64l69 99q-5 -1 -11 -1h-11q-67 0 -109.5 38.5t-42.5 102.5q0 32 11.5 58.5t31.5 45.5t48 29.5t61 10.5t61.5 -10.5t48.5 -29.5t31.5 -45.5t11.5 -58.5q0 -38 -19 -71zM96 549q0 -42 27.5 -67.5t70.5 -25.5q46 0 72.5 26t26.5 67
q0 44 -27.5 70.5t-71.5 26.5q-43 0 -70.5 -26.5t-27.5 -70.5z" />
    <glyph glyph-name="uni2080" unicode="&#x2080;" horiz-adv-x="462" 
d="M237 201q42 0 76.5 -14t58.5 -39.5t37.5 -61.5t13.5 -79q0 -44 -13.5 -80t-37.5 -61.5t-58.5 -39.5t-76.5 -14t-76.5 14t-59 39.5t-38 61.5t-13.5 80q0 43 13.5 79t38 61.5t59 39.5t76.5 14zM237 -139q59 0 95.5 40t36.5 106q0 65 -36.5 105t-95.5 40t-95 -40t-36 -105
q0 -66 36 -106t95 -40z" />
    <glyph glyph-name="uni2081" unicode="&#x2081;" horiz-adv-x="288" 
d="M260 -180h-236v48h95v258l-89 -26l-12 48l138 44h16v-324h88v-48z" />
    <glyph glyph-name="uni2082" unicode="&#x2082;" horiz-adv-x="352" 
d="M37 -180v36l139 122q29 23 48.5 46.5t19.5 54.5q0 35 -23.5 52.5t-63.5 17.5q-20 0 -48 -5t-61 -19l-13 47q28 14 63 21t67 7q34 0 60 -9t42.5 -24.5t25 -36.5t8.5 -44q0 -22 -7.5 -41.5t-21 -38t-31.5 -36t-38 -35.5l-78 -68h186v-47h-274z" />
    <glyph glyph-name="uni2083" unicode="&#x2083;" horiz-adv-x="357" 
d="M179 32l9 -1q60 -2 94 -29t34 -72q0 -53 -39.5 -85.5t-111.5 -32.5q-34 0 -69.5 7t-67.5 24l19 43q61 -26 120 -26q42 0 70 18.5t28 47.5q0 60 -91 60h-71v26l123 132h-178v48h253v-33z" />
    <glyph glyph-name="uni2084" unicode="&#x2084;" horiz-adv-x="398" 
d="M372 -50v-47h-58v-83h-54v83h-231v39l228 250h57v-242h58zM260 -50v179l-161 -179h161z" />
    <glyph glyph-name="uni2085" unicode="&#x2085;" horiz-adv-x="380" 
d="M195 47q67 -3 102.5 -32.5t35.5 -80.5q0 -55 -40 -88.5t-103 -33.5q-83 0 -146 31l17 46q32 -14 62 -21.5t64 -7.5q42 0 69 19.5t27 52.5q0 29 -25.5 45.5t-67.5 18.5l-121 6l17 190h233v-48h-187l-9 -94z" />
    <glyph glyph-name="uni2086" unicode="&#x2086;" horiz-adv-x="393" 
d="M197 95q67 0 109.5 -38.5t42.5 -102.5q0 -32 -11.5 -58.5t-31.5 -45.5t-48 -29.5t-61 -10.5t-61.5 10.5t-48.5 29.5t-31.5 45.5t-11.5 58.5q0 26 8.5 47t21.5 40l1 1l105 150h64l-68 -98q5 1 10.5 1h10.5zM197 -143q43 0 70.5 26.5t27.5 70.5q0 42 -27.5 67.5t-70.5 25.5
q-48 0 -73.5 -24.5t-25.5 -68.5t27.5 -70.5t71.5 -26.5z" />
    <glyph glyph-name="uni2087" unicode="&#x2087;" horiz-adv-x="320" 
d="M135 -180h-61l158 321h-214v51h281v-33z" />
    <glyph glyph-name="uni2088" unicode="&#x2088;" horiz-adv-x="368" 
d="M254 14q79 -24 79 -92q0 -48 -41 -79t-108 -31q-68 0 -108.5 31t-40.5 79q0 68 79 92q-61 23 -61 85q0 47 36.5 74.5t94.5 27.5q59 0 95.5 -27.5t36.5 -74.5q0 -61 -62 -85zM109 96q0 -31 20.5 -48t54.5 -17q35 0 55.5 17t20.5 48q0 26 -20.5 43.5t-55.5 17.5
q-34 0 -54.5 -17.5t-20.5 -43.5zM184 -144q42 0 67 19.5t25 51.5q0 31 -25 49.5t-67 18.5q-41 0 -66.5 -18.5t-25.5 -49.5q0 -32 25.5 -51.5t66.5 -19.5z" />
    <glyph glyph-name="uni2089" unicode="&#x2089;" horiz-adv-x="389" 
d="M325 -16l-8 -12l-2 -2l-104 -150h-64l69 99q-5 -1 -11 -1h-11q-67 0 -109.5 38.5t-42.5 102.5q0 32 11.5 58.5t31.5 45.5t48 29.5t61 10.5t61.5 -10.5t48.5 -29.5t31.5 -45.5t11.5 -58.5q0 -38 -19 -71zM96 59q0 -42 27.5 -67.5t70.5 -25.5q46 0 72.5 26t26.5 67
q0 44 -27.5 70.5t-71.5 26.5q-43 0 -70.5 -26.5t-27.5 -70.5z" />
    <glyph glyph-name="Euro" unicode="&#x20ac;" horiz-adv-x="786" 
d="M492 695q54 0 113 -10t113 -29l-14 -62q-56 15 -109 23t-95 8q-107 0 -177 -52t-93 -142h316l-13 -51h-315q-2 -11 -2 -21v-21q0 -14 1 -28.5t3 -28.5h289l-13 -51h-260q26 -82 91.5 -129.5t162.5 -47.5q42 0 100.5 8.5t127.5 27.5l13 -61q-64 -21 -128 -32t-116 -11
q-65 0 -119.5 17t-97.5 49t-72.5 77.5t-44.5 101.5h-87v51h77q-2 14 -3 28.5t-1 27.5q0 11 0.5 21.5t1.5 21.5h-75v51h82q13 60 42.5 109t73.5 83.5t101.5 53t126.5 18.5z" />
    <glyph glyph-name="uni2116" unicode="&#x2116;" horiz-adv-x="1400" 
d="M681 0h-72l-438 564v-564h-71v680h69l441 -566v566h71v-680zM1057 644q55 0 101.5 -17.5t80 -50t52 -78t18.5 -100.5q0 -56 -18.5 -102t-52 -79t-80 -51t-101.5 -18q-56 0 -102.5 18t-80 51t-52 79t-18.5 102q0 55 18.5 100.5t52 78t80 50t102.5 17.5zM1057 211
q40 0 73.5 13.5t57.5 38t37.5 59t13.5 76.5q0 41 -13.5 75t-37.5 58t-57.5 37.5t-73.5 13.5q-41 0 -74.5 -13.5t-58 -37.5t-38 -58t-13.5 -75q0 -42 13.5 -76.5t38 -59t58 -38t74.5 -13.5zM1287 62v-62h-466v62h466z" />
    <glyph glyph-name="uni2117" unicode="&#x2117;" horiz-adv-x="860" 
d="M430 695q78 0 144.5 -27t115.5 -74.5t76.5 -112.5t27.5 -141t-27.5 -141t-76.5 -112.5t-115.5 -74.5t-144.5 -27t-144.5 27t-115.5 74.5t-76.5 112.5t-27.5 141t27.5 141t76.5 112.5t115.5 74.5t144.5 27zM430 659q-69 0 -129 -24.5t-103.5 -67t-68.5 -101t-25 -126.5
t25 -126.5t68.5 -101t103.5 -67t129 -24.5t129 24.5t103.5 67t68.5 101t25 126.5t-25 126.5t-68.5 101t-103.5 67t-129 24.5zM441 538q76 0 118.5 -32t42.5 -93q0 -36 -13.5 -61t-35.5 -40.5t-50 -22.5t-56 -7h-84v-133h-52v386q12 0 29 0.5t35 1t35.5 1t30.5 0.5zM446 493
q-21 0 -40.5 -1t-42.5 -2v-163h86q45 0 73.5 22.5t28.5 63.5q0 40 -28.5 60t-76.5 20z" />
    <glyph glyph-name="trademark" unicode="&#x2122;" horiz-adv-x="723" 
d="M175 636v-263h-48v263h-115v44h277v-44h-114zM523 373h-42l-96 210l-12 -210h-46l16 307h46l114 -249l111 249h44l19 -307h-46l-13 210z" />
    <glyph glyph-name="oneeighth" unicode="&#x215b;" horiz-adv-x="903" 
d="M80 356h95v258l-89 -26l-12 48l138 44h16v-324h88v-48h-236v48zM241 0h-45l453 680h45zM751 194q79 -24 79 -92q0 -48 -41 -79t-108 -31q-68 0 -108.5 31t-40.5 79q0 68 79 92q-61 23 -61 85q0 47 36.5 74.5t94.5 27.5q59 0 95.5 -27.5t36.5 -74.5q0 -61 -62 -85z
M606 276q0 -31 20.5 -48t54.5 -17q35 0 55.5 17t20.5 48q0 26 -20.5 43.5t-55.5 17.5q-34 0 -54.5 -17.5t-20.5 -43.5zM681 36q42 0 67 19.5t25 51.5q0 31 -25 49.5t-67 18.5q-41 0 -66.5 -18.5t-25.5 -49.5q0 -32 25.5 -51.5t66.5 -19.5z" />
    <glyph glyph-name="threeeighths" unicode="&#x215c;" horiz-adv-x="938" 
d="M217 520l9 -1q60 -2 94 -29t34 -72q0 -53 -39.5 -85.5t-111.5 -32.5q-34 0 -69.5 7t-67.5 24l19 43q61 -26 120 -26q42 0 70 18.5t28 47.5q0 60 -91 60h-71v26l123 132h-178v48h253v-33zM212 0l453 680h44l-453 -680h-44zM769 194q79 -24 79 -92q0 -48 -41 -79t-108 -31
q-68 0 -108.5 31t-40.5 79q0 68 79 92q-61 23 -61 85q0 47 36.5 74.5t94.5 27.5q59 0 95.5 -27.5t36.5 -74.5q0 -61 -62 -85zM624 276q0 -31 20.5 -48t54.5 -17q35 0 55.5 17t20.5 48q0 26 -20.5 43.5t-55.5 17.5q-34 0 -54.5 -17.5t-20.5 -43.5zM699 36q42 0 67 19.5
t25 51.5q0 31 -25 49.5t-67 18.5q-41 0 -66.5 -18.5t-25.5 -49.5q0 -32 25.5 -51.5t66.5 -19.5z" />
    <glyph glyph-name="fiveeighths" unicode="&#x215d;" horiz-adv-x="952" 
d="M212 535q67 -3 102.5 -32.5t35.5 -80.5q0 -55 -40 -88.5t-103 -33.5q-83 0 -146 31l17 46q32 -14 62 -21.5t64 -7.5q42 0 69 19.5t27 52.5q0 29 -25.5 45.5t-67.5 18.5l-121 6l17 190h233v-48h-187l-9 -94zM220 0l453 680h44l-453 -680h-44zM789 194q79 -24 79 -92
q0 -48 -41 -79t-108 -31q-68 0 -108.5 31t-40.5 79q0 68 79 92q-62 24 -62 85q0 47 36.5 74.5t95.5 27.5t95 -27.5t36 -74.5q0 -62 -61 -85zM644 276q0 -31 20.5 -48t54.5 -17t55 17t21 48q0 26 -21 43.5t-55 17.5t-54.5 -17.5t-20.5 -43.5zM719 36q41 0 66.5 19.5
t24.5 51.5q1 31 -24.5 49.5t-66.5 18.5q-42 0 -67.5 -18.5t-24.5 -49.5q-1 -32 24.5 -51.5t67.5 -19.5z" />
    <glyph glyph-name="seveneighths" unicode="&#x215e;" horiz-adv-x="906" 
d="M208 308h-61l158 321h-214v51h281v-33zM159 0l453 680h44l-453 -680h-44zM743 194q79 -24 79 -92q0 -48 -41 -79t-108 -31q-68 0 -109 31t-41 79q0 68 79 92q-61 24 -61 85q0 47 36.5 74.5t95.5 27.5q58 0 94.5 -27.5t36.5 -74.5q0 -61 -61 -85zM597 276q0 -31 20.5 -48
t55.5 -17q34 0 54.5 17t20.5 48q0 26 -20.5 43.5t-54.5 17.5q-35 0 -55.5 -17.5t-20.5 -43.5zM673 36q41 0 66 19.5t25 51.5q0 31 -25 49.5t-66 18.5q-42 0 -67.5 -18.5t-24.5 -49.5q-1 -32 24.5 -51.5t67.5 -19.5z" />
    <glyph glyph-name="arrowleft" unicode="&#x2190;" horiz-adv-x="759" 
d="M417 35l-47 -43l-338 350l334 346l47 -42l-265 -272h568v-64h-568z" />
    <glyph glyph-name="arrowup" unicode="&#x2191;" horiz-adv-x="783" 
d="M357 566l-271 -265l-42 47l345 334l350 -337l-42 -47l-276 269v-568h-64v567z" />
    <glyph glyph-name="arrowright" unicode="&#x2192;" horiz-adv-x="759" 
d="M611 374l-265 272l47 42l334 -346l-337 -350l-48 43l270 275h-568v64h567z" />
    <glyph glyph-name="arrowdown" unicode="&#x2193;" horiz-adv-x="783" 
d="M697 381l42 -47l-350 -337l-345 334l42 47l270 -266v568h67v-568z" />
    <glyph glyph-name="uni2196" unicode="&#x2196;" horiz-adv-x="805" 
d="M141 572v-373l-63 1v480h487l1 -63h-380l574 -577l-43 -42z" />
    <glyph glyph-name="uni2197" unicode="&#x2197;" horiz-adv-x="805" 
d="M239 617l1 63h487v-480l-63 -1v373l-576 -574l-42 42l573 577h-380z" />
    <glyph glyph-name="uni2198" unicode="&#x2198;" horiz-adv-x="805" 
d="M664 108v373l63 -1v-480h-487l-1 63h380l-573 577l42 42z" />
    <glyph glyph-name="uni2199" unicode="&#x2199;" horiz-adv-x="805" 
d="M566 63l-1 -63h-487v480l63 1v-373l576 574l43 -42l-574 -577h380z" />
    <glyph glyph-name="minus" unicode="&#x2212;" horiz-adv-x="693" 
d="M576 355v-64h-459v64h459z" />
    <glyph glyph-name="triagup" unicode="&#x25b2;" horiz-adv-x="973" 
d="M903 0h-833l415 691z" />
    <glyph glyph-name="uni25B4" unicode="&#x25b4;" horiz-adv-x="465" 
d="M393 200h-328l163 269z" />
    <glyph glyph-name="uni25B8" unicode="&#x25b8;" horiz-adv-x="428" 
d="M99 172v327l270 -163z" />
    <glyph glyph-name="triagdn" unicode="&#x25bc;" horiz-adv-x="973" 
d="M485 -11l-415 691h833z" />
    <glyph glyph-name="uni25BE" unicode="&#x25be;" horiz-adv-x="465" 
d="M232 181l-163 269h327z" />
    <glyph glyph-name="uni25C2" unicode="&#x25c2;" horiz-adv-x="428" 
d="M59 336l270 163v-327z" />
    <glyph glyph-name="uniFB01" unicode="&#xfb01;" horiz-adv-x="599" 
d="M524 0h-68v400h-267v-400h-69v400h-114v62h114v80q0 105 55.5 158t153.5 53q50 0 88.5 -12.5t83.5 -37.5l-31 -49q-36 20 -68.5 28.5t-69.5 8.5q-143 0 -143 -150v-79h335v-462z" />
    <glyph glyph-name="uniFB02" unicode="&#xfb02;" horiz-adv-x="623" 
d="M459 0v660q-16 8 -30.5 14t-29.5 9.5t-32.5 5.5t-38.5 2q-69 0 -104 -37.5t-35 -107.5v-84h183v-62h-183v-400h-69v400h-114v62h114v86q0 99 52 152t154 53q42 0 74 -9t64 -24l64 -4v-716h-69z" />
    <glyph glyph-name="glyph113" horiz-adv-x="640" 
d="M324 687q59 0 107.5 -14t83 -41.5t53.5 -68t19 -93.5q0 -48 -16.5 -87t-47.5 -67.5t-74 -45.5t-95 -21h-64l322 -249h-101l-317 245h-23v-245h-71v680q51 2 107.5 4.5t116.5 2.5zM326 622q-40 0 -76 -0.5t-79 -2.5v-311h159q41 0 75.5 11t59 32t38 51t13.5 68
q0 78 -52 115t-138 37z" />
    <glyph glyph-name="glyph114" horiz-adv-x="640" 
d="M341 744h-72l89 152h92zM324 687q59 0 107.5 -14t83 -41.5t53.5 -68t19 -93.5q0 -48 -16.5 -87t-47.5 -67.5t-74 -45.5t-95 -21h-64l322 -249h-101l-317 245h-23v-245h-71v680q51 2 107.5 4.5t116.5 2.5zM326 622q-40 0 -76 -0.5t-79 -2.5v-311h159q41 0 75.5 11t59 32
t38.5 51t14 68q0 78 -52.5 115t-138.5 37z" />
    <glyph glyph-name="glyph115" horiz-adv-x="640" 
d="M267 739l-126 155h70l88 -106l88 106h70l-126 -155h-64zM324 687q59 0 107.5 -14t83 -41.5t53.5 -68t19 -93.5q0 -48 -16.5 -87t-47.5 -67.5t-74 -45.5t-95 -21h-64l322 -249h-101l-317 245h-23v-245h-71v680q51 2 107.5 4.5t116.5 2.5zM326 622q-40 0 -76 -0.5t-79 -2.5
v-311h159q41 0 75.5 11t59 32t38.5 51t14 68q0 78 -52.5 115t-138.5 37z" />
    <glyph glyph-name="glyph116" horiz-adv-x="640" 
d="M324 687q59 0 107.5 -14t83 -41.5t53.5 -68t19 -93.5q0 -48 -16.5 -87t-47.5 -67.5t-74 -45.5t-95 -21h-64l322 -249h-101l-317 245h-23v-245h-71v680q51 2 107.5 4.5t116.5 2.5zM326 622q-40 0 -76 -0.5t-79 -2.5v-311h159q41 0 75.5 11t59 32t38.5 51t14 68
q0 78 -52.5 115t-138.5 37zM305 -147q-29 11 -29 39q0 17 12.5 29.5t31.5 12.5t32 -12.5t13 -29.5q0 -8 -1.5 -15t-7 -19.5t-16 -34.5t-28.5 -59h-42z" />
    <glyph glyph-name="glyph117" horiz-adv-x="847" 
d="M424 695q79 0 145 -25.5t113 -72t73 -112t26 -145.5t-26 -145.5t-73 -112t-113 -72t-145 -25.5q-80 0 -145.5 25.5t-113 72t-73.5 112t-26 145.5t26 145.5t73.5 112t113 72t145.5 25.5zM423 51q63 0 115 21t89.5 59t58.5 91t21 118t-21 118t-58.5 91t-89.5 58.5
t-115 20.5t-115 -20.5t-89.5 -58.5t-58 -91t-20.5 -118t20.5 -118t58 -91t89.5 -59t115 -21zM712 -176q-85 2 -167.5 9.5t-167.5 18.5v49l335 -11v-66z" />
    <glyph glyph-name="glyph161" horiz-adv-x="251" 
d="M126 582q-20 0 -34 13t-14 33t14 33.5t34 13.5t34 -13.5t14 -33.5t-14 -33t-34 -13zM159 0h-68v462h68v-462z" />
    <glyph glyph-name="glyph232" horiz-adv-x="1334" 
d="M565 590q-58 17 -119 27.5t-110 10.5q-74 0 -118.5 -32.5t-44.5 -92.5q0 -26 10 -44t31 -31.5t54 -23.5t78 -19q57 -12 104.5 -26t82 -35.5t53.5 -54.5t19 -83q0 -49 -18.5 -86.5t-52.5 -63t-80.5 -38.5t-101.5 -13q-66 0 -141 15t-142 42l19 66q68 -28 137.5 -42.5
t129.5 -14.5q79 0 128.5 33t49.5 96q0 39 -20 63t-52.5 39t-73 24t-81.5 18q-57 12 -96.5 26.5t-64 35t-36 48.5t-11.5 66q0 45 17 80.5t48.5 60t76 38t98.5 13.5q32 0 65.5 -3t65.5 -8.5t61.5 -13t53.5 -16.5zM1218 590q-58 17 -119.5 27.5t-110.5 10.5q-74 0 -118.5 -32.5
t-44.5 -92.5q0 -26 10 -44t31 -31.5t54 -23.5t78 -19q57 -12 104.5 -26t82 -35.5t53.5 -54.5t19 -83q0 -49 -18.5 -86.5t-52.5 -63t-80.5 -38.5t-101.5 -13q-66 0 -141 15t-142 42l19 66q69 -28 138 -42.5t129 -14.5q79 0 128.5 33t49.5 96q0 39 -20 63t-52.5 39t-73 24
t-81.5 18q-57 12 -96.5 26.5t-64 35t-36 48.5t-11.5 66q0 45 17.5 80.5t49 60t75.5 38t98 13.5q65 0 131.5 -12t114.5 -29z" />
    <glyph glyph-name="glyph233" horiz-adv-x="606" 
d="M524 10q0 -58 -17 -105.5t-49 -81.5t-78.5 -52.5t-105.5 -18.5q-48 0 -91 9.5t-81 23.5l12 58q38 -12 77.5 -20.5t80.5 -8.5q85 0 133.5 51.5t50.5 144.5q-49 -8 -95.5 -11.5t-89.5 -3.5q-44 0 -78.5 10t-59 32.5t-37.5 58.5t-13 88v278h68v-265q0 -70 34 -106.5
t98 -36.5q39 0 82 3t91 11v394h68v-452z" />
    <glyph glyph-name="glyph234" horiz-adv-x="606" 
d="M324 571h-67l84 156h92zM524 10q0 -58 -17 -105.5t-49 -81.5t-78.5 -52.5t-105.5 -18.5q-48 0 -91 9.5t-81 23.5l12 58q38 -12 78 -20.5t80 -8.5q85 0 134 51.5t50 144.5q-49 -8 -95.5 -11.5t-89.5 -3.5q-44 0 -78.5 10t-59 32.5t-37.5 58.5t-13 88v278h68v-265
q0 -70 34 -106.5t99 -36.5q38 0 81 3t91 11v394h68v-452z" />
    <glyph glyph-name="glyph235" horiz-adv-x="606" 
d="M213 568h-69l126 149h64l126 -149h-69l-89 100zM524 10q0 -58 -17 -105.5t-49 -81.5t-78.5 -52.5t-105.5 -18.5q-48 0 -91 9.5t-81 23.5l12 58q38 -12 78 -20.5t80 -8.5q85 0 134 51.5t50 144.5q-49 -8 -95.5 -11.5t-89.5 -3.5q-44 0 -78.5 10t-59 32.5t-37.5 58.5
t-13 88v278h68v-265q0 -70 34 -106.5t99 -36.5q38 0 81 3t91 11v394h68v-452z" />
    <glyph glyph-name="glyph236" horiz-adv-x="606" 
d="M197 675q20 0 34 -13.5t14 -33.5t-14 -33t-34 -13t-34 13t-14 33t14 33.5t34 13.5zM407 675q20 0 34 -13.5t14 -33.5t-14 -33t-34 -13t-34 13t-14 33t14 33.5t34 13.5zM524 10q0 -58 -17 -105.5t-49 -81.5t-78.5 -52.5t-105.5 -18.5q-48 0 -91 9.5t-81 23.5l12 58
q38 -12 78 -20.5t80 -8.5q85 0 134 51.5t50 144.5q-49 -8 -95.5 -11.5t-89.5 -3.5q-44 0 -78.5 10t-59 32.5t-37.5 58.5t-13 88v278h68v-265q0 -70 34 -106.5t99 -36.5q38 0 81 3t91 11v394h68v-452z" />
    <glyph glyph-name="glyph237" horiz-adv-x="606" 
d="M284 571l-109 156h92l85 -156h-68zM524 10q0 -58 -17 -105.5t-49 -81.5t-78.5 -52.5t-105.5 -18.5q-48 0 -91 9.5t-81 23.5l12 58q38 -12 78 -20.5t80 -8.5q85 0 134 51.5t50 144.5q-49 -8 -95.5 -11.5t-89.5 -3.5q-44 0 -78.5 10t-59 32.5t-37.5 58.5t-13 88v278h68
v-265q0 -70 34 -106.5t99 -36.5q38 0 81 3t91 11v394h68v-452z" />
    <glyph glyph-name="glyph238" horiz-adv-x="559" 
d="M287 479q98 0 145.5 -42t47.5 -136v-291q-47 -8 -82.5 -13t-64 -7.5t-51.5 -3.5t-45 -1q-193 0 -193 150q0 134 206 143l166 7v15q0 63 -33 90.5t-99 27.5q-43 0 -87 -4t-95 -12l-7 58q58 10 102 14.5t90 4.5zM251 41q28 0 68.5 3.5t96.5 12.5v175l-171 -8
q-136 -6 -136 -89q0 -94 142 -94z" />
    <glyph glyph-name="glyph239" horiz-adv-x="559" 
d="M297 571h-67l84 156h92zM288 479q98 0 145 -42t47 -136v-291q-47 -8 -82.5 -13t-63.5 -7.5t-51.5 -3.5t-45.5 -1q-193 0 -193 150q0 134 206 143l166 7v15q0 63 -33 90.5t-99 27.5q-42 0 -86.5 -4t-95.5 -12l-7 58q58 10 102.5 14.5t90.5 4.5zM251 41q28 0 68.5 3.5
t96.5 12.5v175l-170 -8q-67 -3 -102 -25.5t-35 -63.5q0 -94 142 -94z" />
    <glyph glyph-name="glyph240" horiz-adv-x="559" 
d="M420 706q0 -66 -39.5 -104t-105.5 -38t-105.5 38t-39.5 104h58q0 -42 24 -65t63 -23t62.5 23t23.5 65h59zM288 479q98 0 145 -42t47 -136v-291q-47 -8 -82.5 -13t-63.5 -7.5t-51.5 -3.5t-45.5 -1q-193 0 -193 150q0 134 206 143l166 7v15q0 63 -33 90.5t-99 27.5
q-42 0 -86.5 -4t-95.5 -12l-7 58q58 10 102.5 14.5t90.5 4.5zM251 41q28 0 68.5 3.5t96.5 12.5v175l-170 -8q-67 -3 -102 -25.5t-35 -63.5q0 -94 142 -94z" />
    <glyph glyph-name="glyph241" horiz-adv-x="559" 
d="M243 566l-126 155h70l88 -106l88 106h70l-126 -155h-64zM288 479q98 0 145 -42t47 -136v-291q-47 -8 -82.5 -13t-63.5 -7.5t-51.5 -3.5t-45.5 -1q-193 0 -193 150q0 134 206 143l166 7v15q0 63 -33 90.5t-99 27.5q-42 0 -86.5 -4t-95.5 -12l-7 58q58 10 102.5 14.5
t90.5 4.5zM251 41q28 0 68.5 3.5t96.5 12.5v175l-170 -8q-67 -3 -102 -25.5t-35 -63.5q0 -94 142 -94z" />
    <glyph glyph-name="glyph242" horiz-adv-x="559" 
d="M186 568h-69l126 149h64l126 -149h-69l-89 100zM288 479q98 0 145 -42t47 -136v-291q-47 -8 -82.5 -13t-63.5 -7.5t-51.5 -3.5t-45.5 -1q-193 0 -193 150q0 134 206 143l166 7v15q0 63 -33 90.5t-99 27.5q-42 0 -86.5 -4t-95.5 -12l-7 58q58 10 102.5 14.5t90.5 4.5z
M251 41q28 0 68.5 3.5t96.5 12.5v175l-170 -8q-67 -3 -102 -25.5t-35 -63.5q0 -94 142 -94z" />
    <glyph glyph-name="glyph243" horiz-adv-x="559" 
d="M170 675q20 0 34 -13.5t14 -33.5t-14 -33t-34 -13t-34 13t-14 33t14 33.5t34 13.5zM380 675q20 0 34 -13.5t14 -33.5t-14 -33t-34 -13t-34 13t-14 33t14 33.5t34 13.5zM288 479q98 0 145 -42t47 -136v-291q-47 -8 -82.5 -13t-63.5 -7.5t-51.5 -3.5t-45.5 -1
q-193 0 -193 150q0 134 206 143l166 7v15q0 63 -33 90.5t-99 27.5q-42 0 -86.5 -4t-95.5 -12l-7 58q58 10 102.5 14.5t90.5 4.5zM251 41q28 0 68.5 3.5t96.5 12.5v175l-170 -8q-67 -3 -102 -25.5t-35 -63.5q0 -94 142 -94z" />
    <glyph glyph-name="glyph244" horiz-adv-x="559" 
d="M257 571l-109 156h92l85 -156h-68zM288 479q98 0 145 -42t47 -136v-291q-47 -8 -82.5 -13t-63.5 -7.5t-51.5 -3.5t-45.5 -1q-193 0 -193 150q0 134 206 143l166 7v15q0 63 -33 90.5t-99 27.5q-42 0 -86.5 -4t-95.5 -12l-7 58q58 10 102.5 14.5t90.5 4.5zM251 41
q28 0 68.5 3.5t96.5 12.5v175l-170 -8q-67 -3 -102 -25.5t-35 -63.5q0 -94 142 -94z" />
    <glyph glyph-name="glyph245" horiz-adv-x="559" 
d="M410 617h-271v56h271v-56zM288 479q98 0 145 -42t47 -136v-291q-47 -8 -82.5 -13t-63.5 -7.5t-51.5 -3.5t-45.5 -1q-193 0 -193 150q0 134 206 143l166 7v15q0 63 -33 90.5t-99 27.5q-42 0 -86.5 -4t-95.5 -12l-7 58q58 10 102.5 14.5t90.5 4.5zM251 41q28 0 68.5 3.5
t96.5 12.5v175l-170 -8q-67 -3 -102 -25.5t-35 -63.5q0 -94 142 -94z" />
    <glyph glyph-name="glyph246" horiz-adv-x="559" 
d="M514 -186q-19 -7 -50 -7q-58 0 -93 28.5t-35 76.5q0 26 13 46.5t36 36.5q-49 -7 -82.5 -8.5t-65.5 -1.5q-193 0 -193 150q0 134 206 143l166 7v15q0 63 -33 90.5t-99 27.5q-42 0 -86.5 -4t-95.5 -12l-7 58q58 10 102.5 14.5t90.5 4.5q98 0 145 -42t47 -136v-291
q-39 -17 -62 -36.5t-23 -50.5q0 -28 20.5 -44t57.5 -16q10 0 18 1t16 3zM109 135q0 -94 142 -94q28 0 68.5 3.5t96.5 12.5v175l-170 -8q-67 -3 -102 -25.5t-35 -63.5z" />
    <glyph glyph-name="glyph247" horiz-adv-x="559" 
d="M275 739q42 0 69.5 -25.5t27.5 -68.5q0 -42 -27.5 -68t-69.5 -26t-69.5 26t-27.5 68q0 43 27.5 68.5t69.5 25.5zM275 590q23 0 39 15t16 40t-16 40t-39 15t-39 -15t-16 -40t16 -40t39 -15zM288 479q98 0 145 -42t47 -136v-291q-47 -8 -82.5 -13t-63.5 -7.5t-51.5 -3.5
t-45.5 -1q-193 0 -193 150q0 134 206 143l166 7v15q0 63 -33 90.5t-99 27.5q-42 0 -86.5 -4t-95.5 -12l-7 58q58 10 102.5 14.5t90.5 4.5zM251 41q28 0 68.5 3.5t96.5 12.5v175l-170 -8q-67 -3 -102 -25.5t-35 -63.5q0 -94 142 -94z" />
    <glyph glyph-name="glyph248" horiz-adv-x="559" 
d="M432 674q0 -36 -14.5 -58t-36 -31.5t-45.5 -7.5t-42 14l-55 36q-24 16 -45.5 6t-21.5 -39h-54q0 36 14.5 58t36 31t45.5 7t42 -13l55 -36q24 -16 45 -6t21 39h55zM288 479q98 0 145 -42t47 -136v-291q-47 -8 -82.5 -13t-63.5 -7.5t-51.5 -3.5t-45.5 -1q-193 0 -193 150
q0 134 206 143l166 7v15q0 63 -33 90.5t-99 27.5q-42 0 -86.5 -4t-95.5 -12l-7 58q58 10 102.5 14.5t90.5 4.5zM251 41q28 0 68.5 3.5t96.5 12.5v175l-170 -8q-67 -3 -102 -25.5t-35 -63.5q0 -94 142 -94z" />
    <glyph glyph-name="glyph249" horiz-adv-x="982" 
d="M694 477q54 0 97.5 -17.5t74 -49.5t46.5 -77t16 -100q0 -56 -16.5 -101.5t-46.5 -78t-72.5 -50.5t-94.5 -18q-27 0 -51 0.5t-51 2.5t-60 7.5t-79 14.5v653q-30 14 -57 21t-68 7q-72 0 -107.5 -37.5t-35.5 -107.5v-84h188v-62h-188v-400h-69v400h-114v62h114v86
q0 99 52.5 152t157.5 53q42 0 72.5 -8.5t61.5 -22.5l61 -4v-262q44 12 83 16.5t86 4.5zM690 44q39 0 70.5 13.5t53.5 38.5t34 59t12 76q0 41 -11 75.5t-33 59t-54.5 38.5t-75.5 14q-42 0 -79 -4t-82 -17v-339q30 -6 52.5 -8.5t41 -4t35.5 -1.5h36z" />
    <glyph glyph-name="glyph250" horiz-adv-x="736" 
d="M550 400v-400h-68v400h-294v-400h-68v400h-114v62h114v80q0 105 57.5 158t156.5 53q51 0 92 -15t89 -46q22 29 56 45t76 16q36 0 80 -11l-11 -58q-17 3 -33.5 5t-33.5 2q-45 0 -72 -29.5t-27 -83.5v-116h178v-62h-178zM482 579q0 33 7 58q-39 28 -74.5 41t-77.5 13
q-73 0 -111 -37.5t-38 -112.5v-79h294v117z" />
    <glyph glyph-name="glyph251" horiz-adv-x="1334" 
d="M1041 477q57 0 101.5 -17.5t74.5 -49.5t46 -77t16 -99q0 -57 -17 -103t-47 -78t-72 -49t-93 -17h-50.5t-50.5 2t-60.5 6.5t-79.5 13.5v654q-31 14 -58 21t-66 7q-74 0 -109.5 -37.5t-35.5 -107.5v-84h188v-62h-188v-400h-68v400h-284v-400h-68v400h-114v62h114v80
q0 105 55 158t153 53q28 0 51.5 -4t46 -11.5t45 -19t46.5 -27.5q54 62 166 62q40 0 72 -8.5t62 -22.5l60 -4v-262q42 12 82 16.5t82 4.5zM472 548q0 50 14 90q-38 28 -73.5 40.5t-80.5 12.5q-144 0 -144 -150v-79h284v86zM1037 44q84 0 129.5 52t45.5 138q0 82 -45 133
t-134 51q-35 0 -73 -4t-83 -17v-339q30 -5 52.5 -8t41 -4.5t34.5 -1.5h32z" />
    <glyph glyph-name="glyph252" horiz-adv-x="1083" 
d="M897 400v-400h-68v400h-289v-400h-68v400h-284v-400h-68v400h-114v62h114v80q0 105 55 158t153 53q28 0 52 -4t46.5 -12t45 -19.5t46.5 -27.5q54 63 162 63q27 0 50.5 -3.5t45.5 -11t43.5 -18.5t44.5 -26q45 59 131 59q35 0 79 -11l-11 -58q-17 3 -33.5 5t-32.5 2
q-45 0 -72.5 -29.5t-27.5 -83.5v-116h178v-62h-178zM472 542q0 55 16 96q-39 27 -75 40t-81 13q-144 0 -144 -150v-79h284v80zM829 579q0 31 8 60q-38 27 -73 39.5t-80 12.5q-144 0 -144 -150v-79h289v117z" />
    <glyph glyph-name="glyph253" horiz-adv-x="1325" 
d="M1057 477q88 0 138.5 -50t50.5 -139v-288h-69v272q0 67 -35 104.5t-97 37.5q-39 0 -81.5 -4t-90.5 -17v-393h-69v663q-30 14 -57 21t-68 7q-69 0 -104 -37.5t-35 -107.5v-84h184v-62h-184v-400h-68v400h-284v-400h-68v400h-114v62h114v80q0 105 55 158t153 53
q55 0 97.5 -15.5t90.5 -46.5q53 62 161 62q42 0 74 -9t62 -23l59 -3v-8h1v-255q48 13 94.5 17.5t89.5 4.5zM472 548q0 49 14 91q-38 27 -73.5 39.5t-80.5 12.5q-144 0 -144 -150v-79h284v86z" />
    <glyph glyph-name="glyph254" horiz-adv-x="951" 
d="M876 0h-69v400h-267v-400h-68v400h-283v-400h-69v400h-114v62h114v80q0 105 55.5 158t153.5 53q28 0 51.5 -4t46 -12t45 -19.5t46.5 -27.5q54 63 162 63q25 0 47 -3t42 -9t40.5 -15.5t43.5 -22.5l-32 -49q-35 20 -67.5 28.5t-69.5 8.5q-144 0 -144 -150v-79h336v-462z
M472 542q0 57 16 96q-38 28 -74.5 40.5t-81.5 12.5q-143 0 -143 -150v-79h283v80z" />
    <glyph glyph-name="glyph255" horiz-adv-x="937" 
d="M864 -28q0 -50 -8 -87.5t-28 -62t-54 -37t-85 -13.5l-5 61q65 -2 88.5 29.5t23.5 101.5v436h-256v-400h-68v400h-283v-400h-69v400h-114v62h114v80q0 105 55.5 158t153.5 53q28 0 51.5 -4t46 -12t45 -19.5t46.5 -27.5q54 63 162 63q25 0 47 -3t42 -9t40.5 -15.5
t43.5 -22.5l-32 -49q-35 20 -67.5 28.5t-69.5 8.5q-144 0 -144 -150v-79h324v-490zM472 542q0 57 16 96q-38 28 -74.5 40.5t-81.5 12.5q-143 0 -143 -150v-79h283v80z" />
    <glyph glyph-name="glyph256" horiz-adv-x="1283" 
d="M1166 0l-194 202h-99v-202h-69v663q-30 14 -57 21t-68 7q-69 0 -104 -37.5t-35 -107.5v-84h184v-62h-184v-400h-68v400h-284v-400h-68v400h-114v62h114v80q0 105 55 158t153 53q55 0 97.5 -15.5t90.5 -46.5q53 62 161 62q42 0 74 -9t62 -23l59 -3v-8h1v-445h64l196 197
h85l-204 -206l236 -256h-84zM472 548q0 49 14 91q-38 27 -73.5 39.5t-80.5 12.5q-144 0 -144 -150v-79h284v86z" />
    <glyph glyph-name="glyph257" horiz-adv-x="963" 
d="M868 0h-68v665q-29 14 -55.5 20t-65.5 6q-69 0 -104 -37.5t-35 -107.5v-84h184v-62h-184v-400h-68v400h-283v-400h-69v400h-114v62h114v80q0 105 55.5 158t153.5 53q55 0 97 -15t90 -47q53 62 161 62q42 0 74 -9t62 -23l55 -3v-718zM472 548q0 52 15 91q-38 27 -74 39.5
t-81 12.5q-143 0 -143 -150v-79h283v86z" />
    <glyph glyph-name="glyph258" horiz-adv-x="1115" 
d="M1073 -2q-28 -7 -50.5 -10t-52.5 -3q-80 0 -118.5 42.5t-38.5 133.5v239h-273v-400h-68v400h-284v-400h-68v400h-114v62h114v80q0 105 55 158t153 53q54 0 95 -14t86 -43q46 57 133 57q20 0 40.5 -3.5t42.5 -9.5l-11 -57q-38 8 -70 8q-48 0 -76 -29.5t-28 -83.5v-116h273
v194h68v-194h165v-62h-165v-233q0 -63 23 -91.5t77 -28.5q19 0 39.5 2t43.5 6zM472 579q0 34 9 63q-35 25 -70 37t-79 12q-144 0 -144 -150v-79h284v117z" />
    <glyph glyph-name="glyph259" horiz-adv-x="984" 
d="M716 477q88 0 138 -50t50 -139v-288h-68v272q0 67 -35 104.5t-98 37.5q-38 0 -81 -4t-91 -17v-393h-68v660q-16 8 -30.5 14t-29.5 9.5t-32.5 5.5t-38.5 2q-72 0 -107.5 -37.5t-35.5 -107.5v-84h188v-62h-188v-400h-69v400h-114v62h114v86q0 99 52.5 152t157.5 53
q42 0 72.5 -8.5t61.5 -22.5l67 -4v-263q49 13 95.5 17.5t89.5 4.5z" />
    <glyph glyph-name="glyph260" horiz-adv-x="590" 
d="M517 -28q0 -50 -8 -87.5t-28 -62t-54 -37t-85 -13.5l-5 61q65 -2 88.5 29.5t23.5 101.5v436h-260v-400h-69v400h-114v62h114v80q0 105 56 158t157 53q50 0 88.5 -12.5t83.5 -37.5l-31 -49q-36 20 -68 28.5t-70 8.5q-75 0 -111 -37.5t-36 -112.5v-79h328v-490z" />
    <glyph glyph-name="glyph261" horiz-adv-x="932" 
d="M625 202h-104v-202h-68v663q-30 14 -57 21t-68 7q-69 0 -104 -37.5t-35 -107.5v-84h183v-62h-183v-400h-69v400h-114v62h114v86q0 99 52 152t154 53q41 0 72 -8.5t62 -22.5l61 -4v-453h65l195 197h85l-204 -206l237 -256h-84z" />
    <glyph glyph-name="glyph262" horiz-adv-x="769" 
d="M727 -2q-28 -7 -50.5 -10t-52.5 -3q-80 0 -118.5 42.5t-38.5 133.5v239h-278v-400h-69v400h-114v62h114v106q0 95 42.5 140t127.5 45q20 0 41 -3.5t42 -9.5l-11 -57q-38 8 -70 8q-54 0 -78.5 -29t-24.5 -96v-104h278v194h68v-194h165v-62h-165v-233q0 -63 23 -91.5
t77 -28.5q20 0 40 2t43 6z" />
    <glyph glyph-name="glyph265" horiz-adv-x="724" 
d="M716 462v-62h-174v-400h-68v400h-47q-69 0 -139.5 -2t-130.5 -9v-389h-69v438q31 5 71 9.5t84 7.5t89.5 5t88.5 2h53v117q0 40 12 72.5t33.5 55t52 34.5t67.5 12q36 0 80 -11l-11 -58q-17 3 -33.5 5t-32.5 2q-45 0 -72.5 -29.5t-27.5 -83.5v-116h174z" />
    <glyph glyph-name="glyph266" horiz-adv-x="772" 
d="M703 469v-61h-165v-241q0 -63 23 -91.5t77 -28.5q19 0 39.5 2t43.5 6l8 -57q-28 -7 -50.5 -10t-51.5 -3q-81 0 -119 42.5t-38 133.5v246q-49 0 -87.5 -0.5t-74.5 -2t-72 -3.5t-79 -6v-395h-69v446q45 5 88 9t88.5 7t95.5 5t110 2v187h68v-187h165z" />
    <glyph glyph-name="glyph279" horiz-adv-x="657" 
d="M329 539q60 0 110 -20t86.5 -56t57 -87t20.5 -113t-20.5 -112.5t-57 -86.5t-86.5 -56t-110 -20t-110 20t-87 56t-57.5 86.5t-20.5 112.5t20.5 113t57.5 87t87 56t110 20zM329 51q44 0 81.5 15.5t65 43t43 66.5t15.5 87t-15.5 87.5t-43 67t-65 43t-81.5 15.5t-81.5 -15.5
t-65.5 -43t-43.5 -67t-15.5 -87.5t15.5 -87t43.5 -66.5t65.5 -43t81.5 -15.5z" />
    <glyph glyph-name="glyph280" horiz-adv-x="422" 
d="M422 0h-399v59h179v392l-176 -54l-16 59l238 77h22v-474h152v-59z" />
    <glyph glyph-name="glyph281" horiz-adv-x="540" 
d="M262 537q56 0 97 -13.5t67.5 -36.5t39.5 -53.5t13 -63.5q0 -74 -66 -141t-195 -144l-40 -25h318v-60h-447v46l97 60q64 40 112.5 73.5t81.5 63.5t49.5 58.5t16.5 58.5q0 50 -38.5 80.5t-113.5 30.5q-35 0 -86.5 -9t-108.5 -29l-13 63q24 9 51 16.5t55 13t56 8.5t54 3z
" />
    <glyph glyph-name="glyph282" horiz-adv-x="570" 
d="M275 231h21q109 -5 169.5 -53t60.5 -133q0 -46 -18.5 -84.5t-52 -66t-80.5 -43t-104 -15.5q-62 0 -122.5 14t-115.5 42l25 55q54 -23 107.5 -36.5t107.5 -13.5q37 0 70.5 11t58 30.5t39 46t14.5 57.5q0 64 -49 96.5t-137 32.5h-95v34l232 256h-343v64h440v-44z" />
    <glyph glyph-name="glyph283" horiz-adv-x="652" 
d="M610 59v-59h-95v-153h-68v153h-411v46l411 481h68v-468h95zM447 59v371l-317 -371h317z" />
    <glyph glyph-name="glyph284" horiz-adv-x="592" 
d="M294 256q115 -6 180 -58t65 -143q0 -50 -18 -90t-50.5 -68.5t-77 -43.5t-97.5 -15q-70 0 -132 14.5t-118 42.5l23 57q54 -23 109.5 -37.5t114.5 -14.5q38 0 71 10.5t57 30t37.5 48t13.5 64.5q0 63 -48 99.5t-139 40.5l-201 10l31 330h399v-66h-339l-20 -204z" />
    <glyph glyph-name="glyph285" horiz-adv-x="601" 
d="M301 463q56 0 103 -16.5t81 -47.5t53 -74.5t19 -97.5t-19 -99t-53 -76.5t-81 -49t-103 -17.5t-103.5 17.5t-81.5 49t-53 76.5t-19 99q0 44 14 80t36 67l214 306h81l-156 -223q31 6 68 6zM301 46q40 0 74.5 13t59.5 36.5t39 57t14 74.5q0 40 -14 73t-39 56t-59.5 36
t-74.5 13q-42 0 -77 -13t-59.5 -36.5t-38 -56t-13.5 -72.5q0 -41 14 -74.5t39 -57t59.5 -36.5t75.5 -13z" />
    <glyph glyph-name="glyph286" horiz-adv-x="531" 
d="M208 -147h-78l294 614h-400v66h484v-44z" />
    <glyph glyph-name="glyph287" horiz-adv-x="634" 
d="M427 357q75 -20 115 -64.5t40 -107.5q0 -44 -19 -81t-54 -63.5t-83.5 -41t-108.5 -14.5t-108.5 14.5t-83.5 41t-54 63.5t-19 81q0 63 40 107.5t115 64.5q-58 20 -88.5 60.5t-30.5 98.5q0 40 16.5 73.5t47 56.5t72.5 36t93 13t93.5 -13t72.5 -36t46.5 -56.5t16.5 -73.5
q0 -58 -30.5 -98.5t-88.5 -60.5zM160 513q0 -59 42.5 -94t114.5 -35q71 0 114 35t43 94q0 55 -43 89.5t-114 34.5q-72 0 -114.5 -34.5t-42.5 -89.5zM317 46q43 0 78.5 11t60.5 30t38.5 45t13.5 57q0 30 -13.5 55t-38.5 43t-60.5 27.5t-78.5 9.5t-78 -9.5t-60 -27.5t-39 -43
t-14 -55q0 -31 14 -57t39 -45t60 -30t78 -11z" />
    <glyph glyph-name="glyph288" horiz-adv-x="609" 
d="M559 306q0 -44 -14.5 -80t-36.5 -67l-1 -1l-212 -305h-82l156 222q-16 -2 -32.5 -3.5t-34.5 -1.5q-56 0 -103 16.5t-81 47.5t-53 74.5t-19 97.5t19 99t53 76.5t81 49t103 17.5t103.5 -17.5t81.5 -49t53 -76.5t19 -99zM115 306q0 -40 14 -73t39 -56t59 -36t75 -13
q42 0 77 13t59.5 36.5t38 56t13.5 72.5q0 41 -14 74.5t-39.5 57t-60 36.5t-74.5 13q-41 0 -75 -13t-59 -36.5t-39 -57t-14 -74.5z" />
    <glyph glyph-name="glyph289" horiz-adv-x="657" 
d="M329 539q60 0 110 -20t86.5 -56t57 -87t20.5 -113t-20.5 -112.5t-57 -86.5t-86.5 -56t-110 -20t-110 20t-87 56t-57.5 86.5t-20.5 112.5t20.5 113t57.5 87t87 56t110 20zM123 263q0 -38 10.5 -71.5t29.5 -59.5l292 303q-26 20 -58 30.5t-68 10.5q-44 0 -81.5 -15.5
t-65.5 -43t-43.5 -67t-15.5 -87.5zM329 51q44 0 81.5 15.5t65 43t43 66.5t15.5 87q0 85 -47 141l-293 -305q56 -48 135 -48z" />
    <glyph glyph-name="glyph290" horiz-adv-x="596" 
d="M394 348q142 -29 142 -164q0 -47 -18 -84t-51 -62.5t-79.5 -39t-103.5 -13.5q-65 0 -124.5 14.5t-110.5 37.5l17 59q58 -23 110 -34.5t100 -11.5q89 0 139 38t50 102q0 66 -49 96t-137 30h-94v60h94q88 0 129 29t41 90q0 64 -46.5 99.5t-126.5 35.5q-50 0 -102 -12
t-108 -34l-17 59q51 23 110 37.5t122 14.5q54 0 98 -13.5t75.5 -38t49 -60t17.5 -79.5q0 -64 -32.5 -102.5t-94.5 -53.5z" />
    <glyph glyph-name="glyph291" horiz-adv-x="606" 
d="M303 695q62 0 113 -25.5t87 -72t55.5 -112t19.5 -145.5t-19.5 -145.5t-55.5 -112t-87 -72t-113 -25.5t-112.5 25.5t-86.5 72t-56 112t-20 145.5t20 145.5t56 112t86.5 72t112.5 25.5zM303 49q46 0 83.5 21t64 59t41 92t14.5 119t-14.5 118.5t-41 92t-64 59.5t-83.5 21
t-83.5 -21t-64 -59.5t-41 -92t-14.5 -118.5t14.5 -119t41 -92t64 -59t83.5 -21z" />
    <glyph glyph-name="glyph292" horiz-adv-x="606" 
d="M71 0v59h215v540l-191 -55l-16 60l255 76h22v-621h199v-59h-484z" />
    <glyph glyph-name="glyph293" horiz-adv-x="606" 
d="M68 0v46l241 226q28 26 53.5 51t44.5 50t30.5 52t11.5 57q0 70 -47 109t-123 39q-40 0 -90 -13t-104 -40l-20 60q49 27 108.5 42.5t115.5 15.5t99.5 -15.5t73 -43t45 -65t15.5 -80.5q0 -39 -14 -74.5t-38 -69t-56 -65.5t-69 -64l-172 -154h382v-64h-487z" />
    <glyph glyph-name="glyph294" horiz-adv-x="606" 
d="M311 380h21q109 -4 169.5 -52t60.5 -134q0 -46 -18.5 -84.5t-52 -66t-80.5 -43t-104 -15.5q-62 0 -122.5 14.5t-115.5 42.5l25 55q54 -24 107.5 -37.5t107.5 -13.5q37 0 70.5 11t58 30.5t39 46t14.5 58.5q0 63 -49 95.5t-137 32.5h-95v34l232 262h-343v64h440v-44z" />
    <glyph glyph-name="glyph295" horiz-adv-x="606" 
d="M581 191v-61h-87v-130h-70v130h-385v48l385 502h70v-489h87zM424 191v392l-291 -392h291z" />
    <glyph glyph-name="glyph296" horiz-adv-x="606" 
d="M318 404q115 -6 180.5 -58t65.5 -144q0 -50 -18.5 -90t-51 -68.5t-77 -43.5t-97.5 -15q-70 0 -132 14.5t-118 42.5l24 60q54 -24 109.5 -38t113.5 -14q37 0 69 10t55 29.5t36.5 47.5t13.5 64q0 62 -48 98.5t-134 40.5l-201 10l31 330h400v-66h-339l-20 -203z" />
    <glyph glyph-name="glyph297" horiz-adv-x="606" 
d="M302 463q56 0 103 -16.5t81 -47.5t53 -74.5t19 -97.5t-19 -99t-53 -76.5t-81 -49t-103 -17.5t-103.5 17.5t-81.5 49t-53 76.5t-19 99q0 44 15 79.5t36 67.5l1 1l203 305h83l-149 -222q16 2 33 3.5t35 1.5zM302 46q40 0 74.5 13t59.5 36.5t39 57t14 74.5q0 40 -14 73
t-39 56t-59.5 36t-74.5 13q-42 0 -77 -13t-59.5 -36.5t-38 -56t-13.5 -72.5q0 -41 14 -74.5t39.5 -57t59.5 -36.5t75 -13z" />
    <glyph glyph-name="glyph298" horiz-adv-x="606" 
d="M232 0h-79l329 614h-430v66h519v-43z" />
    <glyph glyph-name="glyph299" horiz-adv-x="606" 
d="M423 357q75 -20 115 -64.5t40 -107.5q0 -44 -19 -81t-54 -63.5t-84 -41t-109 -14.5q-59 0 -108 14.5t-84 41t-54 63.5t-19 81q0 63 40 107.5t115 64.5q-57 20 -87.5 60.5t-30.5 98.5q0 40 16.5 73.5t46.5 56.5t72 36t93 13t93.5 -13t73 -36t47 -56.5t16.5 -73.5
q0 -58 -30.5 -98.5t-88.5 -60.5zM156 513q0 -59 42.5 -94t113.5 -35q72 0 115 35t43 94q0 55 -43 89.5t-115 34.5q-71 0 -113.5 -34.5t-42.5 -89.5zM312 46q43 0 78.5 11t60.5 30t39 45t14 57q0 30 -14 55t-39 43t-60.5 27.5t-78.5 9.5t-78 -9.5t-60 -27.5t-39 -43t-14 -55
q0 -31 14 -57t39 -45t60 -30t78 -11z" />
    <glyph glyph-name="glyph300" horiz-adv-x="606" 
d="M314 695q56 0 103.5 -17.5t81.5 -49t53 -76.5t19 -99q0 -44 -14.5 -80t-35.5 -67l-214 -306h-82l156 222q-16 -2 -32.5 -3.5t-34.5 -1.5q-56 0 -103 16.5t-81 47.5t-53 74.5t-19 97.5t19 99t53 76.5t81 49t103 17.5zM127 453q0 -40 14 -73t39 -56t59 -36t75 -13
q42 0 77 13t59.5 36.5t38 56t13.5 72.5q0 41 -14 74.5t-39 57t-59.5 36.5t-75.5 13t-75 -13t-59 -36.5t-39 -57t-14 -74.5z" />
    <glyph glyph-name="glyph301" horiz-adv-x="753" 
d="M377 695q70 0 127 -25.5t97.5 -72t63 -112t22.5 -145.5t-22.5 -145.5t-63 -112t-97.5 -72t-127 -25.5t-127.5 25.5t-98 72t-63 112t-22.5 145.5t22.5 145.5t63 112t98 72t127.5 25.5zM377 631q-54 0 -98.5 -21t-76 -59.5t-48.5 -92t-17 -118.5t17.5 -117.5t48.5 -90.5
l305 457q-56 42 -131 42zM235 98q29 -23 64.5 -36t77.5 -13q54 0 98 21t75.5 59t48.5 92t17 119q0 69 -19.5 124.5t-55.5 93.5z" />
    <glyph glyph-name="glyph310" horiz-adv-x="462" 
d="M231 381q42 0 76.5 -14t58.5 -39.5t37.5 -61.5t13.5 -79q0 -44 -13.5 -80t-37.5 -61.5t-58.5 -39.5t-76.5 -14t-76.5 14t-59 39.5t-38 61.5t-13.5 80q0 43 13.5 79t38 61.5t59 39.5t76.5 14zM231 41q59 0 95.5 40t36.5 106q0 65 -36.5 105t-95.5 40t-95 -40t-36 -105
q0 -66 36 -106t95 -40z" />
    <glyph glyph-name="glyph311" horiz-adv-x="288" 
d="M260 0h-236v48h95v258l-89 -26l-12 48l138 44h16v-324h88v-48z" />
    <glyph glyph-name="glyph312" horiz-adv-x="352" 
d="M37 0v36l139 122q29 23 48.5 46.5t19.5 54.5q0 35 -23.5 52.5t-63.5 17.5q-20 0 -48 -5t-61 -19l-13 47q28 14 63 21t67 7q34 0 60 -9t42.5 -24.5t25 -36.5t8.5 -44q0 -22 -7.5 -41.5t-21 -38t-31.5 -36t-38 -35.5l-78 -68h186v-47h-274z" />
    <glyph glyph-name="glyph313" horiz-adv-x="357" 
d="M179 212l9 -1q60 -2 94 -29t34 -72q0 -53 -39.5 -85.5t-111.5 -32.5q-34 0 -69.5 7t-67.5 24l19 43q61 -26 120 -26q42 0 70 18.5t28 47.5q0 60 -91 60h-71v26l123 132h-178v48h253v-33z" />
    <glyph glyph-name="glyph314" horiz-adv-x="398" 
d="M361 130v-47h-58v-83h-54v83h-231v39l228 250h57v-242h58zM249 130v179l-161 -179h161z" />
    <glyph glyph-name="glyph315" horiz-adv-x="380" 
d="M195 227q67 -3 102.5 -32.5t35.5 -80.5q0 -55 -40 -88.5t-103 -33.5q-83 0 -146 31l17 46q32 -14 62 -21.5t64 -7.5q42 0 69 19.5t27 52.5q0 29 -25.5 45.5t-67.5 18.5l-121 6l17 190h233v-48h-187l-9 -94z" />
    <glyph glyph-name="glyph316" horiz-adv-x="393" 
d="M197 275q67 0 109.5 -38.5t42.5 -102.5q0 -32 -11.5 -58.5t-31.5 -45.5t-48 -29.5t-61 -10.5t-61.5 10.5t-48.5 29.5t-31.5 45.5t-11.5 58.5q0 26 8.5 47t21.5 40l1 1l105 150h64l-68 -98q5 1 10.5 1h10.5zM197 37q43 0 70.5 26.5t27.5 70.5q0 42 -27.5 67.5t-70.5 25.5
q-48 0 -73.5 -24.5t-25.5 -68.5t27.5 -70.5t71.5 -26.5z" />
    <glyph glyph-name="glyph317" horiz-adv-x="320" 
d="M135 0h-61l158 321h-214v51h281v-33z" />
    <glyph glyph-name="glyph318" horiz-adv-x="368" 
d="M254 194q79 -24 79 -92q0 -48 -41 -79t-108 -31q-68 0 -108.5 31t-40.5 79q0 68 79 92q-61 23 -61 85q0 47 36.5 74.5t94.5 27.5q59 0 95.5 -27.5t36.5 -74.5q0 -61 -62 -85zM109 276q0 -31 20.5 -48t54.5 -17q35 0 55.5 17t20.5 48q0 26 -20.5 43.5t-55.5 17.5
q-34 0 -54.5 -17.5t-20.5 -43.5zM184 36q42 0 67 19.5t25 51.5q0 31 -25 49.5t-67 18.5q-41 0 -66.5 -18.5t-25.5 -49.5q0 -32 25.5 -51.5t66.5 -19.5z" />
    <glyph glyph-name="glyph319" horiz-adv-x="389" 
d="M325 164l-8 -12l-2 -2l-104 -150h-64l69 99q-5 -1 -11 -1h-11q-67 0 -109.5 38.5t-42.5 102.5q0 32 11.5 58.5t31.5 45.5t48 29.5t61 10.5t61.5 -10.5t48.5 -29.5t31.5 -45.5t11.5 -58.5q0 -38 -19 -71zM96 239q0 -42 27.5 -67.5t70.5 -25.5q46 0 72.5 26t26.5 67
q0 44 -27.5 70.5t-71.5 26.5q-43 0 -70.5 -26.5t-27.5 -70.5z" />
    <glyph glyph-name="glyph320" horiz-adv-x="462" 
d="M231 689q42 0 76.5 -14t58.5 -39.5t37.5 -61.5t13.5 -79q0 -44 -13.5 -80t-37.5 -61.5t-58.5 -39.5t-76.5 -14t-76.5 14t-59 39.5t-38 61.5t-13.5 80q0 43 13.5 79t38 61.5t59 39.5t76.5 14zM231 349q59 0 95.5 40t36.5 106q0 65 -36.5 105t-95.5 40t-95 -40t-36 -105
q0 -66 36 -106t95 -40z" />
    <glyph glyph-name="glyph321" horiz-adv-x="288" 
d="M260 308h-236v48h95v258l-89 -26l-12 48l138 44h16v-324h88v-48z" />
    <glyph glyph-name="glyph322" horiz-adv-x="352" 
d="M37 308v36l139 122q29 23 48.5 46.5t19.5 54.5q0 35 -23.5 52.5t-63.5 17.5q-20 0 -48 -5t-61 -19l-13 47q28 14 63 21t67 7q34 0 60 -9t42.5 -24.5t25 -36.5t8.5 -44q0 -22 -7.5 -41.5t-21 -38t-31.5 -36t-38 -35.5l-78 -68h186v-47h-274z" />
    <glyph glyph-name="glyph323" horiz-adv-x="357" 
d="M179 520l9 -1q60 -2 94 -29t34 -72q0 -53 -39.5 -85.5t-111.5 -32.5q-34 0 -69.5 7t-67.5 24l19 43q61 -26 120 -26q42 0 70 18.5t28 47.5q0 60 -91 60h-71v26l123 132h-178v48h253v-33z" />
    <glyph glyph-name="glyph324" horiz-adv-x="398" 
d="M361 438v-47h-58v-83h-54v83h-231v39l228 250h57v-242h58zM249 438v179l-161 -179h161z" />
    <glyph glyph-name="glyph325" horiz-adv-x="380" 
d="M195 535q67 -3 102.5 -32.5t35.5 -80.5q0 -55 -40 -88.5t-103 -33.5q-83 0 -146 31l17 46q32 -14 62 -21.5t64 -7.5q42 0 69 19.5t27 52.5q0 29 -25.5 45.5t-67.5 18.5l-121 6l17 190h233v-48h-187l-9 -94z" />
    <glyph glyph-name="glyph326" horiz-adv-x="393" 
d="M197 583q67 0 109.5 -38.5t42.5 -102.5q0 -32 -11.5 -58.5t-31.5 -45.5t-48 -29.5t-61 -10.5t-61.5 10.5t-48.5 29.5t-31.5 45.5t-11.5 58.5q0 26 8.5 47t21.5 40l1 1l105 150h64l-68 -98q5 1 10.5 1h10.5zM197 345q43 0 70.5 26.5t27.5 70.5q0 42 -27.5 67.5t-70.5 25.5
q-48 0 -73.5 -24.5t-25.5 -68.5t27.5 -70.5t71.5 -26.5z" />
    <glyph glyph-name="glyph327" horiz-adv-x="320" 
d="M135 308h-61l158 321h-214v51h281v-33z" />
    <glyph glyph-name="glyph328" horiz-adv-x="368" 
d="M254 500q79 -24 79 -92q0 -48 -41 -79t-108 -31q-68 0 -108.5 31t-40.5 79q0 68 79 92q-61 23 -61 85q0 47 36.5 74.5t94.5 27.5q59 0 95.5 -27.5t36.5 -74.5q0 -61 -62 -85zM109 582q0 -31 20.5 -48t54.5 -17q35 0 55.5 17t20.5 48q0 26 -20.5 43.5t-55.5 17.5
q-34 0 -54.5 -17.5t-20.5 -43.5zM184 342q42 0 67 19.5t25 51.5q0 31 -25 49.5t-67 18.5q-41 0 -66.5 -18.5t-25.5 -49.5q0 -32 25.5 -51.5t66.5 -19.5z" />
    <glyph glyph-name="glyph329" horiz-adv-x="389" 
d="M325 468l-8 -12l-2 -2l-104 -150h-64l69 99q-5 -1 -11 -1h-11q-67 0 -109.5 38.5t-42.5 102.5q0 32 11.5 58.5t31.5 45.5t48 29.5t61 10.5t61.5 -10.5t48.5 -29.5t31.5 -45.5t11.5 -58.5q0 -38 -19 -71zM96 543q0 -42 27.5 -67.5t70.5 -25.5q46 0 72.5 26t26.5 67
q0 44 -27.5 70.5t-71.5 26.5q-43 0 -70.5 -26.5t-27.5 -70.5z" />
    <glyph glyph-name="glyph356" horiz-adv-x="371" 
d="M214 475q0 -61 -15.5 -94t-57.5 -47q42 -14 57.5 -47t15.5 -94v-105q0 -62 23 -87t78 -25v-62q-89 0 -129 43t-40 134v105q0 63 -23 85t-78 22v62q55 0 78 22t23 85v105q0 91 40 134t129 43v-62q-55 0 -78 -25t-23 -87v-105z" />
    <glyph glyph-name="glyph357" horiz-adv-x="371" 
d="M157 580q0 62 -23 87t-78 25v62q89 0 129 -43t40 -134v-105q0 -63 23 -85t78 -22v-62q-55 0 -78 -22t-23 -85v-105q0 -91 -40 -134t-129 -43v62q55 0 78 25t23 87v105q0 61 15 94t57 47q-42 14 -57 47t-15 94v105z" />
    <glyph glyph-name="glyph358" horiz-adv-x="327" 
d="M280 -9v-65h-206v823h206v-66h-138v-692h138z" />
    <glyph glyph-name="glyph359" horiz-adv-x="327" 
d="M47 749h206v-823h-206v65h138v692h-138v66z" />
    <glyph glyph-name="glyph360" horiz-adv-x="320" 
d="M266 724q-35 -48 -62 -92.5t-45 -90.5t-27.5 -95.5t-9.5 -107.5t9.5 -107.5t27.5 -95.5t45 -90t62 -92l-51 -33q-83 102 -121 203t-38 215t38 215t121 203z" />
    <glyph glyph-name="glyph361" horiz-adv-x="315" 
d="M100 756q83 -101 121.5 -203t38.5 -215t-38.5 -215t-121.5 -203l-51 33q35 48 62 92t45.5 90t28 95.5t9.5 107.5t-9.5 107.5t-28 95.5t-45.5 90.5t-62 92.5z" />
    <glyph glyph-name="glyph365" horiz-adv-x="931" 
d="M851 312h-771v68h771v-68z" />
    <glyph glyph-name="glyph366" horiz-adv-x="657" 
d="M577 312h-497v68h497v-68z" />
    <glyph glyph-name="glyph367" horiz-adv-x="459" 
d="M378 312h-299v68h299v-68z" />
    <glyph glyph-name="glyph378" horiz-adv-x="545" 
d="M237 135l-186 197l186 196l40 -33l-146 -162l145 -162zM433 135l-186 197l186 196l39 -33l-145 -162l144 -162z" />
    <glyph glyph-name="glyph379" horiz-adv-x="545" 
d="M111 528l185 -196l-185 -197l-39 36l144 162l-145 162zM306 528l186 -196l-186 -197l-39 36l145 162l-145 162z" />
    <glyph glyph-name="glyph380" horiz-adv-x="350" 
d="M237 135l-186 197l186 196l40 -33l-146 -162l145 -162z" />
    <glyph glyph-name="glyph381" horiz-adv-x="350" 
d="M113 528l185 -196l-185 -197l-39 36l144 162l-145 162z" />
    <glyph glyph-name="glyph400" horiz-adv-x="445" 
d="M399 -95h-71l-282 863h71z" />
    <glyph glyph-name="glyph401" horiz-adv-x="317" 
d="M158 217q-24 0 -45 8.5t-36 24t-24 36t-9 44.5t9 44.5t24 36t36 24t45 8.5t45 -8.5t36.5 -24t24 -36t8.5 -44.5t-8.5 -44.5t-24 -36t-36.5 -24t-45 -8.5z" />
    <glyph glyph-name="glyph402" horiz-adv-x="266" 
d="M131 693q21 0 35.5 -14t14.5 -35t-14.5 -35t-35.5 -14t-35.5 14t-14.5 35t14.5 35t35.5 14zM164 504l4 -504h-75l3 504h68z" />
    <glyph glyph-name="glyph403" horiz-adv-x="274" 
d="M137 289q-23 0 -38.5 15t-15.5 38t15.5 38t38.5 15t38.5 -15t15.5 -38t-15.5 -38t-38.5 -15z" />
    <glyph glyph-name="glyph404" horiz-adv-x="501" 
d="M323 595q-21 0 -35.5 14t-14.5 35t14.5 35t35.5 14t35.5 -14t14.5 -35t-14.5 -35t-35.5 -14zM290 -15q-54 0 -97.5 14.5t-75 41.5t-48.5 65t-17 85t16 86.5t45.5 67.5t70 43.5t90.5 15.5h24l-4 100h64l12 -158h-84q-76 0 -121.5 -43t-45.5 -114q0 -65 46.5 -104
t123.5 -39q38 0 79 5t82 13l11 -57q-40 -11 -84 -16.5t-87 -5.5z" />
    <glyph glyph-name="glyph405" horiz-adv-x="446" 
d="M46 -98l284 866h70l-283 -866h-71z" />
    <glyph glyph-name="glyph409" horiz-adv-x="606" 
d="M456 633q-50 0 -70.5 -29t-28.5 -96l-14 -104h187v-62h-196l-23 -172q-6 -48 -17.5 -82.5t-31 -57.5t-48 -34t-68.5 -11q-23 0 -45 4t-45 10l11 56q20 -4 38.5 -6t37.5 -2q25 0 42.5 7t28.5 22t17.5 39t11.5 57l23 170h-128v62h136l14 106q7 47 18.5 82t30.5 58t47.5 34
t69.5 11q22 0 44 -4t45 -10l-11 -56q-20 4 -38.5 6t-37.5 2z" />
    <glyph glyph-name="glyph415" horiz-adv-x="606" 
d="M515 24q-34 -11 -71 -18t-71 -9v-122h-63v123q-50 4 -90.5 23.5t-70 51t-45.5 74.5t-16 94q0 52 16 94.5t45 74t70 51t91 24.5v123h63v-122q32 -2 68 -8.5t65 -16.5l-11 -56q-38 10 -78 15.5t-69 5.5q-42 0 -77 -13t-59.5 -37t-38.5 -58t-14 -76t13.5 -76t38.5 -58.5
t58.5 -37.5t74.5 -13q31 0 74 7t86 18z" />
    <glyph glyph-name="glyph416" horiz-adv-x="606" 
d="M567 186q0 -46 -17 -82t-47 -61.5t-72.5 -39.5t-93.5 -17v-117h-63v117q-60 5 -123 19t-120 37l19 66q68 -28 137.5 -42.5t129.5 -14.5q79 0 128.5 33t49.5 96q0 39 -20 63t-52.5 39t-73 24t-81.5 18q-57 12 -96.5 26.5t-64 35t-36 48.5t-11.5 66q0 42 15.5 76t43.5 58.5
t67.5 39t87.5 17.5v125h63v-125q57 -3 112 -14t97 -26l-19 -61q-58 17 -119 27.5t-110 10.5q-74 0 -118.5 -32.5t-44.5 -92.5q0 -26 10 -44t31 -31.5t54 -23.5t78 -19q57 -12 104.5 -26t82 -35.5t53.5 -54.5t19 -83z" />
    <glyph glyph-name="glyph417" horiz-adv-x="606" 
d="M583 21q-51 -19 -101.5 -27t-95.5 -8q-116 0 -192 64t-102 174h-75v51h66q-3 28 -3 58v19t1 18h-64v51h71q11 58 36.5 105.5t63.5 81.5t89 52t113 18q43 0 91.5 -7.5t93.5 -23.5l-10 -64q-54 14 -97 20.5t-78 6.5q-92 0 -149 -50.5t-77 -138.5h304l-12 -51h-300
q-1 -9 -1 -18v-19q0 -15 1 -29.5t3 -28.5h277l-13 -51h-254q22 -80 77 -125t140 -45q35 0 81 6.5t107 24.5z" />
    <glyph glyph-name="glyph418" horiz-adv-x="606" 
d="M38 0v60h75v223h-75v60h75v146q0 46 17 84t48.5 65t75.5 42t98 15q43 0 87 -5.5t84 -16.5l-12 -57q-40 8 -81.5 13t-79.5 5q-77 0 -122.5 -39.5t-45.5 -105.5v-146h239v-60h-239v-223h386v-60h-530z" />
    <glyph glyph-name="glyph419" horiz-adv-x="606" 
d="M551 227h-212v-84h212v-53h-212v-90h-72v90h-209v53h209v84h-209v53h190l-228 400h80l202 -355l203 355h80l-227 -400h193v-53z" />
    <glyph glyph-name="glyph439" horiz-adv-x="699" 
d="M350 65q-56 0 -105.5 21.5t-86.5 58.5t-58.5 86.5t-21.5 105.5t21.5 105.5t58.5 86t86.5 58t105.5 21.5t105.5 -21.5t86 -58t58 -86t21.5 -105.5t-21.5 -105.5t-58 -86.5t-86 -58.5t-105.5 -21.5zM350 106q47 0 89 18t73.5 49.5t49.5 73.5t18 90q0 47 -18 89t-49.5 73.5
t-73.5 49.5t-89 18q-48 0 -90 -18t-73.5 -49.5t-49.5 -73.5t-18 -89q0 -48 18 -90t49.5 -73.5t73.5 -49.5t90 -18zM226 323l26 26l79 -78v195h37v-195l78 78l26 -26l-123 -123z" />
    <glyph glyph-name="glyph440" horiz-adv-x="700" 
d="M158 144q-40 40 -60 90.5t-20 102.5t20 102t60 90t90 59.5t102 19.5t102.5 -19.5t90.5 -59.5q39 -40 59 -90t20 -102t-20 -102t-59 -90q-40 -40 -90.5 -60t-102.5 -20t-102 20t-90 59zM187 174q34 -34 76.5 -51t86.5 -17t86.5 17t76.5 51t50.5 76.5t16.5 86.5t-16.5 86.5
t-50.5 75.5q-34 34 -76.5 51t-86.5 17t-86.5 -17t-76.5 -50q-34 -34 -51 -76.5t-17 -86.5t17 -86.5t51 -76.5zM253 415h37v-112l138 139l26 -27l-138 -137l111 -1v-36h-174v174z" />
    <glyph glyph-name="glyph441" horiz-adv-x="699" 
d="M542 144q-40 -39 -90 -59t-102 -20t-102.5 20t-90.5 60q-39 40 -59 90t-20 102t20 102t59 90q40 40 90.5 59.5t102.5 19.5t102 -19.5t90 -59.5t59.5 -90t19.5 -102t-19.5 -102.5t-59.5 -90.5zM513 174q34 34 50.5 76.5t16.5 86.5t-16.5 86.5t-50.5 76.5q-34 33 -76.5 50
t-86.5 17t-86.5 -17t-76.5 -51q-34 -33 -51 -75.5t-17 -86.5t17 -86.5t51 -76.5t76.5 -51t86.5 -17t86.5 17t76.5 51zM384 278l-138 137l26 27l138 -139v112h37v-174h-174v36z" />
    <glyph glyph-name="glyph442" horiz-adv-x="699" 
d="M78 336q0 56 21.5 105.5t58.5 86.5t86.5 58.5t105.5 21.5t105.5 -21.5t86 -58.5t58 -86.5t21.5 -105.5t-21.5 -105.5t-58 -86t-86 -58t-105.5 -21.5t-105.5 21.5t-86.5 58t-58.5 86t-21.5 105.5zM119 336q0 -47 18 -89t49.5 -73.5t73.5 -49.5t90 -18q47 0 89 18
t73.5 49.5t49.5 73.5t18 89q0 48 -18 90t-49.5 73.5t-73.5 49.5t-89 18q-48 0 -90 -18t-73.5 -49.5t-49.5 -73.5t-18 -90zM336 460l26 -26l-78 -79h195v-37h-195l78 -78l-26 -26l-123 123z" />
    <glyph glyph-name="glyph443" horiz-adv-x="699" 
d="M621 336q0 -56 -21.5 -105.5t-58.5 -86t-86.5 -58t-105.5 -21.5t-105.5 21.5t-86 58t-58 86t-21.5 105.5t21.5 105.5t58 86.5t86 58.5t105.5 21.5t105.5 -21.5t86.5 -58.5t58.5 -86.5t21.5 -105.5zM580 336q0 48 -18 90t-49.5 73.5t-73.5 49.5t-90 18q-47 0 -89 -18
t-73.5 -49.5t-49.5 -73.5t-18 -90q0 -47 18 -89t49.5 -73.5t73.5 -49.5t89 -18q48 0 90 18t73.5 49.5t49.5 73.5t18 89zM415 318h-195v37h195l-78 79l26 26l123 -123l-123 -123l-26 26z" />
    <glyph glyph-name="glyph444" horiz-adv-x="699" 
d="M350 608q56 0 105.5 -21.5t86 -58.5t58 -86.5t21.5 -105.5t-21.5 -105.5t-58 -86t-86 -58t-105.5 -21.5t-105.5 21.5t-86.5 58t-58.5 86t-21.5 105.5t21.5 105.5t58.5 86.5t86.5 58.5t105.5 21.5zM350 567q-48 0 -90 -18t-73.5 -49.5t-49.5 -73.5t-18 -90q0 -47 18 -89
t49.5 -73.5t73.5 -49.5t90 -18q47 0 89 18t73.5 49.5t49.5 73.5t18 89q0 48 -18 90t-49.5 73.5t-73.5 49.5t-89 18zM368 402v-195h-37v195l-79 -78l-26 26l123 123l123 -123l-26 -26z" />
    <glyph glyph-name="glyph445" horiz-adv-x="700" 
d="M158 530q40 39 90 59t102 20t102.5 -20t90.5 -60q39 -40 59 -90t20 -102t-20 -102t-59 -90q-40 -40 -90.5 -60t-102.5 -20t-102 20t-90 60t-60 90t-20 102t20 102.5t60 90.5zM187 500q-34 -34 -51 -76.5t-17 -86.5t17 -86.5t51 -76.5q34 -33 76.5 -50t86.5 -17t86.5 17
t76.5 51q34 33 50.5 75.5t16.5 86.5t-16.5 86.5t-50.5 76.5t-76.5 50.5t-86.5 16.5t-86.5 -16.5t-76.5 -50.5zM316 396l138 -137l-26 -27l-138 139v-112h-37v174h174v-36z" />
    <glyph glyph-name="glyph446" horiz-adv-x="699" 
d="M542 530q40 -40 59.5 -90.5t19.5 -102.5t-19.5 -102t-59.5 -90t-90 -60t-102 -20t-102.5 20t-90.5 60q-39 40 -59 90t-20 102t20 102t59 90q40 40 90.5 60t102.5 20t102 -20t90 -59zM513 500q-34 34 -76.5 50.5t-86.5 16.5t-86.5 -16.5t-76.5 -50.5t-51 -76.5t-17 -86.5
t17 -86.5t51 -75.5q34 -34 76.5 -51t86.5 -17t86.5 17t76.5 50q34 34 50.5 76.5t16.5 86.5t-16.5 86.5t-50.5 76.5zM447 259h-37v112l-138 -139l-26 27l138 137l-111 1v36h174v-174z" />
    <glyph glyph-name="glyph447" horiz-adv-x="699" 
d="M350 65q-56 0 -105.5 21.5t-86.5 58.5t-58.5 86.5t-21.5 105.5t21.5 105.5t58.5 86t86.5 58t105.5 21.5t105.5 -21.5t86 -58t58 -86t21.5 -105.5t-21.5 -105.5t-58 -86.5t-86 -58.5t-105.5 -21.5zM368 271v195h-37v-195l-79 78l-26 -26l123 -123l123 123l-26 26z" />
    <glyph glyph-name="glyph448" horiz-adv-x="700" 
d="M158 144q-40 40 -60 90.5t-20 102.5t20 102t60 90t90 59.5t102 19.5t102.5 -19.5t90.5 -59.5q39 -40 59 -90t20 -102t-20 -102t-59 -90q-40 -40 -90.5 -60t-102.5 -20t-102 20t-90 59zM316 278l138 137l-26 27l-138 -139v112h-37v-174h174v36z" />
    <glyph glyph-name="glyph449" horiz-adv-x="699" 
d="M542 144q-40 -39 -90 -59t-102 -20t-102.5 20t-90.5 60q-39 40 -59 90t-20 102t20 102t59 90q40 40 90.5 59.5t102.5 19.5t102 -19.5t90 -59.5t59.5 -90t19.5 -102t-19.5 -102.5t-59.5 -90.5zM447 415h-37v-112l-138 139l-26 -27l138 -137l-111 -1v-36h174v174z" />
    <glyph glyph-name="glyph450" horiz-adv-x="699" 
d="M78 336q0 56 21.5 105.5t58.5 86.5t86.5 58.5t105.5 21.5t105.5 -21.5t86 -58.5t58 -86.5t21.5 -105.5t-21.5 -105.5t-58 -86t-86 -58t-105.5 -21.5t-105.5 21.5t-86.5 58t-58.5 86t-21.5 105.5zM284 318h195v37h-195l78 79l-26 26l-123 -123l123 -123l26 26z" />
    <glyph glyph-name="glyph451" horiz-adv-x="699" 
d="M621 336q0 -56 -21.5 -105.5t-58.5 -86t-86.5 -58t-105.5 -21.5t-105.5 21.5t-86 58t-58 86t-21.5 105.5t21.5 105.5t58 86.5t86 58.5t105.5 21.5t105.5 -21.5t86.5 -58.5t58.5 -86.5t21.5 -105.5zM363 460l-26 -26l78 -79h-195v-37h195l-78 -78l26 -26l123 123z" />
    <glyph glyph-name="glyph452" horiz-adv-x="699" 
d="M350 608q56 0 105.5 -21.5t86 -58.5t58 -86.5t21.5 -105.5t-21.5 -105.5t-58 -86t-86 -58t-105.5 -21.5t-105.5 21.5t-86.5 58t-58.5 86t-21.5 105.5t21.5 105.5t58.5 86.5t86.5 58.5t105.5 21.5zM226 350l26 -26l79 78v-195h37v195l78 -78l26 26l-123 123z" />
    <glyph glyph-name="glyph453" horiz-adv-x="700" 
d="M158 530q40 39 90 59t102 20t102.5 -20t90.5 -60q39 -40 59 -90t20 -102t-20 -102t-59 -90q-40 -40 -90.5 -60t-102.5 -20t-102 20t-90 60t-60 90t-20 102t20 102.5t60 90.5zM253 259h37v112l138 -139l26 27l-138 137l111 1v36h-174v-174z" />
    <glyph glyph-name="glyph454" horiz-adv-x="699" 
d="M542 530q40 -40 59.5 -90.5t19.5 -102.5t-19.5 -102t-59.5 -90t-90 -60t-102 -20t-102.5 20t-90.5 60q-39 40 -59 90t-20 102t20 102t59 90q40 40 90.5 60t102.5 20t102 -20t90 -59zM384 396l-138 -137l26 -27l138 139v-112h37v174h-174v-36z" />
    <glyph glyph-name="glyph455" horiz-adv-x="684" 
d="M342 158l-248 249l43 43l205 -207l205 206l42 -43z" />
    <glyph glyph-name="glyph456" horiz-adv-x="684" 
d="M342 386l-205 -206l-43 42l248 249l247 -248l-42 -43z" />
    <glyph glyph-name="glyph457" horiz-adv-x="550" 
d="M409 140l-43 -42l-247 247l248 248l43 -43l-207 -205z" />
    <glyph glyph-name="glyph458" horiz-adv-x="550" 
d="M184 98l-43 42l206 205l-207 205l43 43l248 -248z" />
    <glyph glyph-name="glyph478" horiz-adv-x="584" 
d="M292 695q48 0 89.5 -17t72 -46.5t47.5 -70t17 -88.5t-17 -89t-47.5 -70.5t-72 -46.5t-89.5 -17q-49 0 -90.5 17t-71.5 46.5t-47 70.5t-17 89t17 88.5t47 70t71.5 46.5t90.5 17zM292 663q-41 0 -76.5 -14.5t-61 -40t-40 -60.5t-14.5 -75q0 -41 14.5 -76.5t40 -61t61 -40
t76.5 -14.5q42 0 77.5 14.5t61 40t40 61t14.5 76.5q0 40 -14.5 75t-40 60.5t-61 40t-77.5 14.5zM291 589q44 0 68 -19.5t24 -53.5q0 -24 -12.5 -41t-34.5 -25l55 -81h-46l-50 72h-41v-72h-37v217q21 2 40.5 2.5t33.5 0.5zM254 475h46q21 0 32.5 11t11.5 28q0 19 -11.5 30.5
t-37.5 9.5l-41 -1v-78z" />
    <glyph glyph-name="glyph481" horiz-adv-x="1017" 
d="M508 769q101 0 184 -31.5t142 -89t91 -138t32 -178.5q0 -64 -13.5 -109.5t-37 -75t-55.5 -43t-70 -13.5q-91 0 -119 64q-50 -35 -93 -51t-94 -16t-92.5 17.5t-71 49.5t-46 77t-16.5 100q0 49 16 90.5t46 72t72.5 47.5t95.5 17q39 0 71 -2t59 -5t51.5 -7.5t49.5 -9.5v-284
q0 -55 17 -83.5t63 -28.5q26 0 49 9.5t40 32t27 59.5t10 92q0 89 -29.5 162.5t-83 126t-128.5 81t-167 28.5q-86 0 -160.5 -30.5t-129.5 -84t-86 -126t-31 -157.5t30 -157.5t83 -126t126 -84.5t159 -31q61 0 120 9t128 25l7 -37q-67 -17 -128 -26.5t-127 -9.5
q-96 0 -177 33.5t-139 92t-90.5 138.5t-32.5 174t34 174t94 138.5t142 91.5t178 33zM487 502q-42 0 -74.5 -13.5t-54 -36.5t-32.5 -54.5t-11 -68.5q0 -41 12 -75t33.5 -58t52.5 -37.5t70 -13.5q40 0 78.5 13t89.5 46q-6 25 -6 57v228q-44 8 -80 10.5t-78 2.5z" />
    <glyph glyph-name="glyph482" horiz-adv-x="311" 
d="M188 -124h-65v918h65v-918z" />
    <glyph glyph-name="glyph483" horiz-adv-x="311" 
d="M123 385v408h65v-408h-65zM123 -125v408h65v-408h-65z" />
    <glyph glyph-name="glyph497" 
d="M307 484h-53l10 196h71z" />
    <glyph glyph-name="glyph498" 
d="M337 744h-72l89 152h92z" />
    <glyph glyph-name="glyph499" 
d="M445 892q0 -66 -39.5 -104.5t-105.5 -38.5t-105.5 38.5t-39.5 104.5h58q0 -42 24 -65t63 -23t62.5 23t23.5 65h59z" />
    <glyph glyph-name="glyph500" 
d="M268 739l-126 155h70l88 -106l88 106h70l-126 -155h-64z" />
    <glyph glyph-name="glyph501" 
d="M211 744h-69l126 152h64l126 -152h-69l-89 104z" />
    <glyph glyph-name="glyph502" 
d="M195 772q-20 0 -34 13.5t-14 33.5t14 33t34 13t34 -13t14 -33t-14 -33.5t-34 -13.5zM405 772q-20 0 -34 13.5t-14 33.5t14 33t34 13t34 -13t14 -33t-14 -33.5t-34 -13.5z" />
    <glyph glyph-name="glyph503" 
d="M300 772q-20 0 -34 13.5t-14 33.5t14 33t34 13t34 -13t14 -33t-14 -33.5t-34 -13.5z" />
    <glyph glyph-name="glyph504" 
d="M271 744l-109 152h92l84 -152h-67z" />
    <glyph glyph-name="glyph505" 
d="M276 744h-62l70 152h72zM414 744h-63l70 152h72z" />
    <glyph glyph-name="glyph506" 
d="M443 781h-288v55h288v-55z" />
    <glyph glyph-name="glyph507" 
d="M299 917q42 0 69.5 -25.5t27.5 -68.5q0 -42 -27.5 -67.5t-69.5 -25.5t-69.5 25.5t-27.5 67.5q0 43 27.5 68.5t69.5 25.5zM299 769q23 0 39 15t16 39q0 25 -16 40.5t-39 15.5t-39 -15.5t-16 -40.5q0 -24 16 -39t39 -15z" />
    <glyph glyph-name="glyph508" 
d="M457 847q0 -36 -14.5 -58t-36 -31.5t-45.5 -7.5t-42 13l-55 37q-24 15 -45.5 5.5t-21.5 -38.5h-54q0 36 14.5 58t36 31t45.5 7t42 -13l55 -36q24 -16 45 -6t21 39h55z" />
    </font>
</defs>
</svg>
